<?xml version="1.0" encoding="UTF-8"?>
<svg width="122px" height="25px" viewBox="0 0 122 25" version="1.1" xmlns="http://www.w3.org/2000/svg" xmlns:xlink="http://www.w3.org/1999/xlink">
    <!-- Generator: Sketch 47.1 (45422) - http://www.bohemiancoding.com/sketch -->
    <title>mijn lijst copy 4</title>
    <desc>Created with Sketch.</desc>
    <defs></defs>
    <g id="Page-1" stroke="none" stroke-width="1" fill="none" fill-rule="evenodd">
        <g id="klaar" transform="translate(-128.000000, -529.000000)" fill="#303030">
            <path d="M135.98,531.24 L136,531.28 L136.32,531.24 L136.9,530.96 L137.16,530.8 L137.68,530.66 L138.28,530.5 L138.88,530.42 L139.58,530.4 L140.2,530.52 L140.62,530.56 L140.92,530.68 L141.2,530.96 L141.3,530.96 L141.3,531.02 L141.38,531.02 L141.38,531.06 L141.66,531.18 L141.88,531.38 L142.04,531.44 L142.44,531.92 L142.46,532 L142.56,532.1 L142.74,532.6 L142.86,533.2 L142.88,533.56 L142.78,534.12 L142.76,534.32 L142.54,534.88 L142.4,535.18 L142.08,535.6 L141.9,535.86 L141.66,536.06 L141.1,536.42 L140.7,536.58 L140.08,536.74 L139.52,536.82 L138.82,536.8 L138.5,536.78 L138.22,536.72 L137.6,536.5 L137.12,536.22 L137.04,536.22 L136.86,536.04 L136.72,536 L136.5,535.78 L136.28,535.64 L136.18,535.64 L135.98,535.86 L135.94,536.18 L136,536.78 L136.04,537.1 L136.26,537.68 L136.28,537.76 L136.36,537.8 L136.38,537.94 L136.74,538.44 L136.92,538.72 L137,539.02 L136.76,539.62 L136.66,539.72 L136.52,539.98 L136.16,540.32 L135.88,540.34 L135.32,540.06 L134.76,539.9 L134.1,539.8 L133.42,539.74 L133.12,539.76 L132.5,539.96 L132.2,540.08 L131.94,540.28 L131.76,540.36 L131.28,540.8 L130.9,541.32 L130.8,541.6 L130.74,541.66 L130.52,542.28 L130.36,542.9 L130.38,543.56 L130.48,544.16 L130.52,544.5 L130.62,544.78 L130.98,545.32 L131.04,545.38 L131.08,545.52 L131.5,545.96 L131.74,546.2 L132.08,546.48 L133.32,546.8 L134.02,546.78 L134.6,546.68 L135.18,546.48 L135.5,546.34 L136,545.96 L136.34,545.66 L136.34,545.58 L136.46,545.5 L136.5,545.36 L136.82,544.82 L136.86,544.78 L136.9,544.5 L136.96,544.46 L137.12,543.9 L137.18,543.22 L137.12,542.62 L137.08,542.44 L137.1,542.26 L137.26,542 L137.38,541.92 L137.68,541.84 L137.9,541.74 L138.5,541.62 L138.86,541.56 L139.08,541.78 L139.22,542.06 L139.28,542.68 L139.32,543.36 L139.36,543.66 L139.24,544.3 L139.14,544.96 L139.14,545.1 L138.84,545.64 L138.58,546.22 L138.52,546.26 L138.48,546.38 L138.32,546.56 L138.26,546.72 L138.08,546.96 L138,547 L137.82,547.26 L137.3,547.64 L136.76,548.04 L136.5,548.2 L135.92,548.46 L135.6,548.54 L135.6,548.58 L135.12,548.66 L134.84,548.8 L134.52,548.88 L133.88,548.92 L133.24,548.9 L132.6,548.9 L132.56,548.86 L131.94,548.7 L131.6,548.58 L131.6,548.54 L131.2,548.4 L131.14,548.34 L130.98,548.28 L130.92,548.22 L130.84,548.22 L130.64,548.1 L130.38,547.86 L129.88,547.52 L129.44,547.08 L129.06,546.56 L128.88,546.4 L128.58,545.86 L128.46,545.56 L128.4,545.5 L128.26,544.96 L128.26,544.82 L128.16,544.66 L128.12,543.96 L128.02,543.32 L128.08,542.64 L128.18,542.04 L128.2,541.88 L128.4,541.32 L128.42,541.22 L128.58,540.98 L128.7,540.68 L128.94,540.26 L129.3,539.76 L129.7,539.28 L130.16,538.84 L130.34,538.66 L130.42,538.66 L130.92,538.44 L131.02,538.3 L131.16,538.26 L131.2,538.16 L131.28,538.16 L131.4,538.08 L131.56,538.06 L131.92,537.88 L132.62,537.78 L132.84,537.7 L133.48,537.68 L133.88,537.54 L133.92,537.42 L133.9,537.12 L133.76,536.44 L133.76,535.76 L133.84,535.1 L133.98,534.5 L134.14,533.94 L134.2,533.78 L134.24,533.78 L134.26,533.64 L134.4,533.42 L134.52,532.84 L134.46,532.28 L134.34,531.98 L134.24,531.38 L134.18,531.06 L134.24,530.96 L134.2,530.96 L134.14,530.34 L134.3,529.82 L134.66,529.58 L135.04,529.56 L135.36,529.66 L135.7,529.96 L135.74,530.08 L135.78,530.74 L135.82,531.06 L135.98,531.24 Z M138.58,532.58 L138.54,532.6 L138.08,532.68 L138.08,532.74 L137.58,532.92 L137.36,533 L137.26,533.12 L137.1,533.18 L136.86,533.58 L136.86,533.78 L137,534.06 L137.22,534.28 L137.72,534.64 L138.28,534.94 L138.4,535 L138.78,535.06 L139.46,535 L139.8,534.96 L140.1,534.84 L140.36,534.62 L140.68,534.12 L140.76,533.82 L140.74,533.5 L140.66,533.28 L140.24,532.8 L139.94,532.68 L139.3,532.52 L139,532.46 L138.58,532.58 Z M136.06,532.74 L136.04,532.78 L135.98,532.8 L135.96,533 L136.06,533.14 L136.08,533.28 L136.38,533.16 L136.4,533 L136.22,532.86 L136.18,532.78 L136.24,532.74 L136.3,532.78 L136.4,532.78 L136.36,532.48 L136.22,532.42 L136.12,532.54 L136.06,532.74 Z M134.98,534.56 L134.96,534.6 L134.88,534.62 L134.86,534.68 L134.96,534.66 L135,534.6 L135.04,534.6 L135.14,534.72 L135.24,534.66 L135.72,534.68 L135.66,534.52 L135.42,534.36 L135.4,534.28 L135.32,534.22 L135.28,534.32 L135.18,534.22 L135.1,534.22 L134.98,534.56 Z M134.92,535.36 L134.92,535.4 L135.26,535.38 L135.68,535.26 L135.68,535 L135.52,535.02 L135.3,535.18 L135.1,535.18 L135.1,535.02 L135,535 L135,535.18 L134.92,535.36 Z M130.04,541.2 L130.06,541.24 L130.24,541.16 L130.34,541.16 L130.38,540.84 L130.14,540.9 L130.04,541.02 L130.04,541.2 Z M135.56,534.1 L135.54,534.14 L135.9,534.18 L135.96,534.1 L135.84,533.86 L135.78,533.82 L135.56,534.06 L135.56,534.1 Z M138.84,531.5 L138.8,531.52 L138.64,531.7 L138.64,531.84 L138.68,531.88 L138.78,531.88 L138.88,531.78 L138.96,531.56 L139.02,531.5 L138.98,531.46 L138.94,531.52 L138.84,531.5 Z M134.2,538.24 L134.18,538.26 L134.5,538.34 L134.56,538.04 L134.48,538 L134.34,538.06 L134.2,538.24 Z M135.02,537.76 L134.96,537.76 L134.88,537.96 L134.9,538.02 L135,538.04 L135.02,537.8 L135.22,537.9 L135.32,537.8 L135.32,537.72 L135.02,537.76 Z M135.9,534.56 L135.96,534.68 L136.1,534.62 L136.14,534.46 L136.1,534.38 L135.96,534.32 L135.9,534.56 Z M135.16,533.88 L135.14,533.92 L135.36,533.96 L135.42,533.82 L135.42,533.64 L135.28,533.7 L135.18,533.8 L135.16,533.88 Z M135.34,537.64 L135.36,537.66 L135.44,537.66 L135.5,537.6 L135.54,537.36 L135.38,537.36 L135.32,537.42 L135.3,537.52 L135.34,537.64 Z M134.36,538.72 L134.36,538.76 L134.42,538.8 L134.58,538.8 L134.64,538.76 L134.62,538.58 L134.58,538.54 L134.46,538.54 L134.46,538.62 L134.36,538.72 Z M130.84,539.96 L130.8,539.98 L130.82,540.14 L130.98,540.2 L131.06,540.02 L130.94,539.94 L130.84,539.96 Z M134.74,536 L134.86,536 L134.9,535.84 L134.82,535.74 L134.74,535.72 L134.68,535.86 L134.74,536 Z M134.34,536.68 L134.32,536.72 L134.6,536.8 L134.64,536.62 L134.56,536.58 L134.34,536.68 Z M138.22,532.1 L138.26,532.1 L138.22,531.88 L138.04,531.82 L138.08,532.06 L138.22,532.1 Z M135.14,537.26 L135.18,537.26 L135.22,537.2 L135.2,537.08 L135.14,537.02 L135.04,537 L135,537.08 L135.06,537.22 L135.14,537.26 Z M135.88,533.44 L135.9,533.46 L136,533.36 L135.94,533.22 L135.82,533.18 L135.78,533.26 L135.84,533.42 L135.88,533.44 Z M136.78,547.04 L136.82,547.04 L137.06,546.98 L136.84,546.94 L136.68,546.82 L136.64,546.88 L136.66,546.96 L136.78,547.04 Z M129.7,541.36 L129.66,541.38 L129.68,541.54 L129.74,541.56 L129.86,541.48 L129.88,541.34 L129.7,541.36 Z M137.06,532.34 L137.08,532.38 L137.16,532.38 L137.22,532.32 L137.2,532.16 L137.14,532.14 L137.04,532.32 L137.06,532.34 Z M134.96,534.02 L135,534.04 L135.04,533.94 L135.02,533.84 L134.96,533.78 L134.9,533.8 L134.92,533.96 L134.96,534.02 Z M134.64,537.56 L134.6,537.58 L134.6,537.66 L134.78,537.72 L134.78,537.62 L134.74,537.56 L134.64,537.54 L134.64,537.56 Z M135.78,538.94 L135.78,538.98 L135.84,539.02 L136,539.02 L135.96,538.9 L135.88,538.88 L135.78,538.94 Z M130.28,546.24 L130.34,546.22 L130.3,546.06 L130.2,545.96 L130.22,546.2 L130.28,546.24 Z M135.44,533.28 L135.5,533.28 L135.48,533.1 L135.44,533.06 L135.36,533.16 L135.38,533.24 L135.44,533.28 Z M135.84,532.42 L135.82,532.46 L136,532.5 L136,532.42 L135.9,532.32 L135.84,532.42 Z M129.94,544.54 L129.98,544.56 L129.94,544.4 L129.8,544.32 L129.86,544.48 L129.94,544.54 Z M132.46,547.98 L132.52,548 L132.56,547.92 L132.52,547.82 L132.46,547.82 L132.42,547.88 L132.46,547.98 Z M135.04,533.68 L135.04,533.72 L135.14,533.72 L135.18,533.66 L135.16,533.58 L135.1,533.54 L135.04,533.68 Z M129.12,544.78 L129.12,544.88 L129.2,544.88 L129.3,544.78 L129.18,544.74 L129.12,544.78 Z M129.12,543.88 L129.12,543.92 L129.28,543.9 L129.3,543.78 L129.16,543.82 L129.12,543.88 Z M135.18,548.04 L135.22,548.04 L135.22,547.96 L135.04,547.9 L135.06,547.98 L135.18,548.04 Z M141.8,534.62 L141.84,534.64 L141.88,534.46 L141.8,534.46 L141.76,534.52 L141.8,534.62 Z M129.48,543.32 L129.52,543.34 L129.58,543.18 L129.48,543.14 L129.48,543.32 Z M136,534.82 L136,534.96 L136.08,534.96 L136.08,534.82 L136,534.82 Z M135.58,538.84 L135.68,538.84 L135.68,538.76 L135.62,538.72 L135.56,538.76 L135.58,538.84 Z M133.14,547.36 L133.14,547.5 L133.22,547.5 L133.22,547.36 L133.14,547.36 Z M135.36,534.04 L135.36,534.14 L135.46,534.14 L135.46,534.04 L135.36,534.04 Z M130.94,547.1 L130.92,547.14 L131.06,547.18 L131.04,547.08 L130.98,547.06 L130.94,547.1 Z M129.56,542.78 L129.56,542.88 L129.66,542.88 L129.66,542.78 L129.56,542.78 Z M132.48,539.14 L132.46,539.16 L132.56,539.2 L132.6,539.12 L132.52,539.08 L132.48,539.14 Z M129.7,544.88 L129.7,544.96 L129.84,544.96 L129.82,544.9 L129.7,544.88 Z M134.36,537.68 L134.36,537.72 L134.46,537.72 L134.44,537.64 L134.32,537.62 L134.36,537.68 Z M136.64,532.14 L136.64,532.28 L136.72,532.26 L136.72,532.18 L136.64,532.14 Z M135.88,539.34 L135.86,539.3 L135.74,539.38 L135.74,539.42 L135.8,539.42 L135.88,539.34 Z M132.06,539.34 L132.06,539.44 L132.14,539.44 L132.14,539.34 L132.06,539.34 Z M134.18,538.72 L134.18,538.8 L134.28,538.8 L134.28,538.72 L134.18,538.72 Z M130.84,546.46 L130.84,546.54 L130.92,546.54 L130.92,546.46 L130.84,546.46 Z M145.92,536.38 L146.12,536.38 L146.16,536.34 L146.8,536.34 L147.06,536.42 L147.1,536.48 L147.42,536.56 L147.66,536.74 L147.9,536.82 L148.34,537.28 L148.46,537.38 L148.52,537.52 L148.6,537.56 L148.6,537.66 L148.7,537.74 L148.76,538.34 L148.82,538.98 L148.78,539.3 L148.7,539.52 L148.6,540.06 L148.42,540.46 L148.32,540.56 L148.2,540.92 L148.1,540.96 L148.08,541.1 L147.76,541.58 L147.28,542.04 L146.76,542.4 L146.48,542.56 L146.38,542.58 L146.3,542.68 L146.2,542.68 L146.2,542.72 L145.62,542.9 L145.28,542.98 L145.12,542.98 L144.98,543.04 L144.36,543.04 L143.08,543.08 L143,543.1 L142.76,543.32 L142.7,543.46 L142.64,544.08 L142.66,544.68 L142.7,544.68 L142.74,544.82 L143.1,545.28 L143.4,545.5 L143.6,545.6 L144.28,545.72 L144.94,545.7 L145.22,545.64 L145.84,545.4 L146.44,545.14 L146.88,544.8 L146.98,544.8 L147.02,544.72 L147.1,544.72 L147.32,544.48 L147.5,544.42 L147.7,544.16 L147.88,544.08 L148.02,543.88 L148.28,543.68 L148.66,543.18 L149.06,542.68 L149.44,542.18 L149.7,541.84 L149.86,541.58 L150.2,541.56 L150.48,541.6 L150.76,541.86 L150.84,542.12 L150.72,542.52 L150.6,542.64 L150.54,542.8 L150.34,543.02 L149.98,543.54 L149.96,543.68 L149.74,543.9 L149.74,544 L148.86,544.92 L148.04,545.74 L147.78,545.9 L147.74,545.96 L147.6,545.98 L147.48,546.1 L146.98,546.44 L146.9,546.46 L146.8,546.58 L146.7,546.58 L146.7,546.62 L146.38,546.7 L146.34,546.76 L146.02,546.82 L145.42,547 L145.34,547.02 L145.3,547.08 L144.66,547.16 L144.62,547.16 L144.62,547.2 L144.16,547.24 L144.02,547.3 L143.36,547.24 L143.06,547.24 L142.56,547.08 L142.24,547.04 L141.64,546.76 L141.4,546.62 L141.28,546.5 L141.12,546.44 L141.04,546.26 L140.94,546.22 L140.9,546.08 L140.64,545.72 L140.48,545.16 L140.4,544.52 L140.36,543.9 L140.42,543.26 L140.5,542.94 L140.52,542.62 L140.66,542.04 L140.84,541.46 L140.86,541.22 L140.9,541.18 L140.98,540.9 L141.22,540.46 L141.46,539.94 L141.56,539.78 L141.6,539.64 L141.72,539.56 L141.8,539.32 L141.84,539.32 L142.14,538.8 L142.24,538.68 L142.3,538.52 L142.74,538.1 L142.98,537.9 L143.4,537.44 L143.56,537.26 L143.8,537.14 L144.08,536.94 L144.3,536.86 L144.4,536.74 L144.7,536.6 L145.3,536.42 L145.92,536.38 Z M146.4,538.46 L146.24,538.38 L145.9,538.36 L145.44,538.52 L145.32,538.54 L144.88,538.92 L144.8,538.92 L144.38,539.42 L144.04,539.96 L143.74,540.5 L143.72,540.6 L143.66,540.6 L143.66,540.68 L143.62,540.68 L143.6,540.82 L143.36,541.32 L143.34,541.46 L143.48,541.64 L143.6,541.7 L144.34,541.7 L144.58,541.68 L144.7,541.58 L144.86,541.54 L145.28,541.3 L145.32,541.24 L145.44,541.22 L145.86,540.74 L146.08,540.36 L146.34,539.78 L146.58,539.14 L146.62,538.7 L146.4,538.46 Z M142.58,540.58 L142.62,540.6 L142.86,540.3 L142.9,540.18 L142.76,540.14 L142.6,540.16 L142.54,540.48 L142.58,540.58 Z M147.82,538.7 L147.84,538.74 L148,538.72 L148.16,538.6 L148,538.54 L147.74,538.52 L147.74,538.62 L147.82,538.7 Z M141.94,543.58 L141.9,543.58 L141.92,543.74 L142.18,543.82 L142.22,543.58 L142.18,543.54 L142.06,543.6 L141.94,543.58 Z M141.8,542.2 L141.76,542.22 L141.76,542.3 L141.9,542.36 L142,542.3 L142,542.22 L141.8,542.2 Z M143.4,539.24 L143.4,539.28 L143.6,539.22 L143.66,539.24 L143.66,539.1 L143.5,539.12 L143.4,539.24 Z M146.94,538.1 L146.98,538.1 L146.98,538 L146.94,537.94 L146.84,537.92 L146.86,538.08 L146.94,538.1 Z M141.44,542.28 L141.44,542.46 L141.54,542.46 L141.54,542.28 L141.44,542.28 Z M147.28,539.2 L147.28,539.38 L147.38,539.38 L147.38,539.2 L147.28,539.2 Z M144.02,538.86 L144.08,538.88 L144.12,538.8 L144.08,538.7 L144.02,538.7 L143.98,538.76 L144.02,538.86 Z M146.46,537.26 L146.42,537.34 L146.56,537.38 L146.62,537.28 L146.46,537.26 Z M147.34,537.24 L147.34,537.28 L147.4,537.32 L147.48,537.3 L147.52,537.24 L147.44,537.2 L147.34,537.24 Z M142.68,540.88 L142.66,540.92 L142.76,540.96 L142.8,540.86 L142.72,540.82 L142.68,540.88 Z M147.34,539.92 L147.38,539.92 L147.34,539.8 L147.24,539.78 L147.26,539.86 L147.34,539.92 Z M147.74,539 L147.74,538.96 L147.62,538.92 L147.6,539 L147.68,539.04 L147.74,539 Z M141.32,544.26 L141.32,544.22 L141.2,544.18 L141.18,544.26 L141.24,544.3 L141.32,544.26 Z M141.4,544.8 L141.4,544.9 L141.5,544.9 L141.5,544.8 L141.4,544.8 Z M142.44,541.4 L142.4,541.42 L142.4,541.5 L142.44,541.52 L142.5,541.4 L142.44,541.36 L142.44,541.4 Z M141.54,543.5 L141.5,543.58 L141.62,543.62 L141.6,543.54 L141.54,543.5 Z M155.6,532.76 L155.62,532.78 L155.66,533.14 L155.6,533.44 L155.34,534 L155.14,534.56 L155.02,534.82 L154.98,535 L155,535.18 L155.08,535.28 L155.18,535.3 L155.22,535.36 L155.86,535.36 L156.02,535.38 L156.26,535.54 L156.32,535.72 L156.24,536.06 L156.1,536.32 L155.9,536.54 L155.82,536.54 L155.72,536.64 L155.42,536.68 L154.78,536.62 L154.54,536.64 L154.26,536.82 L154.1,536.98 L153.88,537.58 L153.68,538.18 L153.4,538.72 L153.16,539.14 L153.12,539.46 L153.02,539.74 L152.96,539.8 L152.94,539.9 L152.88,539.96 L152.74,540.44 L152.54,541.02 L152.28,541.62 L152.06,542.16 L151.8,542.76 L151.64,543.2 L151.58,543.28 L151.56,543.44 L151.44,543.7 L151.28,544.2 L151.14,544.84 L151.14,545.2 L151.22,545.5 L151.32,545.6 L151.5,545.64 L151.54,545.7 L151.84,545.68 L152.14,545.6 L152.72,545.28 L153.24,544.84 L153.62,544.44 L154.02,543.96 L154.12,543.88 L154.12,543.8 L154.26,543.7 L154.3,543.56 L154.48,543.38 L154.48,543.3 L154.62,543.2 L154.66,543.06 L154.9,542.84 L155.24,542.32 L155.28,542.32 L155.28,542.24 L155.32,542.24 L155.32,542.14 L155.58,541.74 L155.7,541.6 L155.8,541.54 L156.14,541.54 L156.44,541.68 L156.5,541.84 L156.6,541.88 L156.64,542.2 L156.58,542.42 L156.24,542.98 L156.16,543.02 L156.14,543.14 L156.04,543.18 L155.98,543.38 L155.88,543.48 L155.78,543.76 L155.56,544 L155.4,544.24 L155.1,544.54 L155.08,544.66 L154.94,544.74 L154.94,544.84 L154.9,544.84 L154.74,545.12 L154.68,545.16 L154.6,545.32 L154.34,545.46 L154.1,545.72 L153.92,545.8 L153.54,546.2 L153.4,546.24 L152.92,546.64 L152.42,546.94 L152.16,547.06 L151.56,547.22 L150.88,547.28 L150.18,547.2 L149.66,547.04 L149.44,546.9 L149.22,546.66 L149.2,546.56 L149.06,546.46 L149.02,546.32 L148.92,546.2 L148.88,545.64 L148.82,545.64 L148.8,544.98 L148.88,544.36 L148.88,544.22 L148.92,544.16 L148.96,543.84 L149.2,543.26 L149.4,542.64 L149.5,542.26 L149.56,542.26 L149.56,542.16 L149.6,542.16 L149.64,541.92 L149.92,541.36 L150.1,540.8 L150.18,540.7 L150.36,540.12 L150.46,540.04 L150.48,539.92 L150.62,539.64 L150.66,539.34 L150.74,539.24 L150.86,538.94 L150.92,538.9 L150.92,538.82 L150.96,538.82 L151.04,538.44 L151.1,538.4 L151.18,538.26 L151.18,538.18 L151.28,538.04 L151.28,537.94 L151.32,537.94 L151.4,537.58 L151.44,537.58 L151.64,536.98 L151.6,536.82 L151.52,536.7 L151.4,536.64 L150.76,536.62 L150.54,536.58 L150.28,536.36 L150.24,536.28 L150.3,535.94 L150.46,535.7 L150.64,535.52 L150.86,535.4 L151.16,535.36 L151.84,535.38 L152.14,535.32 L152.32,535.2 L152.4,535.06 L152.52,534.98 L152.54,534.74 L152.64,534.64 L152.64,534.5 L152.92,533.9 L152.94,533.82 L153.04,533.74 L153.04,533.64 L153.08,533.62 L153.24,533.08 L153.24,533 L153.36,532.92 L153.4,532.78 L153.5,532.78 L153.52,532.72 L153.8,532.66 L154.48,532.66 L154.62,532.6 L155.02,532.6 L155.36,532.66 L155.6,532.76 Z M153.9,535.06 L153.86,535.06 L153.84,535.24 L153.66,535.32 L153.5,535.28 L153.5,535.38 L153.72,535.46 L153.72,535.56 L153.64,535.7 L153.68,535.74 L153.8,535.7 L153.86,535.56 L153.94,535.54 L153.9,535.74 L154,535.74 L154.08,535.64 L154.02,535.5 L153.96,535.46 L153.94,535.36 L154.18,535.16 L154.22,535 L154.14,534.96 L153.9,535.06 Z M152.82,535.86 L152.76,535.86 L152.86,536 L153,536.08 L153.04,536.14 L153.2,536.08 L153.4,536.1 L153.44,536.04 L153.44,535.88 L153.4,535.82 L153.3,535.82 L153.12,535.96 L152.94,535.78 L152.82,535.86 Z M152.86,537.2 L152.82,537.22 L152.82,537.3 L152.94,537.4 L152.96,537.48 L153.18,537.58 L153.16,537.5 L153,537.4 L153,537.36 L153.06,537.34 L153.08,537.18 L152.86,537.2 Z M153,535.68 L153.04,535.68 L153.12,535.56 L153.1,535.48 L152.98,535.38 L152.9,535.36 L152.86,535.44 L152.88,535.6 L153,535.68 Z M152.3,538.3 L152.26,538.32 L152.08,538.44 L152.14,538.54 L152.32,538.4 L152.46,538.36 L152.52,538.28 L152.5,538.22 L152.38,538.22 L152.3,538.3 Z M152.96,536.68 L153,536.68 L153.04,536.6 L153.02,536.48 L152.94,536.38 L152.86,536.36 L152.82,536.5 L152.84,536.58 L152.96,536.68 Z M151.14,542.64 L151.18,542.66 L151.22,542.34 L151.12,542.34 L151.06,542.38 L151.04,542.46 L151.14,542.64 Z M152.54,539.08 L152.58,539.08 L152.56,538.74 L152.46,538.72 L152.48,539.04 L152.54,539.08 Z M152.36,536.72 L152.4,536.72 L152.38,536.56 L152.26,536.42 L152.22,536.58 L152.26,536.66 L152.36,536.72 Z M153.7,534.7 L153.72,534.74 L153.8,534.74 L153.86,534.6 L153.86,534.5 L153.72,534.56 L153.7,534.7 Z M153.82,536.04 L153.9,536.04 L153.94,535.98 L153.88,535.86 L153.76,535.82 L153.78,535.98 L153.82,536.04 Z M153.94,534.4 L153.9,534.42 L153.92,534.5 L153.98,534.52 L154.12,534.46 L154.12,534.38 L153.94,534.4 Z M149.92,545.34 L149.92,545.38 L149.98,545.42 L150.08,545.42 L150.14,545.38 L150.14,545.34 L150.08,545.3 L149.98,545.3 L149.92,545.34 Z M151.88,538.28 L151.96,538.32 L152,538.14 L151.9,538.14 L151.86,538.2 L151.88,538.28 Z M151.96,539.98 L152.04,539.98 L152.04,539.86 L151.9,539.86 L151.96,539.98 Z M150.14,545.1 L150.14,545.06 L149.96,545.02 L150,545.14 L150.14,545.1 Z M151.86,539.4 L151.86,539.54 L151.94,539.54 L151.94,539.4 L151.86,539.4 Z M151.62,539.48 L151.72,539.48 L151.72,539.4 L151.66,539.36 L151.6,539.4 L151.62,539.48 Z M151.64,540.94 L151.64,540.9 L151.52,540.86 L151.5,540.94 L151.56,540.98 L151.64,540.94 Z M149.92,546.02 L149.86,546.14 L149.96,546.14 L150,546.06 L149.92,546.02 Z M152.76,537 L152.76,537.08 L152.86,537.08 L152.86,537 L152.76,537 Z M151.82,539.06 L151.86,539.08 L151.86,539.04 L151.9,539.04 L151.88,538.96 L151.82,538.94 L151.82,539.06 Z M152.46,537.28 L152.54,537.36 L152.56,537.3 L152.52,537.22 L152.46,537.28 Z M166.18,536.74 L166.2,536.76 L166.2,537.08 L166.08,537.7 L166.08,537.76 L166.02,537.82 L166.08,537.98 L166.02,538.58 L165.94,539.16 L165.94,541.14 L165.98,541.44 L165.96,542.08 L166.02,542.7 L166.06,543.34 L166.06,543.98 L166.02,544.3 L166.04,544.6 L166.3,544.92 L166.6,544.8 L166.82,544.58 L167,544.32 L167.2,544.12 L167.36,543.86 L167.74,543.46 L167.78,543.32 L167.88,543.22 L167.88,543.14 L167.98,543.1 L167.98,543.02 L168.36,542.5 L168.68,541.94 L168.86,541.66 L169.04,541.52 L169.26,541.48 L169.68,541.62 L169.88,541.92 L169.92,542.04 L169.84,542.3 L169.54,542.92 L169.42,543.1 L169.38,543.24 L169.28,543.28 L169.28,543.38 L169.2,543.42 L169.2,543.52 L169.08,543.6 L168.76,544.1 L168.66,544.24 L168.66,544.32 L168.22,544.8 L167.8,545.26 L167.64,545.48 L167.16,545.92 L167.02,546.1 L166.94,546.1 L166.7,546.32 L166.62,546.32 L166.12,546.68 L166.02,546.68 L166.02,546.72 L165.94,546.72 L165.94,546.78 L165.84,546.78 L165.84,546.82 L165.76,546.82 L165.76,546.86 L165.16,547.04 L164.56,547.18 L163.96,547.24 L163.3,547.24 L162.64,547.18 L162.04,547 L161.42,546.76 L161.2,546.6 L160.76,546.12 L160.72,545.96 L160.78,545.78 L161.02,545.56 L161.56,545.26 L161.9,545.26 L162.36,545.46 L162.64,545.5 L162.68,545.54 L163.02,545.54 L163.54,545.24 L163.54,545.14 L163.58,545.14 L163.8,544.64 L163.88,544.02 L163.92,543.36 L163.9,542.68 L163.88,542.02 L163.86,541.44 L163.86,540.82 L163.82,540.2 L163.6,540.08 L163.46,540.14 L163.36,540.26 L163.28,540.5 L163.12,540.74 L162.86,541.28 L162.58,541.78 L162.26,542.32 L161.98,542.88 L161.96,542.96 L161.74,543.2 L161.6,543.48 L161.5,543.6 L161.38,543.9 L161.04,544.42 L160.76,544.88 L160.36,545.36 L160.18,545.54 L160.08,545.84 L159.74,546.3 L159.48,546.48 L159.06,547 L158.82,547.16 L158.68,547.2 L158.5,547.16 L158.2,546.9 L158.2,546.82 L158.1,546.7 L158.06,546.56 L158.14,546.26 L158.56,545.72 L159,545.2 L159.16,545.08 L159.28,544.8 L159.68,544.32 L159.68,544.24 L159.78,544.16 L160.1,543.6 L160.46,543.06 L160.5,542.92 L160.6,542.88 L160.6,542.78 L160.68,542.74 L160.84,542.46 L160.86,542.34 L160.96,542.28 L160.98,542.14 L161.16,541.92 L161.22,541.7 L161.34,541.62 L161.38,541.46 L161.5,541.34 L161.52,541.2 L161.7,540.96 L161.86,540.66 L161.9,540.48 L162,540.44 L162.02,540.32 L162.32,539.8 L162.58,539.3 L162.88,538.76 L162.9,538.66 L163,538.58 L163.08,538.32 L163.4,537.74 L163.66,537.26 L163.7,537.12 L164.02,536.5 L164.16,536.26 L164.46,536.04 L164.76,536.04 L164.98,536.18 L165.66,536.34 L165.96,536.46 L166.18,536.74 Z M164.74,545.16 L164.72,545.18 L164.7,545.26 L164.8,545.46 L164.84,545.9 L164.8,546.06 L164.84,546.14 L164.98,546.08 L165.12,545.96 L165.32,546.06 L165.48,546 L165.4,545.78 L165.3,545.78 L165.12,545.92 L165.08,545.86 L165.1,545.7 L165.22,545.7 L165.34,545.64 L165.34,545.6 L165.28,545.56 L165.16,545.32 L164.94,545.32 L164.98,545.18 L164.94,545.14 L164.74,545.16 Z M164.98,544.8 L164.94,544.82 L165.02,545.16 L165.12,545.26 L165.26,545.24 L165.2,544.84 L165.08,544.74 L165.06,544.78 L164.98,544.8 Z M164.4,539.2 L164.4,539.26 L164.52,539.28 L164.68,539.24 L164.8,539.3 L164.9,539.18 L164.9,539.08 L164.56,539.08 L164.44,539.14 L164.4,539.2 Z M164.94,544.4 L164.9,544.38 L164.9,544.42 L164.78,544.48 L164.78,544.62 L164.96,544.66 L165.14,544.62 L165.16,544.56 L165.12,544.48 L164.94,544.4 Z M164.72,539.84 L164.72,539.88 L164.84,539.96 L164.94,539.98 L165.04,539.94 L165.04,539.84 L164.84,539.84 L164.88,539.7 L164.76,539.62 L164.78,539.68 L164.72,539.84 Z M164.42,538.22 L164.54,538.14 L164.66,538.08 L164.66,538.04 L164.74,538.02 L164.76,537.94 L164.44,538.04 L164.3,538.16 L164.42,538.22 Z M164.28,545.12 L164.3,545.14 L164.48,545.14 L164.48,544.94 L164.36,544.82 L164.28,545.12 Z M164.9,538.9 L164.9,538.94 L165.12,538.94 L165.12,538.7 L164.96,538.72 L164.9,538.9 Z M165.12,537.9 L165.12,538.16 L165.26,538.08 L165.34,537.94 L165.28,537.9 L165.12,537.9 Z M164.28,546 L164.3,546.04 L164.48,545.96 L164.48,545.86 L164.36,545.78 L164.26,545.9 L164.28,546 Z M163.98,546.08 L163.98,546 L163.72,546 L163.72,546.08 L163.88,546.14 L163.98,546.08 Z M165.14,543.26 L165.16,543.24 L165.12,543.12 L164.94,543.1 L164.94,543.2 L165.06,543.28 L165.14,543.26 Z M164.76,537.62 L164.72,537.62 L164.72,537.72 L164.76,537.76 L164.9,537.72 L164.9,537.62 L164.76,537.58 L164.76,537.62 Z M164.98,543.48 L164.98,543.42 L164.8,543.42 L164.82,543.52 L164.88,543.56 L164.98,543.48 Z M165.26,538.4 L165.26,538.44 L165.4,538.44 L165.4,538.3 L165.3,538.3 L165.26,538.4 Z M164.76,546.44 L164.8,546.46 L164.82,546.3 L164.76,546.26 L164.72,546.28 L164.76,546.44 Z M165.28,544.2 L165.26,544.24 L165.34,544.28 L165.4,544.18 L165.3,544.14 L165.28,544.2 Z M164.94,540.38 L164.94,540.48 L165.04,540.48 L165.04,540.38 L164.94,540.38 Z M165.16,540.8 L165.16,540.88 L165.28,540.88 L165.26,540.8 L165.16,540.8 Z M164.36,545.42 L164.36,545.5 L164.44,545.5 L164.44,545.42 L164.36,545.42 Z M163.94,545.52 L163.98,545.54 L164.02,545.44 L163.98,545.42 L163.94,545.52 Z M182.64,545.98 L182.62,546 L182.18,546.36 L181.66,546.72 L181.22,546.96 L181.06,547 L180.92,547.1 L180.7,547.18 L180.36,547.16 L180.3,547.22 L179.66,547.24 L179.18,547.22 L179.14,547.16 L178.86,547.08 L178.56,546.9 L178.12,546.46 L178,545.82 L177.9,545.5 L177.86,545.2 L177.9,544.76 L177.96,544.72 L178.02,544.08 L178.14,543.78 L178.18,543.46 L178.38,542.86 L178.54,542.62 L178.58,542.46 L178.68,542.36 L178.68,542.28 L178.72,542.28 L178.88,541.68 L179.12,541.08 L179.32,540.56 L179.38,540.5 L179.4,540.38 L179.44,540.38 L179.5,540.14 L179.6,540.02 L179.64,539.7 L179.86,539.1 L179.88,538.78 L179.74,538.48 L179.54,538.34 L178.9,538.38 L178.5,538.56 L178.46,538.66 L178.34,538.68 L177.8,539.04 L177.72,539.16 L177.58,539.22 L177.48,539.36 L177.36,539.4 L177.3,539.46 L177.28,539.56 L177.16,539.64 L177.14,539.74 L177.02,539.82 L176.82,540.38 L176.56,540.96 L176.52,541.1 L176.42,541.24 L176.42,541.32 L176.3,541.58 L176.24,541.82 L176.14,541.92 L176.14,542.06 L176.04,542.18 L176.04,542.32 L175.88,542.6 L175.84,542.82 L175.6,543.4 L175.36,544.02 L175.12,544.62 L174.88,545.18 L174.8,545.3 L174.7,545.68 L174.52,546.12 L174.42,546.22 L174.34,546.5 L174.06,546.9 L173.46,546.98 L173.16,547.04 L172.5,546.98 L172.22,546.98 L172.08,546.92 L171.96,546.8 L171.88,546.4 L171.94,546.36 L171.96,546.22 L172.22,545.66 L172.46,545.08 L172.52,544.86 L172.62,544.76 L172.78,544.46 L172.9,543.88 L173,543.76 L173.26,543.16 L173.48,542.56 L173.74,541.98 L173.84,541.64 L173.98,541.4 L174.18,540.82 L174.4,540.26 L174.46,540.1 L174.52,540.06 L174.54,539.92 L174.64,539.84 L174.82,539.26 L174.88,538.92 L174.82,538.62 L174.62,538.44 L174.3,538.36 L174.02,538.38 L173.48,538.66 L173.2,538.78 L172.66,539.16 L172.26,539.44 L172.24,539.56 L172.06,539.78 L171.94,540.06 L171.8,540.24 L171.76,540.38 L171.66,540.52 L171.5,541.1 L171.26,541.68 L171.02,542.28 L170.88,542.54 L170.66,543.14 L170.46,543.7 L170.28,544.22 L170.16,544.32 L170.16,544.4 L170.06,544.54 L169.9,545.1 L169.74,545.4 L169.68,545.64 L169.64,545.68 L169.58,546 L169.46,546.28 L169.32,546.5 L169.08,546.76 L168.82,546.96 L168.58,547.08 L167.94,547.04 L167.3,547.04 L167.08,546.98 L167,546.88 L166.96,546.74 L167.04,546.24 L167,546.04 L167.16,545.78 L167.4,545.18 L167.68,544.58 L167.86,544.02 L168.12,543.4 L168.18,543.32 L168.2,543.18 L168.48,542.6 L168.7,542.04 L168.84,541.62 L168.88,541.46 L169.1,540.96 L169.16,540.74 L169.22,540.7 L169.44,540.1 L169.6,539.84 L169.82,539.22 L169.98,538.88 L170.02,538.66 L170.08,538.6 L170.1,538.46 L170.22,538.34 L170.44,537.74 L170.76,537.2 L170.8,537.06 L170.86,537 L170.88,536.88 L171.02,536.84 L171.08,536.76 L171.4,536.82 L171.94,537.1 L172.06,537.2 L172.16,537.2 L172.16,537.24 L172.3,537.34 L172.9,537.52 L173.22,537.4 L173.46,537.2 L173.6,537.14 L173.7,537.02 L173.92,536.92 L174.02,536.8 L174.1,536.8 L174.1,536.76 L174.22,536.74 L174.8,536.5 L175.1,536.38 L175.72,536.34 L176.34,536.36 L176.42,536.36 L176.74,536.56 L176.78,536.62 L176.86,536.62 L176.96,536.74 L177.1,536.8 L177.14,536.94 L177.26,537.04 L177.38,537.34 L177.56,537.58 L177.64,537.62 L177.9,537.54 L178.36,537.16 L178.76,536.94 L179.14,536.72 L179.46,536.64 L179.56,536.56 L180.18,536.36 L180.76,536.3 L181.4,536.4 L181.76,536.52 L182.22,536.94 L182.22,537.02 L182.4,537.3 L182.52,537.84 L182.52,538.18 L182.38,538.86 L182.32,539.26 L182.26,539.28 L182.22,539.52 L182.14,539.58 L182.08,539.84 L181.78,540.4 L181.64,540.9 L181.62,540.96 L181.58,540.96 L181.54,541.18 L181.44,541.28 L181.44,541.38 L181.4,541.38 L181.22,541.96 L181.22,542 L181.18,542 L181.18,542.1 L181.12,542.1 L181.12,542.18 L181.08,542.18 L181.08,542.28 L181.04,542.28 L180.86,542.8 L180.64,543.46 L180.4,544.06 L180.2,544.66 L180.14,545.1 L180.26,545.4 L180.36,545.54 L180.58,545.68 L180.74,545.68 L181.04,545.54 L181.58,545.18 L182.04,544.78 L182.5,544.3 L182.72,544.08 L182.88,543.82 L182.98,543.72 L183.04,543.58 L183.26,543.34 L183.4,543.08 L183.76,542.64 L183.76,542.54 L183.8,542.54 L183.82,542.46 L183.94,542.36 L184.12,541.96 L184.3,541.72 L184.54,541.52 L184.72,541.46 L185,541.52 L185.24,541.74 L185.32,541.86 L185.34,542.06 L185.38,542.12 L185.34,542.4 L185.12,542.82 L185.02,542.86 L185,542.98 L184.86,543.08 L184.66,543.46 L184.46,543.72 L184.44,543.86 L184.32,543.96 L183.96,544.46 L183.54,545 L183.1,545.5 L182.66,545.94 L182.64,545.98 Z M176.12,537.84 L176.06,537.84 L175.96,537.96 L175.82,538.02 L175.76,537.88 L175.68,537.9 L175.5,538.08 L175.46,538.24 L175.5,538.32 L175.68,538.44 L175.7,538.62 L175.6,538.78 L175.74,538.72 L175.82,538.6 L175.76,538.32 L175.84,538.28 L175.92,538.3 L175.98,538.44 L176.06,538.52 L176.06,538.48 L176.14,538.42 L176.2,538.54 L176.08,538.62 L176.06,538.7 L176.2,538.74 L176.24,538.82 L176.26,539.16 L176.36,539.28 L176.6,539.1 L176.74,539.1 L176.72,539.02 L176.58,538.86 L176.58,538.7 L176.5,538.6 L176.52,538.54 L176.6,538.52 L176.64,538.38 L176.42,538.16 L176.38,538 L176.42,537.92 L176.12,537.84 Z M176.1,539.52 L176.06,539.52 L175.96,539.42 L175.76,539.36 L175.64,539.42 L175.64,539.5 L175.82,539.52 L175.82,540.06 L176,540.16 L175.98,540.24 L175.82,540.26 L175.74,540.38 L175.56,540.38 L175.54,540.46 L175.34,540.56 L175.32,540.7 L175.42,540.68 L175.64,540.74 L175.72,540.62 L175.96,540.54 L176.06,540.56 L176.16,540.38 L176.14,540.24 L176.36,540 L176.34,539.68 L176.28,539.46 L176.1,539.52 Z M180.08,542.04 L180.08,542.1 L179.94,542.18 L179.9,541.94 L179.76,541.82 L179.64,541.92 L179.66,542.1 L179.82,542.32 L179.72,542.4 L179.82,542.46 L179.88,542.32 L179.94,542.28 L180.04,542.3 L180.2,542.46 L180.3,542.46 L180.38,542.14 L180.32,541.9 L180.18,541.78 L180.1,541.9 L180.08,542.04 Z M180.26,537.84 L180.22,537.84 L180.24,538.02 L180.36,538.16 L180.44,538.14 L180.78,538.26 L180.9,538.16 L180.86,538.14 L180.86,538.06 L180.76,538.06 L180.68,537.92 L180.7,537.84 L180.84,537.7 L180.8,537.62 L180.62,537.64 L180.38,537.8 L180.26,537.84 Z M179.26,543.88 L179.18,543.96 L179.04,543.9 L178.96,543.92 L179.04,544.08 L179,544.14 L179.08,544.36 L178.94,544.42 L178.9,544.54 L178.98,544.58 L179.1,544.52 L179.22,544.36 L179.08,544.04 L179.26,544.04 L179.46,543.96 L179.5,543.9 L179.42,543.86 L179.26,543.88 Z M181.6,537.9 L181.62,537.92 L181.76,537.72 L181.72,537.52 L181.48,537.62 L181.44,537.48 L181.36,537.48 L181.4,537.74 L181.6,537.9 Z M175.34,541.04 L175.32,541.06 L175.34,541.16 L175.5,541.32 L175.5,541.42 L175.6,541.5 L175.64,541.46 L175.64,541.38 L175.56,541.24 L175.54,541.04 L175.5,541 L175.34,541.04 Z M181.32,539.26 L181.26,539.28 L181.26,539.38 L181.34,539.48 L181.36,539.6 L181.52,539.64 L181.58,539.56 L181.46,539.46 L181.54,539.34 L181.4,539.26 L181.32,539.26 Z M181.04,539.96 L181.04,540.02 L181.24,540.08 L181.3,540.06 L181.34,539.84 L181.26,539.78 L181.22,539.84 L181.08,539.9 L181.04,539.96 Z M176.2,537.98 L176.24,537.98 L176.24,538.34 L176.16,538.34 L176.08,538.16 L176.14,538 L176.2,537.98 Z M175.24,537.4 L175.28,537.48 L175.42,537.42 L175.46,537.24 L175.32,537.2 L175.24,537.4 Z M176.8,538.66 L176.78,538.7 L177,538.74 L177.04,538.68 L177.04,538.52 L176.88,538.58 L176.8,538.66 Z M179.78,542.82 L179.82,542.86 L179.96,542.8 L180,542.68 L179.96,542.64 L179.82,542.66 L179.76,542.76 L179.78,542.82 Z M181.06,539.34 L181.12,539.34 L181.12,539.16 L180.9,539.1 L180.98,539.32 L181.06,539.34 Z M173.68,544.74 L173.66,544.76 L173.66,544.84 L173.84,544.9 L173.92,544.76 L173.84,544.72 L173.68,544.74 Z M175.54,539.74 L175.46,539.78 L175.46,539.86 L175.6,539.92 L175.7,539.86 L175.7,539.78 L175.54,539.74 Z M171.86,538.86 L171.84,538.88 L172.02,539.16 L172.02,538.84 L171.86,538.86 Z M174.98,541.06 L175.06,541.1 L175.14,540.96 L175.14,540.88 L175.08,540.86 L174.98,540.92 L174.98,541.06 Z M174.78,541.72 L174.74,541.74 L174.74,541.82 L174.78,541.86 L174.88,541.86 L174.92,541.82 L174.88,541.68 L174.78,541.68 L174.78,541.72 Z M169.5,543.5 L169.48,543.54 L169.62,543.6 L169.72,543.5 L169.72,543.46 L169.64,543.42 L169.5,543.5 Z M175.78,537.56 L175.78,537.62 L175.88,537.62 L175.94,537.58 L175.96,537.48 L175.82,537.44 L175.78,537.56 Z M171.42,539.14 L171.38,539.16 L171.38,539.24 L171.28,539.26 L171.26,539.32 L171.38,539.38 L171.38,539.28 L171.52,539.16 L171.52,539.1 L171.42,539.14 Z M180.88,538.84 L180.94,538.84 L180.94,538.66 L180.8,538.66 L180.82,538.82 L180.88,538.84 Z M180.06,541.56 L180.04,541.6 L180.08,541.68 L180.16,541.68 L180.22,541.62 L180.22,541.5 L180.06,541.56 Z M180.26,540.48 L180.26,540.52 L180.42,540.56 L180.5,540.46 L180.36,540.42 L180.26,540.48 Z M180.86,539.64 L180.9,539.64 L180.88,539.56 L180.76,539.44 L180.68,539.42 L180.74,539.56 L180.86,539.64 Z M168.96,544.02 L168.94,544.08 L169.1,544.2 L169.16,544.14 L168.98,544 L168.96,544.02 Z M175.1,541.56 L175.14,541.56 L175.14,541.38 L175.02,541.38 L175.04,541.52 L175.1,541.56 Z M181.08,540.44 L181.12,540.46 L181.18,540.36 L180.98,540.28 L181,540.38 L181.08,540.44 Z M181.18,540.88 L181.22,540.88 L181.2,540.7 L181.12,540.64 L181.1,540.78 L181.18,540.88 Z M169.2,543.7 L169.26,543.72 L169.34,543.6 L169.26,543.54 L169.16,543.64 L169.2,543.7 Z M171.08,540.34 L171.16,540.38 L171.18,540.2 L171.12,540.14 L171.08,540.22 L171.08,540.34 Z M174.06,543.76 L174.06,543.82 L174.16,543.8 L174.2,543.74 L174.14,543.64 L174.1,543.64 L174.06,543.76 Z M179.5,544.5 L179.5,544.64 L179.58,544.64 L179.64,544.54 L179.5,544.5 Z M175.24,542.32 L175.24,542.36 L175.32,542.36 L175.38,542.24 L175.28,542.24 L175.24,542.32 Z M170.5,541.52 L170.48,541.56 L170.58,541.6 L170.62,541.5 L170.52,541.46 L170.5,541.52 Z M179.94,541.24 L179.94,541.38 L180.02,541.38 L180.02,541.24 L179.94,541.24 Z M180.44,539.7 L180.44,539.84 L180.52,539.84 L180.52,539.7 L180.44,539.7 Z M174.42,542.68 L174.42,542.64 L174.3,542.6 L174.28,542.68 L174.36,542.72 L174.42,542.68 Z M176.38,539.46 L176.42,539.46 L176.4,539.38 L176.32,539.36 L176.24,539.42 L176.38,539.46 Z M180.26,539.92 L180.26,540.02 L180.36,540.02 L180.36,539.92 L180.26,539.92 Z M179.22,543.04 L179.22,543.14 L179.32,543.14 L179.32,543.04 L179.22,543.04 Z M179.04,544.9 L179.04,545 L179.14,545 L179.14,544.9 L179.04,544.9 Z M169.26,544.58 L169.26,544.68 L169.34,544.72 L169.34,544.6 L169.26,544.58 Z M175.38,539.06 L175.38,539.02 L175.24,538.98 L175.24,539.06 L175.38,539.06 Z M174.28,543.1 L174.28,543.18 L174.38,543.18 L174.38,543.1 L174.28,543.1 Z M176.68,538.12 L176.64,538.2 L176.78,538.16 L176.78,538.12 L176.68,538.12 Z M192.98,539.34 L192.96,539.36 L192.8,540 L192.64,540.48 L192.6,540.48 L192.6,540.58 L192.56,540.58 L192.56,540.66 L192.5,540.66 L192.5,540.76 L192.46,540.76 L192.46,540.84 L192.3,541.14 L192.24,541.48 L192.18,541.52 L192.1,541.72 L191.98,541.86 L191.86,542.2 L191.78,542.56 L191.54,543.12 L191.4,543.42 L191.32,543.74 L191.1,544.3 L191.02,544.64 L191,545 L191.04,545.36 L191.12,545.58 L191.24,545.6 L191.28,545.7 L191.52,545.7 L192.1,545.46 L192.6,545.02 L192.74,544.96 L193.18,544.48 L193.38,544.26 L193.56,543.98 L193.9,543.56 L194,543.48 L194.04,543.34 L194.14,543.3 L194.18,543.16 L194.28,543.12 L194.32,542.98 L194.5,542.8 L194.52,542.68 L194.86,542.2 L194.98,541.92 L195.18,541.62 L195.3,541.54 L195.6,541.56 L195.88,541.7 L196.16,542.08 L196.18,542.24 L195.9,542.8 L195.72,543.04 L195.72,543.12 L195.56,543.38 L195.5,543.42 L195.5,543.52 L195.46,543.52 L195.42,543.66 L195.04,544.1 L195.02,544.22 L194.94,544.26 L194.86,544.4 L194.72,544.52 L194.72,544.6 L194.54,544.78 L194.52,544.9 L194.44,544.94 L194.28,545.18 L193.8,545.64 L193.34,546.08 L192.82,546.52 L192.76,546.58 L192.64,546.6 L192.64,546.64 L192.56,546.64 L192.56,546.7 L192.46,546.7 L192.42,546.78 L192.3,546.8 L192.04,546.96 L191.74,547.08 L191.6,547.1 L191.4,547.2 L190.8,547.28 L190.74,547.32 L190.1,547.24 L189.8,547.16 L189.54,547.04 L189.08,546.56 L188.82,546.24 L188.8,546.1 L188.52,545.92 L188.38,545.96 L187.88,546.38 L187.42,546.8 L187,546.98 L186.94,547.04 L186.62,547.14 L186.16,547.18 L186.16,547.22 L185.58,547.28 L185.26,547.24 L185.22,547.18 L184.98,547.14 L184.98,547.1 L184.9,547.1 L184.9,547.06 L184.8,547.06 L184.8,547 L184.72,547 L184.72,546.96 L184.44,546.82 L184.14,546.52 L184.12,546.42 L184,546.32 L183.94,546.06 L183.9,546.02 L183.86,545.74 L183.82,545.7 L183.74,545.1 L183.72,544.74 L183.8,544.12 L183.86,543.78 L183.86,543.48 L184,542.88 L184.14,542.48 L184.28,541.92 L184.5,541.32 L184.72,540.76 L184.84,540.28 L185.02,539.98 L185.08,539.76 L185.2,539.64 L185.32,539.34 L185.46,539.14 L185.74,538.58 L185.88,538.48 L185.94,538.32 L186.06,538.22 L186.3,537.82 L186.74,537.38 L186.82,537.34 L186.96,537.16 L187.08,537.14 L187.12,537.04 L187.26,537.02 L187.34,536.9 L187.46,536.88 L187.52,536.82 L187.7,536.78 L187.74,536.7 L187.84,536.68 L187.88,536.6 L187.96,536.6 L188.06,536.5 L188.66,536.36 L188.96,536.32 L189.6,536.4 L189.88,536.46 L189.88,536.5 L190.1,536.54 L190.6,536.94 L190.82,537.18 L190.9,537.32 L190.92,537.44 L191.02,537.5 L191.02,537.58 L191.42,537.82 L191.54,537.76 L191.7,537.76 L192.2,537.52 L193.36,537 L193.42,536.96 L193.58,536.96 L193.8,537.16 L193.88,537.28 L193.8,537.58 L193.64,537.9 L193.5,538.32 L193.24,538.9 L192.98,539.34 Z M189.04,538.52 L189.02,538.54 L188.92,538.54 L188.92,538.58 L188.84,538.58 L188.84,538.62 L188.74,538.62 L188.62,538.82 L188.48,538.86 L188.06,539.34 L187.7,539.9 L187.34,540.42 L187.26,540.62 L187.2,540.62 L187.2,540.72 L187.14,540.74 L187.1,540.98 L186.94,541.22 L186.86,541.44 L186.7,541.72 L186.54,542.3 L186.48,542.62 L186.28,543.06 L186.14,543.66 L186.08,544.28 L186.1,544.68 L186.22,544.92 L186.44,545.16 L186.7,545.26 L187.06,545.24 L187.48,545.1 L187.52,545.02 L187.62,545.02 L187.68,544.92 L187.76,544.92 L188,544.66 L188.06,544.64 L188.06,544.6 L188.52,544.16 L188.86,543.72 L189.1,543.16 L189.3,542.56 L189.4,542.44 L189.52,542.16 L189.52,542.08 L189.6,541.96 L189.6,541.88 L189.66,541.84 L189.86,541.2 L189.96,540.92 L190.04,540.8 L190.28,540.18 L190.4,539.9 L190.44,539.34 L190.4,539.26 L190.38,539.04 L190.28,538.94 L190.24,538.8 L190.14,538.66 L189.88,538.5 L189.56,538.42 L189.34,538.42 L189.04,538.52 Z M184.86,544.88 L184.8,544.88 L184.82,544.96 L184.94,545.02 L184.94,545.06 L185.2,545.02 L185.3,544.96 L185.26,544.74 L185.08,544.76 L184.86,544.88 Z M190.18,542.58 L190.16,542.62 L190.34,542.76 L190.6,542.76 L190.72,542.84 L190.92,542.88 L190.92,542.8 L190.72,542.72 L190.66,542.6 L190.6,542.56 L190.54,542.64 L190.48,542.66 L190.22,542.54 L190.18,542.58 Z M189.44,545.98 L189.42,546.02 L189.34,546.06 L189.38,546.14 L189.52,546.08 L189.62,545.96 L189.66,545.74 L189.52,545.7 L189.44,545.98 Z M189.2,544.8 L189.2,544.84 L189.36,544.88 L189.52,544.7 L189.46,544.66 L189.3,544.68 L189.2,544.8 Z M190.28,545.82 L190.34,545.82 L190.3,545.66 L190.2,545.56 L190.16,545.56 L190.12,545.64 L190.14,545.76 L190.28,545.82 Z M191.54,539.28 L191.52,539.3 L191.52,539.4 L191.7,539.48 L191.74,539.38 L191.68,539.24 L191.64,539.22 L191.62,539.26 L191.54,539.28 Z M189.6,544.14 L189.56,544.16 L189.58,544.32 L189.66,544.34 L189.72,544.3 L189.78,544.16 L189.72,544.12 L189.6,544.14 Z M189.88,543.88 L189.88,543.92 L189.94,543.96 L190,543.94 L190.1,543.66 L190.02,543.66 L189.98,543.7 L190,543.74 L189.88,543.88 Z M191.22,539.92 L191.24,539.94 L191.24,540.04 L191.38,540.04 L191.28,539.82 L191.2,539.8 L191.16,539.88 L191.22,539.92 Z M192.02,539.46 L192,539.48 L192.14,539.58 L192.28,539.54 L192.22,539.42 L192.02,539.46 Z M190.96,539.2 L190.96,539.26 L191,539.28 L191.06,539.24 L191.2,539 L191.14,539 L190.96,539.2 Z M190.68,541.94 L190.74,541.94 L190.74,541.76 L190.6,541.76 L190.62,541.92 L190.68,541.94 Z M191.44,540.76 L191.42,540.8 L191.46,540.84 L191.54,540.84 L191.6,540.78 L191.6,540.7 L191.52,540.66 L191.44,540.76 Z M185.4,545.4 L185.4,545.46 L185.46,545.44 L185.48,545.34 L185.6,545.24 L185.62,545.18 L185.58,545.16 L185.42,545.32 L185.4,545.4 Z M189.88,545.54 L189.88,545.6 L190.04,545.52 L190.06,545.46 L189.98,545.38 L189.88,545.54 Z M190.52,544.52 L190.52,544.56 L190.68,544.52 L190.7,544.38 L190.56,544.44 L190.52,544.52 Z M190.46,544.88 L190.52,544.88 L190.5,544.66 L190.44,544.68 L190.4,544.82 L190.46,544.88 Z M185.44,544.86 L185.44,544.92 L185.6,544.9 L185.62,544.84 L185.48,544.8 L185.44,544.86 Z M190.78,542.26 L190.78,542.3 L190.88,542.3 L190.92,542.16 L190.84,542.16 L190.78,542.26 Z M185.58,545.7 L185.58,545.74 L185.76,545.78 L185.72,545.66 L185.58,545.7 Z M188.82,537.72 L188.88,537.72 L188.88,537.64 L188.78,537.6 L188.76,537.68 L188.82,537.72 Z M185.94,540.94 L185.9,541.02 L186.02,541.02 L186.04,540.94 L185.94,540.94 Z M191.96,540.22 L191.88,540.26 L191.88,540.34 L191.96,540.34 L191.96,540.22 Z M191.1,540.86 L191.14,540.9 L191.18,540.82 L191.14,540.76 L191.1,540.86 Z M199.58,537.06 L199.6,537.12 L199.96,537.12 L200.42,536.84 L200.6,536.8 L200.68,536.68 L201.26,536.52 L201.62,536.46 L201.94,536.36 L202.24,536.34 L202.86,536.54 L203.18,536.7 L203.44,536.88 L203.52,537.04 L203.58,537.08 L203.7,537.42 L203.8,538.06 L203.82,538.2 L203.66,538.82 L203.64,538.96 L203.58,539.02 L203.6,539.18 L203.48,539.4 L203.36,539.92 L203.32,539.92 L203.28,540.2 L203.24,540.2 L203.02,540.6 L202.72,541.06 L202.66,541.38 L202.26,541.86 L201.82,542.42 L201.74,542.5 L201.64,542.5 L201.4,542.7 L201,542.9 L200.84,543.02 L200.7,543.04 L200.6,543.14 L200.02,543.28 L199.88,543.4 L199.74,543.46 L199.68,543.6 L199.62,543.64 L199.6,543.8 L199.56,543.86 L199.66,544.46 L199.78,545.04 L199.84,545.08 L199.86,545.2 L199.92,545.26 L199.96,545.4 L200.24,545.68 L200.32,545.68 L200.32,545.72 L200.96,545.68 L201,545.62 L201.58,545.5 L201.68,545.4 L201.82,545.36 L202.06,545.12 L202.54,544.78 L202.68,544.62 L202.78,544.62 L202.78,544.58 L203.04,544.42 L203.5,543.98 L203.56,543.92 L203.58,543.82 L203.7,543.74 L203.78,543.58 L203.86,543.54 L203.86,543.46 L204.04,543.3 L204.08,543.18 L204.3,543.06 L204.34,542.94 L204.46,542.84 L204.6,542.56 L204.8,542.32 L205.12,541.78 L205.16,541.68 L205.3,541.56 L205.44,541.5 L205.76,541.52 L206.08,541.74 L206.08,541.82 L206.18,541.92 L206.22,542.06 L206.2,542.22 L206.06,542.52 L206,542.58 L205.96,542.7 L205.86,542.82 L205.86,542.88 L205.48,543.42 L205.1,543.94 L204.64,544.38 L204.54,544.44 L204.5,544.58 L204.44,544.62 L204.44,544.66 L204.32,544.78 L204.32,544.84 L204.1,545.08 L203.56,545.48 L203.1,545.9 L202.58,546.32 L202.34,546.52 L202.14,546.58 L202.08,546.64 L201.78,546.76 L201.64,546.78 L201.42,546.98 L201.14,547.08 L200.54,547.22 L199.9,547.3 L199.74,547.3 L199.74,547.26 L199.56,547.26 L199.56,547.22 L199.4,547.22 L198.88,547.04 L198.84,546.98 L198.66,546.9 L198.42,546.68 L198.1,546.22 L197.88,545.98 L197.88,545.9 L197.84,545.9 L197.84,545.8 L197.8,545.8 L197.8,545.72 L197.74,545.72 L197.74,545.62 L197.7,545.62 L197.6,545.3 L197.54,544.94 L197.46,544.7 L197.4,544.02 L197.44,543.28 L197.52,542.88 L197.66,542.64 L197.84,542.46 L197.88,542.36 L198.1,542.28 L198.82,542.24 L199.08,542.18 L199.68,541.84 L199.92,541.62 L200.06,541.56 L200.12,541.4 L200.36,541.2 L200.38,541.1 L200.46,541.06 L200.6,540.78 L200.7,540.68 L200.86,540.06 L200.98,539.86 L201,539.7 L201.1,539.6 L201.16,538.98 L201.16,538.82 L200.96,538.48 L200.88,538.48 L200.7,538.4 L200.22,538.44 L200.2,538.48 L199.92,538.56 L199.36,538.92 L198.84,539.28 L198.48,539.6 L198.32,539.86 L198.28,540.02 L198.18,540.16 L197.96,540.76 L197.68,541.36 L197.56,541.64 L197.46,541.78 L197.46,542 L197.4,542.06 L197.36,542.22 L197.3,542.28 L197.24,542.5 L197.2,542.52 L197.12,542.8 L197.12,542.96 L197.04,542.98 L196.94,543.28 L196.84,543.36 L196.66,543.96 L196.62,544.18 L196.56,544.18 L196.5,544.5 L196.34,544.76 L196.12,545.36 L196.08,545.54 L196.02,545.54 L196,545.66 L195.82,545.98 L195.64,546.56 L195.62,546.62 L195.52,546.66 L195.5,546.78 L195.3,546.9 L195.26,546.98 L194.64,547.08 L194.02,547.06 L193.68,547.08 L193.42,546.96 L193.22,546.8 L193.22,546.48 L193.44,545.9 L193.64,545.34 L193.68,545.16 L193.76,545.04 L193.76,544.94 L193.86,544.9 L193.86,544.82 L193.9,544.82 L193.9,544.72 L193.94,544.72 L193.94,544.62 L193.98,544.62 L193.98,544.54 L194.04,544.54 L194.12,544.26 L194.36,543.66 L194.42,543.34 L194.66,542.78 L194.66,542.72 L194.74,542.62 L194.82,542.36 L194.88,542.3 L195.06,541.9 L195.08,541.78 L195.12,541.78 L195.2,541.48 L195.32,541.22 L195.34,541.1 L195.4,541.1 L195.4,541 L195.44,541 L195.44,540.92 L195.48,540.92 L195.48,540.82 L195.52,540.82 L195.52,540.74 L195.58,540.74 L195.58,540.64 L195.62,540.64 L195.62,540.56 L195.66,540.56 L195.84,539.96 L195.86,539.82 L195.96,539.68 L196.18,539.22 L196.2,539.1 L196.36,538.86 L196.56,538.24 L196.56,538.16 L196.66,538.06 L196.66,537.92 L196.76,537.84 L196.76,537.7 L196.86,537.56 L196.88,537.34 L196.94,537.3 L196.94,537.24 L197.04,537.12 L197.06,536.88 L197.12,536.84 L197.18,536.6 L197.3,536.48 L197.34,536.2 L197.56,535.62 L197.8,535.02 L198,534.64 L198.04,534.46 L198.1,534.4 L198.1,534.3 L198.16,534.3 L198.2,534.06 L198.34,533.78 L198.38,533.58 L198.44,533.5 L198.44,533.42 L198.74,532.9 L198.88,532.76 L199.02,532.68 L199.26,532.64 L199.96,532.64 L200.46,532.58 L200.64,532.6 L200.92,532.78 L201,532.9 L201.02,533.2 L200.88,533.68 L200.76,533.8 L200.7,534.04 L200.66,534.04 L200.62,534.2 L200.56,534.26 L200.38,534.86 L200.18,535.38 L200.08,535.5 L200.02,535.76 L199.86,536.04 L199.84,536.2 L199.74,536.3 L199.58,536.84 L199.58,537.06 Z M201.9,539.94 L201.92,539.96 L202.18,539.98 L202.24,540.06 L202.14,540.24 L201.84,540.2 L201.78,540.24 L201.78,540.34 L201.9,540.42 L201.92,540.5 L201.58,540.78 L201.5,541.06 L201.62,541.06 L201.68,541 L201.78,541 L202,540.74 L202.16,540.78 L202.3,540.72 L202.32,540.62 L202.1,540.48 L202.12,540.38 L202.18,540.32 L202.42,540.36 L202.56,540.24 L202.52,540.14 L202.42,540.06 L202.42,539.96 L202.26,539.9 L202.18,539.78 L202,539.78 L202,539.7 L201.86,539.64 L201.86,539.82 L201.9,539.94 Z M202.78,539.2 L202.6,539.2 L202.58,539.12 L202.32,538.88 L202.16,538.9 L202.14,538.98 L202.28,539.14 L202.28,539.34 L202.36,539.56 L202.68,539.56 L202.78,539.2 Z M202.7,538.16 L202.72,538.2 L202.42,538.38 L202.46,538.4 L202.5,538.52 L202.36,538.6 L202.28,538.7 L202.44,538.66 L202.56,538.7 L202.62,538.68 L202.68,538.6 L202.78,538.66 L202.96,538.48 L202.94,538.14 L202.88,538.04 L202.72,538.02 L202.7,538.16 Z M197.94,538.32 L197.92,538.34 L197.92,538.42 L197.78,538.58 L197.88,538.92 L198.14,538.9 L198.14,538.74 L197.98,538.56 L198.26,538.42 L198.34,538.24 L198.18,538.2 L197.94,538.32 Z M198.1,537.12 L198.1,537.16 L197.94,537.22 L197.86,537.32 L197.84,537.42 L197.94,537.52 L198,537.5 L198.02,537.38 L198.1,537.34 L198.1,537.24 L198.24,537.16 L198.22,537.06 L198.16,537.02 L198.1,537.12 Z M201.94,538.26 L201.96,538.24 L201.94,538.06 L201.84,537.98 L201.74,537.98 L201.7,538.02 L201.72,538.16 L201.86,538.26 L201.94,538.26 Z M202.6,537.62 L202.6,537.66 L202.66,537.78 L202.66,537.86 L202.78,537.88 L202.78,537.74 L202.86,537.66 L202.84,537.58 L202.66,537.58 L202.6,537.62 Z M197.8,538 L197.84,538.02 L197.96,537.92 L197.98,537.8 L197.7,537.74 L197.7,537.84 L197.8,538 Z M196.58,542.24 L196.56,542.28 L196.62,542.32 L196.66,542.42 L196.76,542.42 L196.8,542.22 L196.64,542.18 L196.58,542.24 Z M198,543.62 L197.98,543.64 L198.1,543.84 L198.2,543.86 L198.2,543.76 L198.1,543.64 L198,543.62 Z M199,543.98 L198.98,544 L199.04,544.16 L199.1,544.22 L199.16,544.18 L199.1,544.14 L199.16,544 L199.1,543.96 L199,543.98 Z M198.78,543.62 L198.74,543.64 L198.74,543.72 L198.8,543.76 L198.92,543.76 L198.9,543.62 L198.78,543.58 L198.78,543.62 Z M201.82,539.06 L201.78,539.1 L201.8,539.2 L201.94,539.24 L202,539.14 L201.82,539.06 Z M198.88,543.4 L198.92,543.4 L198.98,543.28 L198.98,543.18 L198.88,543.2 L198.82,543.3 L198.88,543.4 Z M202.38,537.68 L202.42,537.7 L202.46,537.52 L202.32,537.48 L202.28,537.54 L202.38,537.68 Z M198.3,536.52 L198.3,536.62 L198.48,536.62 L198.46,536.52 L198.4,536.48 L198.3,536.52 Z M197.52,538.84 L197.52,538.92 L197.64,538.9 L197.7,538.84 L197.62,538.74 L197.52,538.84 Z M198.54,545.26 L198.52,545.3 L198.7,545.42 L198.74,545.4 L198.66,545.26 L198.54,545.26 Z M201.4,541.18 L201.46,541.18 L201.48,541.1 L201.38,541 L201.34,541.14 L201.4,541.18 Z M198.48,537.12 L198.48,537.2 L198.7,537.2 L198.56,537.12 L198.48,537.12 Z M197.18,539.74 L197.24,539.74 L197.24,539.64 L197.18,539.6 L197.12,539.66 L197.18,539.74 Z M199.36,534.9 L199.42,534.9 L199.42,534.8 L199.36,534.76 L199.3,534.82 L199.36,534.9 Z M198.38,543.9 L198.38,544.04 L198.46,544.04 L198.46,543.9 L198.38,543.9 Z M198.34,543.78 L198.34,543.82 L198.42,543.82 L198.46,543.74 L198.38,543.68 L198.34,543.78 Z M202.36,540.46 L202.36,540.56 L202.46,540.56 L202.46,540.46 L202.36,540.46 Z M199.16,544.5 L199.16,544.62 L199.24,544.62 L199.24,544.5 L199.16,544.5 Z M198.92,544.82 L198.92,544.9 L199.06,544.9 L199.04,544.84 L198.92,544.82 Z M199.38,545.44 L199.38,545.54 L199.46,545.54 L199.46,545.44 L199.38,545.44 Z M198.7,545.04 L198.7,545.12 L198.78,545.12 L198.78,545.04 L198.7,545.04 Z M210.32,536.38 L210.52,536.38 L210.56,536.34 L211.2,536.34 L211.46,536.42 L211.5,536.48 L211.82,536.56 L212.06,536.74 L212.3,536.82 L212.74,537.28 L212.86,537.38 L212.92,537.52 L213,537.56 L213,537.66 L213.1,537.74 L213.16,538.34 L213.22,538.98 L213.18,539.3 L213.1,539.52 L213,540.06 L212.82,540.46 L212.72,540.56 L212.6,540.92 L212.5,540.96 L212.48,541.1 L212.16,541.58 L211.68,542.04 L211.16,542.4 L210.88,542.56 L210.78,542.58 L210.7,542.68 L210.6,542.68 L210.6,542.72 L210.02,542.9 L209.68,542.98 L209.52,542.98 L209.38,543.04 L208.76,543.04 L207.48,543.08 L207.4,543.1 L207.16,543.32 L207.1,543.46 L207.04,544.08 L207.06,544.68 L207.1,544.68 L207.14,544.82 L207.5,545.28 L207.8,545.5 L208,545.6 L208.68,545.72 L209.34,545.7 L209.62,545.64 L210.24,545.4 L210.84,545.14 L211.28,544.8 L211.38,544.8 L211.42,544.72 L211.5,544.72 L211.72,544.48 L211.9,544.42 L212.1,544.16 L212.28,544.08 L212.42,543.88 L212.68,543.68 L213.06,543.18 L213.46,542.68 L213.84,542.18 L214.1,541.84 L214.26,541.58 L214.6,541.56 L214.88,541.6 L215.16,541.86 L215.24,542.12 L215.12,542.52 L215,542.64 L214.94,542.8 L214.74,543.02 L214.38,543.54 L214.36,543.68 L214.14,543.9 L214.14,544 L213.26,544.92 L212.44,545.74 L212.18,545.9 L212.14,545.96 L212,545.98 L211.88,546.1 L211.38,546.44 L211.3,546.46 L211.2,546.58 L211.1,546.58 L211.1,546.62 L210.78,546.7 L210.74,546.76 L210.42,546.82 L209.82,547 L209.74,547.02 L209.7,547.08 L209.06,547.16 L209.02,547.16 L209.02,547.2 L208.56,547.24 L208.42,547.3 L207.76,547.24 L207.46,547.24 L206.96,547.08 L206.64,547.04 L206.04,546.76 L205.8,546.62 L205.68,546.5 L205.52,546.44 L205.44,546.26 L205.34,546.22 L205.3,546.08 L205.04,545.72 L204.88,545.16 L204.8,544.52 L204.76,543.9 L204.82,543.26 L204.9,542.94 L204.92,542.62 L205.06,542.04 L205.24,541.46 L205.26,541.22 L205.3,541.18 L205.38,540.9 L205.62,540.46 L205.86,539.94 L205.96,539.78 L206,539.64 L206.12,539.56 L206.2,539.32 L206.24,539.32 L206.54,538.8 L206.64,538.68 L206.7,538.52 L207.14,538.1 L207.38,537.9 L207.8,537.44 L207.96,537.26 L208.2,537.14 L208.48,536.94 L208.7,536.86 L208.8,536.74 L209.1,536.6 L209.7,536.42 L210.32,536.38 Z M210.8,538.46 L210.64,538.38 L210.3,538.36 L209.84,538.52 L209.72,538.54 L209.28,538.92 L209.2,538.92 L208.78,539.42 L208.44,539.96 L208.14,540.5 L208.12,540.6 L208.06,540.6 L208.06,540.68 L208.02,540.68 L208,540.82 L207.76,541.32 L207.74,541.46 L207.88,541.64 L208,541.7 L208.74,541.7 L208.98,541.68 L209.1,541.58 L209.26,541.54 L209.68,541.3 L209.72,541.24 L209.84,541.22 L210.26,540.74 L210.48,540.36 L210.74,539.78 L210.98,539.14 L211.02,538.7 L210.8,538.46 Z M206.98,540.58 L207.02,540.6 L207.26,540.3 L207.3,540.18 L207.16,540.14 L207,540.16 L206.94,540.48 L206.98,540.58 Z M212.22,538.7 L212.24,538.74 L212.4,538.72 L212.56,538.6 L212.4,538.54 L212.14,538.52 L212.14,538.62 L212.22,538.7 Z M206.34,543.58 L206.3,543.58 L206.32,543.74 L206.58,543.82 L206.62,543.58 L206.58,543.54 L206.46,543.6 L206.34,543.58 Z M206.2,542.2 L206.16,542.22 L206.16,542.3 L206.3,542.36 L206.4,542.3 L206.4,542.22 L206.2,542.2 Z M207.8,539.24 L207.8,539.28 L208,539.22 L208.06,539.24 L208.06,539.1 L207.9,539.12 L207.8,539.24 Z M211.34,538.1 L211.38,538.1 L211.38,538 L211.34,537.94 L211.24,537.92 L211.26,538.08 L211.34,538.1 Z M205.84,542.28 L205.94,542.28 L205.94,542.46 L205.84,542.46 L205.84,542.28 Z M211.68,539.2 L211.68,539.38 L211.78,539.38 L211.78,539.2 L211.68,539.2 Z M208.42,538.86 L208.48,538.88 L208.52,538.8 L208.48,538.7 L208.42,538.7 L208.38,538.76 L208.42,538.86 Z M210.86,537.26 L210.82,537.34 L210.96,537.38 L211.02,537.28 L210.86,537.26 Z M211.74,537.24 L211.74,537.28 L211.8,537.32 L211.88,537.3 L211.92,537.24 L211.84,537.2 L211.74,537.24 Z M207.08,540.88 L207.06,540.92 L207.16,540.96 L207.2,540.86 L207.12,540.82 L207.08,540.88 Z M211.74,539.92 L211.78,539.92 L211.74,539.8 L211.64,539.78 L211.66,539.86 L211.74,539.92 Z M212.14,539 L212.14,538.96 L212.02,538.92 L212,539 L212.08,539.04 L212.14,539 Z M205.72,544.26 L205.72,544.22 L205.6,544.18 L205.58,544.26 L205.64,544.3 L205.72,544.26 Z M205.8,544.8 L205.8,544.9 L205.9,544.9 L205.9,544.8 L205.8,544.8 Z M206.84,541.4 L206.8,541.42 L206.8,541.5 L206.84,541.52 L206.9,541.4 L206.84,541.36 L206.84,541.4 Z M205.94,543.5 L205.9,543.58 L206.02,543.62 L206,543.54 L205.94,543.5 Z M218.3,532.66 L218.34,532.66 L218.4,532.62 L219.02,532.6 L219.72,532.64 L219.78,532.64 L219.96,532.76 L220.06,532.98 L220,533.26 L219.88,533.56 L219.86,533.74 L219.74,534 L219.66,534.3 L219.58,534.4 L219.48,534.8 L219.4,534.9 L219.16,535.56 L219.1,535.62 L218.86,536.18 L218.76,536.46 L218.66,536.56 L218.64,536.78 L218.58,536.92 L218.52,536.96 L218.48,537.28 L218.36,537.46 L218.34,537.56 L218.28,537.6 L218.04,538.2 L217.98,538.5 L217.68,539 L217.54,539.64 L217.32,540.12 L217.06,540.72 L216.58,541.92 L216.34,542.5 L216.18,542.98 L216.12,543.04 L215.72,544.08 L215.58,544.66 L215.52,545 L215.52,545.24 L215.56,545.36 L215.82,545.6 L215.94,545.66 L216.24,545.62 L216.54,545.5 L216.92,545.2 L217.04,545.14 L217.2,544.96 L217.32,544.92 L217.6,544.54 L217.74,544.44 L217.9,544.2 L218.14,544.02 L218.22,543.82 L218.44,543.6 L218.8,543.08 L218.86,543.02 L218.88,542.9 L218.98,542.86 L219.02,542.72 L219.12,542.68 L219.16,542.44 L219.26,542.36 L219.3,542.22 L219.38,542.18 L219.7,541.62 L219.88,541.52 L220.22,541.52 L220.52,541.68 L220.66,541.96 L220.7,542.26 L220.58,542.56 L220.24,543.08 L219.88,543.62 L219.8,543.76 L219.74,543.8 L219.46,544.36 L219.4,544.4 L219.38,544.48 L219.2,544.58 L219.2,544.66 L218.78,545.12 L218.36,545.6 L217.92,546.06 L217.46,546.46 L216.96,546.78 L216.76,546.84 L216.62,546.94 L216.48,546.98 L216.36,547.08 L216.04,547.18 L215.46,547.28 L215.26,547.24 L215.22,547.2 L214.56,547.2 L214.04,547 L214,546.92 L213.74,546.76 L213.44,546.38 L213.42,546.16 L213.34,545.9 L213.2,545.64 L213.18,544.98 L213.32,544.38 L213.42,543.8 L213.64,543.18 L213.86,542.58 L214.14,542.02 L214.28,541.36 L214.44,541.1 L214.66,540.56 L214.86,540.02 L215.06,539.4 L215.3,538.84 L215.78,537.68 L215.8,537.6 L215.86,537.56 L215.96,537.24 L216.2,536.66 L216.46,536.08 L216.68,535.5 L216.88,534.88 L217.1,534.5 L217.3,534.02 L217.34,533.74 L217.38,533.74 L217.54,533.28 L217.8,532.88 L217.92,532.78 L218.08,532.76 L218.08,532.72 L218.3,532.66 Z M218.26,534.86 L218.2,534.98 L218.3,535.1 L218.26,535.2 L218.3,535.28 L218.4,535.28 L218.46,535.24 L218.52,534.88 L218.36,534.8 L218.26,534.86 Z M215.76,540.18 L215.76,540.22 L215.94,540.2 L216.08,540.04 L216.04,539.86 L215.9,539.86 L215.9,539.96 L215.76,540.18 Z M214.22,545.12 L214.22,545.16 L214.48,545.18 L214.58,545.12 L214.3,544.94 L214.24,544.96 L214.22,545.12 Z M216.38,539.34 L216.36,539.36 L216.32,539.44 L216.34,539.5 L216.54,539.64 L216.54,539.46 L216.58,539.4 L216.42,539.32 L216.38,539.34 Z M216.08,540.86 L216.08,540.9 L216.14,540.94 L216.44,540.94 L216.44,540.86 L216.38,540.82 L216.18,540.8 L216.08,540.86 Z M214.94,544.66 L214.94,544.7 L215.1,544.68 L215.18,544.52 L215.12,544.48 L214.98,544.54 L214.94,544.66 Z M217.62,536 L217.62,536.06 L217.78,536.04 L217.8,535.92 L217.66,535.88 L217.62,536 Z M216.94,537.38 L216.94,537.42 L217.08,537.46 L217.16,537.42 L217.16,537.32 L217,537.34 L216.94,537.38 Z M214.42,545.74 L214.36,545.74 L214.38,545.82 L214.54,545.82 L214.58,545.74 L214.52,545.7 L214.42,545.74 Z M215.84,541.76 L215.9,541.76 L215.92,541.72 L215.86,541.66 L215.72,541.72 L215.84,541.76 Z M223.98,536.9 L224,536.92 L223.94,537.26 L223.88,537.4 L223.82,537.42 L223.6,538 L223.42,538.56 L223.32,538.66 L223.3,538.86 L223.16,539.1 L223.1,539.36 L223.06,539.36 L222.94,539.68 L222.88,539.74 L222.88,539.82 L222.64,540.32 L222.6,540.54 L222.56,540.54 L222.42,541 L222.2,541.32 L222.2,541.4 L222.14,541.4 L222.14,541.5 L222.1,541.5 L222.02,541.78 L221.88,542.36 L221.64,542.94 L221.48,543.38 L221.38,543.48 L221.38,543.62 L221.26,543.9 L221.24,544.04 L221.2,544.04 L221.04,544.6 L220.96,544.94 L220.96,545.26 L221.16,545.52 L221.42,545.66 L221.96,545.58 L222.48,545.24 L222.72,544.96 L222.9,544.88 L223.3,544.38 L223.66,543.9 L224.06,543.38 L224.18,543.26 L224.24,543.12 L224.32,543.08 L224.36,542.94 L224.46,542.86 L224.5,542.72 L224.82,542.32 L224.92,542.04 L225.1,541.76 L225.42,541.5 L225.76,541.54 L225.94,541.66 L226.14,541.9 L226.2,542.06 L226.14,542.36 L225.82,542.94 L225.78,543.08 L225.68,543.18 L225.68,543.26 L225.58,543.4 L225.5,543.44 L225.5,543.54 L225.32,543.72 L225.32,543.8 L225.28,543.8 L225.22,543.94 L225.14,543.98 L225.1,544.12 L224.86,544.3 L224.82,544.44 L224.72,544.48 L224.7,544.6 L224.64,544.66 L224.6,544.8 L224.42,544.94 L224.42,545 L224.08,545.36 L223.64,545.78 L223.42,546.08 L223.28,546.12 L223.14,546.3 L223.08,546.3 L222.54,546.72 L222.3,546.92 L222.2,546.94 L222.2,546.98 L221.62,547.14 L221.34,547.24 L220.7,547.24 L220.18,547.28 L220.16,547.24 L220,547.24 L219.74,547.16 L219.44,547 L219.24,546.66 L219.16,546.62 L219.16,546.38 L219,546.08 L218.8,545.82 L218.74,545.24 L218.74,544.56 L218.88,543.98 L218.94,543.68 L218.98,543.68 L219.02,543.36 L219.22,542.78 L219.42,542.18 L219.52,542.08 L219.68,541.62 L219.76,541.5 L219.84,541.18 L219.88,541.14 L219.92,540.9 L220,540.84 L220.06,540.54 L220.1,540.5 L220.1,540.42 L220.2,540.32 L220.22,540.18 L220.36,539.88 L220.42,539.82 L220.6,539.24 L220.7,539.06 L220.92,538.46 L221.2,537.9 L221.38,537.46 L221.48,537.34 L221.64,536.92 L221.88,536.7 L222.08,536.6 L223.46,536.6 L223.74,536.66 L223.88,536.76 L223.98,536.9 Z M225.32,534.48 L225.32,534.56 L225.26,534.6 L225.26,534.68 L225.1,534.94 L225,535.04 L224.46,535.36 L224.36,535.38 L224.26,535.5 L223.96,535.5 L223.28,535.38 L223.04,535.24 L222.92,535.12 L222.9,535 L222.82,534.96 L222.56,534.38 L222.52,534.1 L222.58,533.74 L222.74,533.44 L222.82,533.4 L222.98,533.14 L223.14,532.96 L223.28,532.94 L223.38,532.86 L223.98,532.78 L224.64,532.96 L225.1,533.34 L225.14,533.48 L225.2,533.54 L225.28,533.78 L225.32,534.48 Z M221.62,539.84 L221.6,539.86 L221.62,540.04 L221.68,540.18 L221.74,540.22 L221.8,540.14 L221.74,539.96 L221.94,539.9 L221.96,539.82 L221.62,539.84 Z M220.38,544.4 L220.38,544.44 L220.36,544.5 L220.22,544.54 L220.2,544.62 L220.3,544.62 L220.42,544.54 L220.48,544.4 L220.48,544.3 L220.4,544.16 L220.34,544.12 L220.3,544.16 L220.38,544.4 Z M219.58,545.14 L219.56,545.16 L219.66,545.4 L219.8,545.34 L219.84,545.16 L219.78,545.12 L219.58,545.14 Z M222.7,538.44 L222.74,538.42 L222.62,538.14 L222.56,538.1 L222.46,538.1 L222.6,538.42 L222.7,538.44 Z M220.62,541.32 L220.66,541.36 L220.8,541.3 L220.84,541.18 L220.74,541.14 L220.6,541.2 L220.58,541.26 L220.62,541.32 Z M220.24,545.04 L220.24,545.08 L220.38,545.02 L220.38,544.9 L220.3,544.9 L220.24,545.04 Z M221.32,540.68 L221.38,540.68 L221.38,540.6 L221.28,540.5 L221.24,540.56 L221.26,540.64 L221.32,540.68 Z M224.38,534.04 L224.36,534.08 L224.46,534.12 L224.5,534.02 L224.42,533.98 L224.38,534.04 Z M220.52,543.86 L220.48,543.94 L220.56,543.98 L220.6,543.9 L220.52,543.86 Z M221.96,539.32 L221.96,539.36 L222.04,539.36 L222.1,539.28 L221.96,539.32 Z M230.04,536.8 L230.08,536.82 L230.1,537.08 L230,537.16 L229.88,537.48 L229.86,537.74 L229.78,537.8 L229.72,538.04 L229.62,538.18 L229.56,538.5 L229.22,539.04 L229.08,539.7 L228.82,540.28 L228.6,540.86 L228.54,540.96 L228.5,541.18 L228.46,541.18 L228.46,541.26 L228.36,541.5 L228.32,541.5 L228.14,542.06 L227.9,542.54 L227.72,542.96 L227.6,543.4 L227.56,543.4 L227.36,543.84 L227.22,544.12 L227.22,544.2 L227.18,544.2 L227.18,544.3 L227.14,544.3 L226.98,544.84 L226.92,545.02 L226.86,545.06 L226.78,545.38 L226.72,545.38 L226.72,545.48 L226.68,545.48 L226.68,545.56 L226.6,545.68 L226.56,545.84 L226.62,546 L226.78,546.06 L227.16,545.9 L227.42,545.72 L227.56,545.68 L228.06,545.28 L228.52,544.88 L228.98,544.44 L229.44,543.98 L229.88,543.52 L230.18,543.04 L230.32,542.92 L230.38,542.78 L230.6,542.62 L230.62,542.48 L230.74,542.4 L230.76,542.26 L230.94,542.04 L230.98,541.9 L231.04,541.86 L231.08,541.72 L231.28,541.5 L231.42,541.46 L231.92,541.7 L232.12,542 L232.12,542.22 L232,542.54 L231.82,542.84 L231.58,543.12 L231.5,543.32 L231.1,543.82 L230.72,544.34 L230.52,544.6 L230.06,545.06 L229.6,545.5 L229.4,545.64 L229.18,545.88 L228.68,546.26 L228.46,546.48 L228.3,546.54 L228.14,546.7 L228.04,546.7 L228.04,546.74 L227.96,546.74 L227.96,546.78 L227.86,546.78 L227.64,546.98 L227.56,547 L227.04,547.34 L226.66,547.54 L226.5,547.62 L226.36,547.64 L226.36,547.7 L226.06,547.78 L225.96,547.9 L225.82,547.96 L225.6,548.28 L225.48,548.58 L225.42,548.64 L225.42,548.74 L225.38,548.74 L225.26,549.02 L225.2,549.08 L225.14,549.34 L224.96,549.64 L224.94,549.76 L224.76,550.02 L224.54,550.56 L224.26,551.06 L223.92,551.56 L223.4,552 L223.24,552.18 L223.24,552.26 L223.1,552.44 L222.88,552.5 L222.58,552.7 L222.16,552.86 L222.1,552.92 L221.82,552.98 L221.2,553.02 L220.52,552.98 L220.02,552.82 L219.98,552.76 L219.84,552.72 L219.38,552.3 L219.18,552.04 L219.1,551.84 L219.04,551.78 L218.98,551.2 L218.98,550.68 L219.1,550.38 L219.12,550.18 L219.26,550 L219.26,549.94 L219.7,549.46 L220.16,549.02 L220.68,548.7 L220.88,548.56 L220.98,548.56 L220.98,548.52 L221.56,548.24 L222.12,547.98 L222.44,547.86 L222.52,547.78 L222.72,547.72 L222.78,547.64 L222.92,547.64 L222.98,547.58 L223.12,547.54 L223.44,547.32 L223.62,547.02 L223.84,546.42 L224.02,546.12 L224.22,545.5 L224.22,545.42 L224.46,545.02 L224.46,544.94 L224.6,544.8 L224.64,544.52 L224.86,543.98 L224.96,543.84 L225,543.52 L225.04,543.52 L225.24,542.98 L225.4,542.72 L225.46,542.38 L225.2,541.86 L225.18,541.7 L225.46,541.16 L225.64,540.82 L225.74,540.72 L225.82,540.44 L225.96,540.26 L226.08,539.96 L226.26,539.64 L226.36,539.54 L226.62,538.94 L226.72,538.82 L226.96,538.24 L227,538.1 L227.1,538 L227.18,537.78 L227.28,537.74 L227.44,537.36 L227.54,537.24 L227.54,537.14 L227.66,537.04 L227.7,536.92 L227.98,536.66 L228.2,536.56 L228.6,536.54 L229.2,536.66 L229.72,536.6 L229.88,536.66 L230.04,536.8 Z M229.62,533.02 L229.68,533.02 L229.76,532.96 L230.04,532.88 L230.14,532.78 L230.46,532.84 L230.8,533.04 L230.84,533.1 L230.96,533.14 L231.38,533.58 L231.46,533.84 L231.5,534.18 L231.44,534.6 L231.2,534.96 L230.92,535.22 L230.66,535.4 L230.44,535.46 L230.38,535.52 L229.72,535.44 L229.56,535.44 L229.3,535.3 L228.86,534.84 L228.72,534.56 L228.64,534.24 L228.64,533.92 L228.72,533.6 L228.98,533.22 L229.18,533.06 L229.62,533.02 Z M222.28,549.26 L222.24,549.28 L222.1,549.34 L221.84,549.38 L221.7,549.48 L221.56,549.5 L221.32,549.74 L221.14,549.86 L221.12,549.92 L221,549.94 L220.52,550.4 L220.34,550.82 L220.42,551.16 L220.54,551.28 L220.84,551.36 L220.98,551.34 L221.56,551.02 L221.84,550.8 L222.1,550.44 L222.16,550.42 L222.18,550.3 L222.48,549.82 L222.48,549.74 L222.52,549.74 L222.52,549.64 L222.56,549.64 L222.56,549.56 L222.62,549.48 L222.44,549.24 L222.28,549.26 Z M227.52,539.74 L227.5,539.76 L227.56,539.9 L227.68,540.04 L227.32,540.18 L227.36,540.34 L227.46,540.44 L227.58,540.36 L228,540.36 L228.14,540.16 L228.18,540.04 L228.14,540 L228.02,540.08 L227.92,540.04 L227.94,539.9 L227.52,539.74 Z M224.32,548.9 L224.28,548.92 L224.04,548.94 L224.02,549.02 L224.1,549.24 L224.2,549.24 L224.6,549 L224.64,548.92 L224.5,548.84 L224.42,548.84 L224.32,548.9 Z M227.34,540.98 L227.32,541 L227.24,540.96 L227.16,540.98 L227,541.22 L227.04,541.3 L227.34,541.3 L227.5,541.26 L227.46,540.96 L227.36,540.9 L227.34,540.98 Z M227.68,539.34 L227.64,539.36 L227.64,539.46 L227.72,539.58 L227.8,539.58 L227.92,539.46 L228.16,539.5 L228.3,539.4 L228.32,539.32 L227.78,539.28 L227.68,539.34 Z M223.38,548.24 L223.34,548.24 L223.32,548.28 L223.36,548.34 L223.44,548.36 L223.54,548.48 L223.64,548.52 L223.74,548.06 L223.38,548.24 Z M226.68,540.86 L226.68,541.22 L226.6,541.34 L226.6,541.44 L226.68,541.46 L226.82,541.4 L226.82,540.9 L226.68,540.86 Z M226.98,542.08 L226.96,542.12 L227.46,542.12 L227.44,542.04 L227.3,542.02 L227.18,541.9 L227.02,541.86 L226.92,541.9 L226.98,541.96 L226.98,542.08 Z M228.12,538.84 L228.08,538.86 L228.08,538.96 L228.12,539.02 L228.26,539.06 L228.4,538.98 L228.4,538.86 L228.2,538.82 L228.12,538.84 Z M226.7,543.48 L226.72,543.52 L226.64,543.64 L226.64,543.7 L226.72,543.7 L226.82,543.6 L226.82,543.42 L226.72,543.3 L226.64,543.3 L226.6,543.36 L226.7,543.48 Z M225.5,545.84 L225.5,545.88 L225.54,545.88 L225.64,545.98 L225.68,545.98 L225.78,545.74 L225.64,545.7 L225.56,545.74 L225.5,545.84 Z M224.74,547.72 L224.78,547.74 L224.82,547.56 L224.96,547.5 L225.06,547.38 L224.92,547.36 L224.78,547.48 L224.72,547.64 L224.74,547.72 Z M223.88,547.92 L223.92,547.96 L224,547.96 L224.08,547.9 L224.08,547.74 L224.02,547.7 L223.9,547.82 L223.88,547.92 Z M227.38,541.94 L227.5,541.94 L227.5,541.78 L227.46,541.72 L227.32,541.72 L227.34,541.9 L227.38,541.94 Z M226.5,542.88 L226.5,542.94 L226.66,542.9 L226.78,542.8 L226.64,542.72 L226.52,542.8 L226.5,542.88 Z M226.54,541.82 L226.54,541.86 L226.68,541.98 L226.72,541.92 L226.64,541.82 L226.66,541.74 L226.74,541.72 L226.78,541.62 L226.62,541.68 L226.54,541.82 Z M222.9,550.94 L222.88,550.96 L222.88,551.02 L222.96,551.04 L223.16,550.96 L223.16,550.92 L223.06,550.9 L222.9,550.94 Z M223.36,549.56 L223.34,549.6 L223.48,549.64 L223.56,549.6 L223.56,549.5 L223.48,549.46 L223.36,549.56 Z M226.32,543.02 L226.28,543.04 L226.28,543.12 L226.34,543.16 L226.46,543.16 L226.44,543.02 L226.32,542.98 L226.32,543.02 Z M225.42,546.36 L225.46,546.38 L225.56,546.26 L225.56,546.16 L225.4,546.22 L225.38,546.28 L225.42,546.36 Z M228.18,538.56 L228.18,538.6 L228.32,538.66 L228.36,538.64 L228.34,538.54 L228.28,538.5 L228.18,538.56 Z M226.32,541.4 L226.32,541.44 L226.46,541.44 L226.46,541.3 L226.36,541.3 L226.32,541.4 Z M224.9,546.48 L225,546.48 L225,546.4 L224.92,546.34 L224.88,546.42 L224.9,546.48 Z M227.8,541.4 L227.82,541.36 L227.76,541.34 L227.72,541.2 L227.68,541.18 L227.68,541.28 L227.76,541.4 L227.8,541.4 Z M228.14,538.04 L228.14,538 L228.02,537.96 L228,538.04 L228.06,538.08 L228.14,538.04 Z M226.46,540.94 L226.46,541.04 L226.6,541.04 L226.58,540.98 L226.46,540.94 Z M225.96,546.78 L225.96,546.88 L226.06,546.88 L226.06,546.78 L225.96,546.78 Z M226.6,542.54 L226.6,542.66 L226.68,542.66 L226.68,542.54 L226.6,542.54 Z M227.4,540.64 L227.36,540.72 L227.46,540.76 L227.5,540.68 L227.4,540.64 Z M227.92,538.76 L227.96,538.78 L228,538.72 L227.98,538.66 L227.9,538.64 L227.92,538.76 Z M235.52,537.06 L235.54,537.12 L235.9,537.12 L236.36,536.84 L236.54,536.8 L236.62,536.68 L237.2,536.52 L237.56,536.46 L237.88,536.36 L238.18,536.34 L238.8,536.54 L239.12,536.7 L239.38,536.88 L239.46,537.04 L239.52,537.08 L239.64,537.42 L239.74,538.06 L239.76,538.2 L239.6,538.82 L239.58,538.96 L239.52,539.02 L239.54,539.18 L239.42,539.4 L239.3,539.92 L239.26,539.92 L239.22,540.2 L239.18,540.2 L238.96,540.6 L238.66,541.06 L238.6,541.38 L238.2,541.86 L237.76,542.42 L237.68,542.5 L237.58,542.5 L237.34,542.7 L236.94,542.9 L236.78,543.02 L236.64,543.04 L236.54,543.14 L235.96,543.28 L235.82,543.4 L235.68,543.46 L235.62,543.6 L235.56,543.64 L235.54,543.8 L235.5,543.86 L235.6,544.46 L235.72,545.04 L235.78,545.08 L235.8,545.2 L235.86,545.26 L235.9,545.4 L236.18,545.68 L236.26,545.68 L236.26,545.72 L236.9,545.68 L236.94,545.62 L237.52,545.5 L237.62,545.4 L237.76,545.36 L238,545.12 L238.48,544.78 L238.62,544.62 L238.72,544.62 L238.72,544.58 L238.98,544.42 L239.44,543.98 L239.5,543.92 L239.52,543.82 L239.64,543.74 L239.72,543.58 L239.8,543.54 L239.8,543.46 L239.98,543.3 L240.02,543.18 L240.24,543.06 L240.28,542.94 L240.4,542.84 L240.54,542.56 L240.74,542.32 L241.06,541.78 L241.1,541.68 L241.24,541.56 L241.38,541.5 L241.7,541.52 L242.02,541.74 L242.02,541.82 L242.12,541.92 L242.16,542.06 L242.14,542.22 L242,542.52 L241.94,542.58 L241.9,542.7 L241.8,542.82 L241.8,542.88 L241.42,543.42 L241.04,543.94 L240.58,544.38 L240.48,544.44 L240.44,544.58 L240.38,544.62 L240.38,544.66 L240.26,544.78 L240.26,544.84 L240.04,545.08 L239.5,545.48 L239.04,545.9 L238.52,546.32 L238.28,546.52 L238.08,546.58 L238.02,546.64 L237.72,546.76 L237.58,546.78 L237.36,546.98 L237.08,547.08 L236.48,547.22 L235.84,547.3 L235.68,547.3 L235.68,547.26 L235.5,547.26 L235.5,547.22 L235.34,547.22 L234.82,547.04 L234.78,546.98 L234.6,546.9 L234.36,546.68 L234.04,546.22 L233.82,545.98 L233.82,545.9 L233.78,545.9 L233.78,545.8 L233.74,545.8 L233.74,545.72 L233.68,545.72 L233.68,545.62 L233.64,545.62 L233.54,545.3 L233.48,544.94 L233.4,544.7 L233.34,544.02 L233.38,543.28 L233.46,542.88 L233.6,542.64 L233.78,542.46 L233.82,542.36 L234.04,542.28 L234.76,542.24 L235.02,542.18 L235.62,541.84 L235.86,541.62 L236,541.56 L236.06,541.4 L236.3,541.2 L236.32,541.1 L236.4,541.06 L236.54,540.78 L236.64,540.68 L236.8,540.06 L236.92,539.86 L236.94,539.7 L237.04,539.6 L237.1,538.98 L237.1,538.82 L236.9,538.48 L236.82,538.48 L236.64,538.4 L236.16,538.44 L236.14,538.48 L235.86,538.56 L235.3,538.92 L234.78,539.28 L234.42,539.6 L234.26,539.86 L234.22,540.02 L234.12,540.16 L233.9,540.76 L233.62,541.36 L233.5,541.64 L233.4,541.78 L233.4,542 L233.34,542.06 L233.3,542.22 L233.24,542.28 L233.18,542.5 L233.14,542.52 L233.06,542.8 L233.06,542.96 L232.98,542.98 L232.88,543.28 L232.78,543.36 L232.6,543.96 L232.56,544.18 L232.5,544.18 L232.44,544.5 L232.28,544.76 L232.06,545.36 L232.02,545.54 L231.96,545.54 L231.94,545.66 L231.76,545.98 L231.58,546.56 L231.56,546.62 L231.46,546.66 L231.44,546.78 L231.24,546.9 L231.2,546.98 L230.58,547.08 L229.96,547.06 L229.62,547.08 L229.36,546.96 L229.16,546.8 L229.16,546.48 L229.38,545.9 L229.58,545.34 L229.62,545.16 L229.7,545.04 L229.7,544.94 L229.8,544.9 L229.8,544.82 L229.84,544.82 L229.84,544.72 L229.88,544.72 L229.88,544.62 L229.92,544.62 L229.92,544.54 L229.98,544.54 L230.06,544.26 L230.3,543.66 L230.36,543.34 L230.6,542.78 L230.6,542.72 L230.68,542.62 L230.76,542.36 L230.82,542.3 L231,541.9 L231.02,541.78 L231.06,541.78 L231.14,541.48 L231.26,541.22 L231.28,541.1 L231.34,541.1 L231.34,541 L231.38,541 L231.38,540.92 L231.42,540.92 L231.42,540.82 L231.46,540.82 L231.46,540.74 L231.52,540.74 L231.52,540.64 L231.56,540.64 L231.56,540.56 L231.6,540.56 L231.78,539.96 L231.8,539.82 L231.9,539.68 L232.12,539.22 L232.14,539.1 L232.3,538.86 L232.5,538.24 L232.5,538.16 L232.6,538.06 L232.6,537.92 L232.7,537.84 L232.7,537.7 L232.8,537.56 L232.82,537.34 L232.88,537.3 L232.88,537.24 L232.98,537.12 L233,536.88 L233.06,536.84 L233.12,536.6 L233.24,536.48 L233.28,536.2 L233.5,535.62 L233.74,535.02 L233.94,534.64 L233.98,534.46 L234.04,534.4 L234.04,534.3 L234.1,534.3 L234.14,534.06 L234.28,533.78 L234.32,533.58 L234.38,533.5 L234.38,533.42 L234.68,532.9 L234.82,532.76 L234.96,532.68 L235.2,532.64 L235.9,532.64 L236.4,532.58 L236.58,532.6 L236.86,532.78 L236.94,532.9 L236.96,533.2 L236.82,533.68 L236.7,533.8 L236.64,534.04 L236.6,534.04 L236.56,534.2 L236.5,534.26 L236.32,534.86 L236.12,535.38 L236.02,535.5 L235.96,535.76 L235.8,536.04 L235.78,536.2 L235.68,536.3 L235.52,536.84 L235.52,537.06 Z M237.84,539.94 L237.86,539.96 L238.12,539.98 L238.18,540.06 L238.08,540.24 L237.78,540.2 L237.72,540.24 L237.72,540.34 L237.84,540.42 L237.86,540.5 L237.52,540.78 L237.44,541.06 L237.56,541.06 L237.62,541 L237.72,541 L237.94,540.74 L238.1,540.78 L238.24,540.72 L238.26,540.62 L238.04,540.48 L238.06,540.38 L238.12,540.32 L238.36,540.36 L238.5,540.24 L238.46,540.14 L238.36,540.06 L238.36,539.96 L238.2,539.9 L238.12,539.78 L237.94,539.78 L237.94,539.7 L237.8,539.64 L237.8,539.82 L237.84,539.94 Z M238.72,539.2 L238.54,539.2 L238.52,539.12 L238.26,538.88 L238.1,538.9 L238.08,538.98 L238.22,539.14 L238.22,539.34 L238.3,539.56 L238.62,539.56 L238.72,539.2 Z M238.64,538.16 L238.66,538.2 L238.36,538.38 L238.4,538.4 L238.44,538.52 L238.3,538.6 L238.22,538.7 L238.38,538.66 L238.5,538.7 L238.56,538.68 L238.62,538.6 L238.72,538.66 L238.9,538.48 L238.88,538.14 L238.82,538.04 L238.66,538.02 L238.64,538.16 Z M233.88,538.32 L233.86,538.34 L233.86,538.42 L233.72,538.58 L233.82,538.92 L234.08,538.9 L234.08,538.74 L233.92,538.56 L234.2,538.42 L234.28,538.24 L234.12,538.2 L233.88,538.32 Z M234.04,537.12 L234.04,537.16 L233.88,537.22 L233.8,537.32 L233.78,537.42 L233.88,537.52 L233.94,537.5 L233.96,537.38 L234.04,537.34 L234.04,537.24 L234.18,537.16 L234.16,537.06 L234.1,537.02 L234.04,537.12 Z M237.88,538.26 L237.9,538.24 L237.88,538.06 L237.78,537.98 L237.68,537.98 L237.64,538.02 L237.66,538.16 L237.8,538.26 L237.88,538.26 Z M238.54,537.62 L238.54,537.66 L238.6,537.78 L238.6,537.86 L238.72,537.88 L238.72,537.74 L238.8,537.66 L238.78,537.58 L238.6,537.58 L238.54,537.62 Z M233.74,538 L233.78,538.02 L233.9,537.92 L233.92,537.8 L233.64,537.74 L233.64,537.84 L233.74,538 Z M232.52,542.24 L232.5,542.28 L232.56,542.32 L232.6,542.42 L232.7,542.42 L232.74,542.22 L232.58,542.18 L232.52,542.24 Z M233.94,543.62 L233.92,543.64 L234.04,543.84 L234.14,543.86 L234.14,543.76 L234.04,543.64 L233.94,543.62 Z M234.94,543.98 L234.92,544 L234.98,544.16 L235.04,544.22 L235.1,544.18 L235.04,544.14 L235.1,544 L235.04,543.96 L234.94,543.98 Z M234.72,543.62 L234.68,543.64 L234.68,543.72 L234.74,543.76 L234.86,543.76 L234.84,543.62 L234.72,543.58 L234.72,543.62 Z M237.76,539.06 L237.72,539.1 L237.74,539.2 L237.88,539.24 L237.94,539.14 L237.76,539.06 Z M234.82,543.4 L234.86,543.4 L234.92,543.28 L234.92,543.18 L234.82,543.2 L234.76,543.3 L234.82,543.4 Z M238.32,537.68 L238.36,537.7 L238.4,537.52 L238.26,537.48 L238.22,537.54 L238.32,537.68 Z M234.24,536.52 L234.24,536.62 L234.42,536.62 L234.4,536.52 L234.34,536.48 L234.24,536.52 Z M233.46,538.84 L233.46,538.92 L233.58,538.9 L233.64,538.84 L233.56,538.74 L233.46,538.84 Z M234.48,545.26 L234.46,545.3 L234.64,545.42 L234.68,545.4 L234.6,545.26 L234.48,545.26 Z M237.34,541.18 L237.4,541.18 L237.42,541.1 L237.32,541 L237.28,541.14 L237.34,541.18 Z M234.42,537.12 L234.42,537.2 L234.64,537.2 L234.5,537.12 L234.42,537.12 Z M233.12,539.74 L233.18,539.74 L233.18,539.64 L233.12,539.6 L233.06,539.66 L233.12,539.74 Z M235.3,534.9 L235.36,534.9 L235.36,534.8 L235.3,534.76 L235.24,534.82 L235.3,534.9 Z M234.32,543.9 L234.32,544.04 L234.4,544.04 L234.4,543.9 L234.32,543.9 Z M234.28,543.78 L234.28,543.82 L234.36,543.82 L234.4,543.74 L234.32,543.68 L234.28,543.78 Z M238.3,540.46 L238.3,540.56 L238.4,540.56 L238.4,540.46 L238.3,540.46 Z M235.1,544.5 L235.1,544.62 L235.18,544.62 L235.18,544.5 L235.1,544.5 Z M234.86,544.82 L234.86,544.9 L235,544.9 L234.98,544.84 L234.86,544.82 Z M235.32,545.44 L235.32,545.54 L235.4,545.54 L235.4,545.44 L235.32,545.44 Z M234.64,545.04 L234.64,545.12 L234.72,545.12 L234.72,545.04 L234.64,545.04 Z M249.9,532.84 L249.94,532.86 L249.9,533.2 L249.68,533.74 L249.46,534.06 L249.44,534.18 L249.34,534.32 L249.26,534.36 L249.26,534.46 L249.2,534.46 L249.2,534.54 L249.16,534.54 L249,535.16 L248.84,535.6 L248.64,535.9 L248.4,536.5 L248.32,536.74 L248.2,536.84 L248.12,537.08 L248.02,537.16 L247.94,537.44 L247.72,537.94 L247.62,538.02 L247.54,538.34 L247.48,538.34 L247.46,538.58 L247.28,538.82 L247.02,539.36 L246.98,539.52 L246.88,539.66 L246.86,539.8 L246.74,539.92 L246.68,540.16 L246.62,540.2 L246.4,540.78 L246.22,541.06 L246.02,541.62 L245.76,541.96 L245.62,542.42 L245.5,542.64 L245.4,542.74 L245.32,542.74 L245.32,542.78 L244.76,542.9 L244.54,542.88 L244.5,542.82 L244.36,542.82 L244.02,542.48 L244.02,542.22 L244.3,541.62 L244.46,541.06 L244.54,540.88 L244.58,540.6 L244.64,540.56 L244.68,540.34 L244.78,540.2 L244.88,539.94 L244.92,539.66 L245,539.56 L245.04,539.26 L245.26,538.7 L245.5,538.08 L245.56,537.84 L245.68,537.72 L245.8,537.12 L245.92,536.76 L246.16,536.16 L246.18,535.94 L246.22,535.94 L246.22,535.78 L246.42,535.2 L246.44,535.08 L246.56,534.96 L246.62,534.64 L246.68,534.58 L246.7,534.38 L246.84,534.08 L246.9,533.86 L247,533.74 L247.04,533.44 L247.2,533.02 L247.54,532.68 L247.8,532.64 L248.5,532.64 L248.8,532.6 L249.12,532.64 L249.44,532.62 L249.76,532.68 L249.8,532.76 L249.9,532.84 Z M243.28,544.06 L243.32,544.06 L243.36,544 L243.68,544 L244.08,544.14 L244.4,544.24 L244.54,544.34 L244.64,544.36 L244.72,544.5 L244.86,544.6 L245.08,545.08 L245.16,545.22 L245.22,545.54 L245.18,546.14 L245.14,546.28 L245.06,546.3 L245.04,546.4 L245,546.4 L245,546.5 L244.94,546.5 L244.88,546.64 L244.54,546.94 L244.46,546.94 L244.36,547.04 L244.16,547.1 L244.1,547.16 L243.86,547.24 L243.54,547.28 L243.18,547.26 L242.82,547.14 L242.78,547.14 L242.74,547.04 L242.62,547.02 L242.16,546.56 L242.02,546.3 L241.92,545.68 L242,545.04 L242.06,545.04 L242.08,544.8 L242.5,544.34 L242.78,544.18 L243,544.1 L243.28,544.06 Z M247.44,535.4 L247.4,535.4 L247.34,535.54 L247.34,535.68 L247.48,535.76 L247.54,535.92 L247.64,536.02 L247.84,536.08 L247.84,535.98 L247.66,535.76 L247.66,535.62 L247.6,535.6 L247.5,535.66 L247.48,535.62 L247.56,535.5 L247.44,535.4 Z M243.54,546.04 L243.54,546.08 L243.6,546.12 L243.76,546.1 L243.76,545.94 L243.64,545.92 L243.54,546.04 Z M247.78,534.44 L247.8,534.46 L247.9,534.44 L247.98,534.32 L247.8,534.22 L247.76,534.28 L247.78,534.44 Z M243.32,545.4 L243.32,545.54 L243.4,545.54 L243.46,545.46 L243.32,545.4 Z" id="mijn-lijst-copy-4"></path>
        </g>
    </g>
</svg>