<?xml version="1.0" encoding="UTF-8"?>
<svg width="258px" height="330px" viewBox="0 0 258 330" version="1.1" xmlns="http://www.w3.org/2000/svg" xmlns:xlink="http://www.w3.org/1999/xlink">
    <!-- Generator: Sketch 47.1 (45422) - http://www.bohemiancoding.com/sketch -->
    <title>graphic-klaar</title>
    <desc>Created with Sketch.</desc>
    <defs></defs>
    <g id="Page-1" stroke="none" stroke-width="1" fill="none" fill-rule="evenodd">
        <g id="klaar" transform="translate(-60.000000, -44.000000)" fill="#3B9FE2">
            <g id="graphic-klaar" transform="translate(50.000000, 40.000000)">
                <path d="M215.171875,272.796875 L215.171875,252.671875 L234.039062,252.671875 L249.132812,272.796875 L215.171875,272.796875 Z M265.884359,279.903516 C267.260406,281.825453 268,284.129766 268,286.494453 L268,301.726563 C268,307.977891 262.931016,313.046875 256.679687,313.046875 L252.398094,313.046875 C250.061078,301.578141 239.897953,292.921875 227.75,292.921875 C215.602047,292.921875 205.438922,301.578141 203.101906,313.046875 L198.820312,313.046875 L196.304687,313.046875 L171.898094,313.046875 C169.561078,301.578141 159.397953,292.921875 147.25,292.921875 C135.102047,292.921875 124.938922,301.578141 122.601906,313.046875 L118.320312,313.046875 C112.068984,313.046875 107,307.977891 107,301.726563 L107,236.320312 C107,230.068984 112.068984,225 118.320312,225 L198.820312,225 C205.071641,225 210.140625,230.068984 210.140625,236.320312 L210.140625,242.609375 L233.364875,242.609375 C237.015047,242.609375 240.443844,244.370313 242.569547,247.33875 L265.884359,279.903516 Z M151.738378,303.662336 C156.279081,305.076117 159.886488,308.582898 161.4663,313.045617 C162.024769,314.622914 162.344253,316.310898 162.344253,318.076867 C162.344253,324.851445 157.881534,330.582039 151.738378,332.493914 C150.322081,332.934148 148.812706,333.170617 147.250503,333.170617 C145.685784,333.170617 144.178925,332.934148 142.762628,332.493914 C136.616956,330.582039 132.156753,324.851445 132.156753,318.076867 C132.156753,316.310898 132.476238,314.622914 133.032191,313.045617 C134.614519,308.582898 138.219409,305.076117 142.762628,303.662336 C144.178925,303.222102 145.685784,302.983117 147.250503,302.983117 C148.812706,302.983117 150.322081,303.222102 151.738378,303.662336 Z M232.238378,303.662336 C236.779081,305.076117 240.386488,308.582898 241.9663,313.045617 C242.524769,314.622914 242.844253,316.310898 242.844253,318.076867 C242.844253,324.851445 238.381534,330.582039 232.238378,332.493914 C230.822081,332.934148 229.312706,333.170617 227.750503,333.170617 C226.185784,333.170617 224.678925,332.934148 223.262628,332.493914 C217.116956,330.582039 212.656753,324.851445 212.656753,318.076867 C212.656753,316.310898 212.976238,314.622914 213.532191,313.045617 C215.114519,308.582898 218.719409,305.076117 223.262628,303.662336 C224.678925,303.222102 226.185784,302.983117 227.750503,302.983117 C229.312706,302.983117 230.822081,303.222102 232.238378,303.662336 Z" id="Fill-1"></path>
                <g id="carrot" transform="translate(64.913617, 234.053112) rotate(-100.000000) translate(-64.913617, -234.053112) translate(41.413617, 223.053112)" fill-rule="nonzero">
                    <path d="M34.6982715,1.51766263 C35.7064796,1.0896278 35.8432646,1.53859912 36.2815351,2.13598686 C37.0557198,1.71818765 36.4950873,1.36552417 37.2460092,0.800704289 C37.9955354,0.2391412 38.9576833,0.766740656 39.396419,2.25788374 C39.8342242,3.74856157 40.2608633,3.17397133 40.7396109,2.40118236 C41.2146365,1.62746287 42.7178763,0.0930510505 43.2482672,0.437805193 C43.7786582,0.782559335 44.4765411,2.06852485 41.6263874,4.01282655 C41.6263874,4.01282655 40.4893036,4.68000258 41.2876816,5.85105005 C41.5491551,7.23006662 40.5949165,6.92346341 39.6146237,6.17998552 C38.6371224,5.43743813 37.6084431,4.627894 36.8421677,5.45697886 C36.073566,6.28234167 35.7972044,7.52085115 35.1891158,6.32979771 C35.0700104,6.09112176 36.4080845,5.33647774 36.1680128,4.24080163 C35.9288716,3.14372974 33.9492105,2.2853338 34.6982715,1.51766263 Z" id="Shape"></path>
                    <path d="M34.5037948,17.1800154 C30.6538076,22.0098302 14.8760714,21.46269 5.21085883,19.9208341 L0,19.0870967 L4.18869304,15.8786965 C4.36409427,15.746564 8.55232205,12.5423511 13.5017074,9.39303829 C22.9733739,3.36472599 26.5362986,3.03579052 28.3903408,3.3126174 C28.7392822,3.36705226 29.0854321,3.43684055 29.4185549,3.52337803 C32.3999105,4.29988904 34.6717519,6.42936233 35.6511142,9.36744925 C36.5727849,12.1422316 36.1363755,15.1375449 34.5037948,17.1800154 Z" id="Shape"></path>
                    <path d="M45.4819577,11.3010501 C43.4450702,11.1833405 43.9880231,11.6886077 44.0257088,12.5265324 C44.068047,13.3635266 41.6580248,14.286593 41.591028,12.5609613 C41.5221703,10.8395169 41.5896323,10.1839722 39.702557,9.09713595 C37.8140859,8.01309121 36.8426329,7.96703094 36.4578668,8.25083665 C36.0731007,8.53976016 35.8832766,8.28433502 35.8488477,7.81163569 C35.8488477,7.81163569 37.6037905,7.02488906 39.70814,7.88281974 C41.8073717,8.74400721 43.0612346,8.49974821 43.1412585,7.79721277 C43.2208172,7.09421209 45.0892823,5.66773948 44.906437,7.55853683 C44.5751752,8.43182094 44.1350438,8.93197034 45.1283637,9.29486943 C46.1165659,9.65916429 47.5183799,11.4178291 45.4819577,11.3010501 Z" id="Shape"></path>
                </g>
                <g id="carrot-copy" transform="translate(184.913617, 74.053112) rotate(-46.000000) translate(-184.913617, -74.053112) translate(161.413617, 63.053112)" fill-rule="nonzero">
                    <path d="M34.6982715,1.51766263 C35.7064796,1.0896278 35.8432646,1.53859912 36.2815351,2.13598686 C37.0557198,1.71818765 36.4950873,1.36552417 37.2460092,0.800704289 C37.9955354,0.2391412 38.9576833,0.766740656 39.396419,2.25788374 C39.8342242,3.74856157 40.2608633,3.17397133 40.7396109,2.40118236 C41.2146365,1.62746287 42.7178763,0.0930510505 43.2482672,0.437805193 C43.7786582,0.782559335 44.4765411,2.06852485 41.6263874,4.01282655 C41.6263874,4.01282655 40.4893036,4.68000258 41.2876816,5.85105005 C41.5491551,7.23006662 40.5949165,6.92346341 39.6146237,6.17998552 C38.6371224,5.43743813 37.6084431,4.627894 36.8421677,5.45697886 C36.073566,6.28234167 35.7972044,7.52085115 35.1891158,6.32979771 C35.0700104,6.09112176 36.4080845,5.33647774 36.1680128,4.24080163 C35.9288716,3.14372974 33.9492105,2.2853338 34.6982715,1.51766263 Z" id="Shape"></path>
                    <path d="M34.5037948,17.1800154 C30.6538076,22.0098302 14.8760714,21.46269 5.21085883,19.9208341 L0,19.0870967 L4.18869304,15.8786965 C4.36409427,15.746564 8.55232205,12.5423511 13.5017074,9.39303829 C22.9733739,3.36472599 26.5362986,3.03579052 28.3903408,3.3126174 C28.7392822,3.36705226 29.0854321,3.43684055 29.4185549,3.52337803 C32.3999105,4.29988904 34.6717519,6.42936233 35.6511142,9.36744925 C36.5727849,12.1422316 36.1363755,15.1375449 34.5037948,17.1800154 Z" id="Shape"></path>
                    <path d="M45.4819577,11.3010501 C43.4450702,11.1833405 43.9880231,11.6886077 44.0257088,12.5265324 C44.068047,13.3635266 41.6580248,14.286593 41.591028,12.5609613 C41.5221703,10.8395169 41.5896323,10.1839722 39.702557,9.09713595 C37.8140859,8.01309121 36.8426329,7.96703094 36.4578668,8.25083665 C36.0731007,8.53976016 35.8832766,8.28433502 35.8488477,7.81163569 C35.8488477,7.81163569 37.6037905,7.02488906 39.70814,7.88281974 C41.8073717,8.74400721 43.0612346,8.49974821 43.1412585,7.79721277 C43.2208172,7.09421209 45.0892823,5.66773948 44.906437,7.55853683 C44.5751752,8.43182094 44.1350438,8.93197034 45.1283637,9.29486943 C46.1165659,9.65916429 47.5183799,11.4178291 45.4819577,11.3010501 Z" id="Shape"></path>
                </g>
                <g id="grapes" transform="translate(68.000000, 193.000000)" fill-rule="nonzero">
                    <path d="M33,17.8790976 C33,20.1984491 31.2897033,22.1230173 29.0418848,22.4191047 C28.8464223,22.4684526 28.6509599,22.4684526 28.4554974,22.4684526 C26.9406632,22.4684526 25.6212914,21.7282341 24.7905759,20.5438844 C24.8883072,20.3464928 24.9860384,20.0997533 25.034904,19.9023616 C25.2303665,19.2608389 25.3769634,18.5699683 25.3769634,17.8790976 C25.3769634,16.9414875 25.1815009,16.0038773 24.7905759,15.164963 C25.6212914,14.0299612 26.9406632,13.2403948 28.4554974,13.2403948 C30.9965096,13.2897427 33,15.3623546 33,17.8790976 Z M23.7155323,22.2217131 C22.7870855,23.258019 21.565445,23.9982376 20.1483421,24.2449771 C20.3438045,24.8864998 20.4904014,25.5773705 20.4904014,26.2682411 C20.4904014,26.8604159 20.3926702,27.4525908 20.2460733,27.9954177 C20.1972077,28.1928093 20.0994764,28.4395488 20.0506108,28.6369404 C20.8324607,29.9693338 22.2984293,30.8575961 23.9598604,30.8575961 C24.1064572,30.8575961 24.2530541,30.8575961 24.3507853,30.8575961 C26.6474695,30.6602044 28.504363,28.6862883 28.504363,26.2682411 C28.504363,25.5773705 28.3577661,24.9358477 28.0645724,24.3436729 C26.3542757,24.2449771 24.7905759,23.4554106 23.7155323,22.2217131 Z M13.1605585,20.6425802 C13.0628272,20.3958407 12.965096,20.1491012 12.8673647,19.9023616 C12.6719023,19.2608389 12.5253054,18.5699683 12.5253054,17.8790976 C12.5253054,16.8921396 12.7696335,15.9545294 13.1605585,15.1156151 C12.3298429,14.0299612 11.0104712,13.2897427 9.54450262,13.2897427 C7.05235602,13.2897427 5,15.3623546 5,17.8790976 C5,20.1984491 6.71029668,22.1230173 8.95811518,22.4191047 C9.15357766,22.4684526 9.34904014,22.4684526 9.54450262,22.4684526 C11.0104712,22.4684526 12.3298429,21.7282341 13.1605585,20.6425802 Z M17.9493892,28.6369404 C18.095986,28.3902009 18.1937173,28.1434614 18.2914485,27.8967219 C18.486911,27.4032429 18.5846422,26.8604159 18.5846422,26.2682411 C18.5846422,25.5773705 18.4380454,24.8864998 18.1448517,24.294325 C18.0471204,24.294325 17.9005236,24.2449771 17.8027923,24.2449771 C16.3856894,23.9982376 15.1640489,23.258019 14.2356021,22.271061 C13.1605585,23.4554106 11.6457243,24.2449771 9.93542757,24.3436729 C9.64223386,24.9358477 9.495637,25.5773705 9.495637,26.2682411 C9.495637,28.6369404 11.2547993,30.5615086 13.5514834,30.8082481 C13.6980803,30.8082481 13.8935428,30.8575961 14.0401396,30.8575961 C15.7015707,30.8575961 17.1675393,29.9693338 17.9493892,28.6369404 Z M18.9755672,30.4628128 C17.9493892,31.7458583 16.3856894,32.5847726 14.6753927,32.7821643 C14.4799302,33.2756433 14.382199,33.8184702 14.382199,34.410645 C14.382199,36.9273881 16.434555,39 18.9267016,39 C21.4188482,39 23.4712042,36.9273881 23.4712042,34.410645 C23.4712042,33.8184702 23.3734729,33.2756433 23.1780105,32.7821643 C21.5165794,32.5354247 20.0506108,31.6965104 18.9755672,30.4628128 Z M17.9005236,11.0690871 C17.8027923,12.0560451 17.8516579,12.8949595 17.8516579,13.4377864 C16.8254799,13.6845259 15.9458988,14.3260486 15.3106457,15.1156151 C14.7242583,15.9051815 14.382199,16.8427917 14.382199,17.8790976 C14.382199,18.5699683 14.5287958,19.2608389 14.8219895,19.8530137 C14.9685864,20.1491012 15.1151832,20.3958407 15.3106457,20.6425802 C16.0924956,21.6788861 17.3141361,22.4191047 18.7312391,22.4684526 C18.7801047,22.4684526 18.877836,22.4684526 18.9267016,22.4684526 C19.0244328,22.4684526 19.122164,22.4684526 19.2198953,22.4684526 C20.6369983,22.3697568 21.8586387,21.6788861 22.591623,20.5932323 C22.7382199,20.3958407 22.8848168,20.1491012 22.982548,19.9023616 C23.2757417,19.3101868 23.4223386,18.6193162 23.4223386,17.9284455 C23.4223386,16.9414875 23.0802792,16.0038773 22.5427574,15.2143109 C21.95637,14.3753965 21.0767888,13.7338738 20.0506108,13.4871343 C19.9528796,12.4014804 19.8551483,8.20690871 22.1518325,6.03560099 C22.5427574,5.64081777 22.6404887,5.04864293 22.3961606,4.60451181 C22.0541012,3.91364117 21.2233857,3.81494536 20.6858639,4.30842439 C19.5619546,5.34473035 18.877836,6.67712372 18.486911,8.0095171 C16.2390925,3.17342263 9.7399651,5.73951357 9.7399651,5.73951357 C11.8411867,12.3521325 15.8970332,11.8093056 17.9005236,11.0690871 Z" id="Shape" transform="translate(19.000000, 21.500000) rotate(-17.000000) translate(-19.000000, -21.500000) "></path>
                </g>
                <g id="noun_1062122_cc" transform="translate(28.000000, 171.000000)" fill-rule="nonzero">
                    <path d="M31.6413043,7.17073171 L4.35869565,7.17073171 C4.35869565,6.89634146 4.41304348,6.56707317 4.63043478,6.29268293 L6.9673913,3.43902439 C7.18478261,3.16463415 7.51086957,3 7.89130435,3 L28.0543478,3 C28.3804348,3 28.7065217,3.16463415 28.9782609,3.43902439 L31.3152174,6.29268293 C31.5869565,6.56707317 31.6413043,6.89634146 31.6413043,7.17073171 Z M33,9.47560976 L33,28.7926829 C33,29.4512195 32.4565217,30 31.8043478,30 L4.19565217,30 C3.54347826,30 3,29.4512195 3,28.7926829 L3,9.47560976 C3,8.81707317 3.54347826,8.26829268 4.19565217,8.26829268 L31.8043478,8.26829268 C32.4565217,8.26829268 33,8.81707317 33,9.47560976 Z M24.4673913,13.2073171 C24.4673913,12.4390244 23.8695652,11.8353659 23.1086957,11.8353659 L12.8913043,11.8353659 C12.1304348,11.8353659 11.5326087,12.4390244 11.5326087,13.2073171 C11.5326087,13.9756098 12.1304348,14.5792683 12.8913043,14.5792683 L23.1086957,14.5792683 C23.8695652,14.5792683 24.4673913,13.9756098 24.4673913,13.2073171 Z" id="Shape" transform="translate(18.000000, 16.500000) rotate(-10.000000) translate(-18.000000, -16.500000) "></path>
                </g>
                <g id="rice" transform="translate(13.000000, 122.000000)" fill-rule="nonzero">
                    <path d="M41.5355299,20 C42.5478749,21.6953694 43.6794764,23.1991924 43.863701,25.2256238 C44.1231283,28.077178 44.0501505,30.9011053 43.3119173,33.6674766 C43.0547149,34.6325755 42.8237667,35.9190671 41.6530064,35.9959619 C40.2975765,36.0848284 40.0590635,34.6878293 39.7845066,33.6891177 C38.7565871,29.9512012 38.7374526,26.1741466 39.7351131,22.4210353 C39.9776309,21.5075066 40.2713222,20.5474726 41.5355299,20 Z" id="Shape"></path>
                    <path d="M35.2482507,26 C36.2230146,27.2184696 36.0467861,28.2551706 35.8315487,29.2026571 C34.9265419,33.1834364 33.1339677,36.6928578 30.3886581,39.6388444 C29.6832852,40.3954978 28.8296784,41.4007113 27.7530324,40.8339369 C26.6300347,40.2428313 27.0403167,38.9055681 27.2417862,37.9151441 C27.9164109,34.5965558 29.3110943,31.5575381 31.3794845,28.9722261 C32.3583787,27.7480315 33.8976245,27.0080761 35.2482507,26 Z" id="Shape"></path>
                    <path d="M14.4952879,2 C14.8869241,4.41126298 15.4522899,6.65982584 14.3860865,8.90320116 C13.6162161,10.5231285 12.8736461,12.1595616 12.0049981,13.7313863 C11.5597539,14.5368698 10.9194362,15.2659549 10.2652201,15.9403352 C9.66759027,16.5567093 8.94735695,17.2999423 7.95908366,16.874564 C7.00605266,16.4642767 6.94996281,15.4498768 7.02193651,14.6193988 C7.40215617,10.2307398 8.96621902,6.27217511 12.0496714,2.92904128 C12.7435971,2.17731955 12.7972051,2.22164944 14.4952879,2 Z" id="Shape"></path>
                    <path d="M29,9.6886615 C31.117523,9.43408291 33.0428942,8.61145556 35.202315,9.21891995 C37.8052743,9.95112322 40.3745227,10.7454641 42.6447078,12.2038423 C43.4152415,12.6986244 44.1279852,13.341331 44.6976986,14.0438566 C45.2664488,14.7449911 45.0078384,15.4280408 44.1303931,15.7391924 C43.576572,15.9358068 42.9423264,16.0123195 42.3480523,15.9984081 C38.0417318,15.8987097 34.145239,14.5697075 30.619084,12.2242457 C29.8471055,11.7109151 29.1218406,11.0974224 29,9.6886615 Z" id="Shape"></path>
                    <path d="M16.6953844,13 C17.7879599,13.6594241 17.9321532,14.5956085 17.973987,15.499316 C18.16936,19.7368569 17.2650368,23.7136405 15.23298,27.3741265 C14.7741428,28.2006423 14.2009301,29.2672054 13.123486,28.9391408 C12.0709642,28.618607 12.0972216,27.4169585 12.036251,26.4374713 C11.8364276,23.2330752 12.4812919,20.1694127 13.5124518,17.1876487 C14.1319487,15.3962369 15.6232809,14.3790953 16.6953844,13 Z" id="Shape"></path>
                    <path d="M25,34.2806518 C23.5883616,35.6595766 22.4101216,37.0416631 20.6376063,37.6351473 C17.8424498,38.5709914 14.9577771,39.1396342 11.9742148,38.9702608 C11.2674583,38.9300629 10.5335188,38.7873376 9.88112815,38.5294385 C8.88098331,38.134234 8.71601096,37.3524067 9.46963463,36.5759993 C9.95142887,36.0796225 10.551797,35.6451234 11.179348,35.3321215 C14.4352085,33.7065891 17.9216553,32.9559265 21.5805732,33.001996 C22.7480338,33.0159976 23.9211184,33.1600778 25,34.2806518 Z" id="Shape"></path>
                    <path d="M0.860524592,17 C2.65158413,18.1909614 4.24477085,19.3984257 5.02827622,21.5263868 C5.91382361,23.9312304 6.80158931,26.3241551 6.9338003,28.9196992 C6.99103257,30.0373142 7.27541928,31.5056165 5.98126009,31.930567 C4.83927662,32.3060086 4.13252462,31.0774572 3.55354699,30.1986762 C1.4545867,27.0122356 0.172850011,23.5071968 0.0233362471,19.6230489 C-0.00993832945,18.7584788 -0.135494398,17.8068099 0.860524592,17 Z" id="Shape"></path>
                    <path d="M23.416655,0 C24.5004105,1.63331012 25.6699947,3.19067387 25.8407629,5.30791059 C26.0657855,8.099866 26.1516143,10.8834858 25.4107294,13.6064412 C25.1341205,14.6229186 24.9744701,16.0381144 23.6372306,15.999215 C22.4845453,15.9658727 22.1919269,14.6738582 21.9135392,13.7083205 C20.8159978,9.90451855 20.6652415,6.05672331 21.6916295,2.20522336 C21.9357746,1.29155144 22.1799198,0.303322407 23.416655,0 Z" id="Shape"></path>
                    <path d="M34.9726876,19.5370168 C35.144562,20.9553957 34.4747976,21.5179123 33.81731,22.0023275 C30.3225314,24.5778172 26.4271674,25.9659782 22.0975705,25.9999151 C21.8447606,26.0017747 21.5883131,25.9729515 21.3395955,25.9250679 C19.9118561,25.650318 19.583567,24.726117 20.557067,23.5885316 C20.9694745,23.1069058 21.4828241,22.6936187 22.0084504,22.3384429 C24.5333666,20.6313675 27.3315539,19.5030798 30.2902482,19.0558558 C31.7839182,18.8299194 33.38626,19.3501311 34.9726876,19.5370168 Z" id="Shape"></path>
                </g>
                <g id="rice-copy" transform="translate(70.000000, 16.000000)" fill-rule="nonzero">
                    <path d="M41.5355299,20 C42.5478749,21.6953694 43.6794764,23.1991924 43.863701,25.2256238 C44.1231283,28.077178 44.0501505,30.9011053 43.3119173,33.6674766 C43.0547149,34.6325755 42.8237667,35.9190671 41.6530064,35.9959619 C40.2975765,36.0848284 40.0590635,34.6878293 39.7845066,33.6891177 C38.7565871,29.9512012 38.7374526,26.1741466 39.7351131,22.4210353 C39.9776309,21.5075066 40.2713222,20.5474726 41.5355299,20 Z" id="Shape"></path>
                    <path d="M35.2482507,26 C36.2230146,27.2184696 36.0467861,28.2551706 35.8315487,29.2026571 C34.9265419,33.1834364 33.1339677,36.6928578 30.3886581,39.6388444 C29.6832852,40.3954978 28.8296784,41.4007113 27.7530324,40.8339369 C26.6300347,40.2428313 27.0403167,38.9055681 27.2417862,37.9151441 C27.9164109,34.5965558 29.3110943,31.5575381 31.3794845,28.9722261 C32.3583787,27.7480315 33.8976245,27.0080761 35.2482507,26 Z" id="Shape"></path>
                    <path d="M14.4952879,2 C14.8869241,4.41126298 15.4522899,6.65982584 14.3860865,8.90320116 C13.6162161,10.5231285 12.8736461,12.1595616 12.0049981,13.7313863 C11.5597539,14.5368698 10.9194362,15.2659549 10.2652201,15.9403352 C9.66759027,16.5567093 8.94735695,17.2999423 7.95908366,16.874564 C7.00605266,16.4642767 6.94996281,15.4498768 7.02193651,14.6193988 C7.40215617,10.2307398 8.96621902,6.27217511 12.0496714,2.92904128 C12.7435971,2.17731955 12.7972051,2.22164944 14.4952879,2 Z" id="Shape"></path>
                    <path d="M29,9.6886615 C31.117523,9.43408291 33.0428942,8.61145556 35.202315,9.21891995 C37.8052743,9.95112322 40.3745227,10.7454641 42.6447078,12.2038423 C43.4152415,12.6986244 44.1279852,13.341331 44.6976986,14.0438566 C45.2664488,14.7449911 45.0078384,15.4280408 44.1303931,15.7391924 C43.576572,15.9358068 42.9423264,16.0123195 42.3480523,15.9984081 C38.0417318,15.8987097 34.145239,14.5697075 30.619084,12.2242457 C29.8471055,11.7109151 29.1218406,11.0974224 29,9.6886615 Z" id="Shape"></path>
                    <path d="M16.6953844,13 C17.7879599,13.6594241 17.9321532,14.5956085 17.973987,15.499316 C18.16936,19.7368569 17.2650368,23.7136405 15.23298,27.3741265 C14.7741428,28.2006423 14.2009301,29.2672054 13.123486,28.9391408 C12.0709642,28.618607 12.0972216,27.4169585 12.036251,26.4374713 C11.8364276,23.2330752 12.4812919,20.1694127 13.5124518,17.1876487 C14.1319487,15.3962369 15.6232809,14.3790953 16.6953844,13 Z" id="Shape"></path>
                    <path d="M25,34.2806518 C23.5883616,35.6595766 22.4101216,37.0416631 20.6376063,37.6351473 C17.8424498,38.5709914 14.9577771,39.1396342 11.9742148,38.9702608 C11.2674583,38.9300629 10.5335188,38.7873376 9.88112815,38.5294385 C8.88098331,38.134234 8.71601096,37.3524067 9.46963463,36.5759993 C9.95142887,36.0796225 10.551797,35.6451234 11.179348,35.3321215 C14.4352085,33.7065891 17.9216553,32.9559265 21.5805732,33.001996 C22.7480338,33.0159976 23.9211184,33.1600778 25,34.2806518 Z" id="Shape"></path>
                    <path d="M0.860524592,17 C2.65158413,18.1909614 4.24477085,19.3984257 5.02827622,21.5263868 C5.91382361,23.9312304 6.80158931,26.3241551 6.9338003,28.9196992 C6.99103257,30.0373142 7.27541928,31.5056165 5.98126009,31.930567 C4.83927662,32.3060086 4.13252462,31.0774572 3.55354699,30.1986762 C1.4545867,27.0122356 0.172850011,23.5071968 0.0233362471,19.6230489 C-0.00993832945,18.7584788 -0.135494398,17.8068099 0.860524592,17 Z" id="Shape"></path>
                    <path d="M23.416655,0 C24.5004105,1.63331012 25.6699947,3.19067387 25.8407629,5.30791059 C26.0657855,8.099866 26.1516143,10.8834858 25.4107294,13.6064412 C25.1341205,14.6229186 24.9744701,16.0381144 23.6372306,15.999215 C22.4845453,15.9658727 22.1919269,14.6738582 21.9135392,13.7083205 C20.8159978,9.90451855 20.6652415,6.05672331 21.6916295,2.20522336 C21.9357746,1.29155144 22.1799198,0.303322407 23.416655,0 Z" id="Shape"></path>
                    <path d="M34.9726876,19.5370168 C35.144562,20.9553957 34.4747976,21.5179123 33.81731,22.0023275 C30.3225314,24.5778172 26.4271674,25.9659782 22.0975705,25.9999151 C21.8447606,26.0017747 21.5883131,25.9729515 21.3395955,25.9250679 C19.9118561,25.650318 19.583567,24.726117 20.557067,23.5885316 C20.9694745,23.1069058 21.4828241,22.6936187 22.0084504,22.3384429 C24.5333666,20.6313675 27.3315539,19.5030798 30.2902482,19.0558558 C31.7839182,18.8299194 33.38626,19.3501311 34.9726876,19.5370168 Z" id="Shape"></path>
                </g>
                <g id="pasta" transform="translate(91.000000, 54.000000)" fill-rule="nonzero">
                    <path d="M9.49103004,118.491734 C9.26768841,118.718209 8.88321854,118.600496 8.88321854,118.600496 C5.01166512,116.739017 1.26946188,118.571851 0.916322498,118.678374 C-1.65412042,119.434334 1.9994623,120.719779 1.9994623,120.719779 L0.744452381,122.140841 L2.70663621,122.883821 L1.81774545,124.580143 L3.94687604,124.757384 L3.4455882,126.547698 L5.24306317,126.053124 L5.41940907,128.181807 L7.1161789,127.293811 L7.85960667,129.256443 L9.2802206,128.000985 C9.2802206,128.000985 10.5661134,131.655016 11.3229686,129.08502 C11.4285971,128.730986 13.2609832,124.988782 11.399952,121.117677 C11.399952,121.117677 11.2817913,120.732312 11.508266,120.509418 C11.7356359,120.286523 12.1174203,120.400208 12.1174203,120.400208 C15.9880785,122.262135 19.7298342,120.428853 20.0838687,120.32233 C22.6538641,119.56637 19.0007289,118.280925 19.0007289,118.280925 L20.2561864,116.859863 L18.293555,116.116435 L19.1815506,114.419665 L17.0528676,114.242872 L17.5537079,112.452558 L15.7571281,112.947132 L15.579887,110.818449 L13.8840123,111.706893 L13.1405846,109.744709 L11.7190755,110.999271 C11.7190755,110.999271 10.4331826,107.346136 9.67722267,109.916131 C9.570699,110.269718 7.73786534,114.011921 9.59934402,117.88258 C9.5997916,117.88258 9.71437168,118.264812 9.49103004,118.491734 Z" id="Shape"></path>
                    <path d="M23.49103,46.491734 C23.2676884,46.7182087 22.8832185,46.6004955 22.8832185,46.6004955 C19.0116651,44.7390168 15.2694619,46.5718505 14.9163225,46.6783742 C12.3458796,47.4343341 15.9994623,48.7197794 15.9994623,48.7197794 L14.7444524,50.1408409 L16.7066362,50.8838211 L15.8177455,52.5801433 L17.946876,52.7573844 L17.4455882,54.5476981 L19.2430632,54.053124 L19.4194091,56.181807 L21.1161789,55.2938114 L21.8596067,57.2564428 L23.2802206,56.0009853 C23.2802206,56.0009853 24.5661134,59.6550156 25.3229686,57.0850202 C25.4285971,56.7309857 27.2609832,52.9887825 25.399952,49.1176766 C25.399952,49.1176766 25.2817913,48.7323116 25.508266,48.5094175 C25.7356359,48.2865235 26.1174203,48.4002084 26.1174203,48.4002084 C29.9880785,50.2621347 33.7298342,48.4288534 34.0838687,48.3223298 C36.6538641,47.5663698 33.0007289,46.2809245 33.0007289,46.2809245 L34.2561864,44.859863 L32.293555,44.1164353 L33.1815506,42.4196654 L31.0528676,42.2428719 L31.5537079,40.4525582 L29.7571281,40.9471324 L29.579887,38.8184494 L27.8840123,39.7068926 L27.1405846,37.7447087 L25.7190755,38.9992711 C25.7190755,38.9992711 24.4331826,35.3461359 23.6772227,37.9161313 C23.570699,38.2697182 21.7378653,42.0119215 23.599344,45.8825797 C23.5997916,45.8825797 23.7143717,46.2648117 23.49103,46.491734 Z" id="Shape-Copy-4"></path>
                    <path d="M30.2916421,118.291998 C30.0857682,118.50076 29.731368,118.392254 29.731368,118.392254 C26.1626117,116.676363 22.713089,118.365849 22.3875689,118.464041 C20.0181623,119.160877 23.3859955,120.345787 23.3859955,120.345787 L22.2291409,121.655706 L24.0378608,122.340577 L23.2184909,123.904229 L25.1811005,124.067608 L24.7190188,125.717899 L26.3759119,125.262006 L26.5384657,127.224203 L28.1025298,126.405659 L28.7878136,128.214791 L30.0973202,127.057524 C30.0973202,127.057524 31.2826424,130.42577 31.9803033,128.056776 C32.0776705,127.73043 33.7667443,124.280908 32.0512658,120.712564 C32.0512658,120.712564 31.9423466,120.357339 32.1511085,120.151877 C32.3606956,119.946416 32.7126203,120.05121 32.7126203,120.05121 C36.2805515,121.767513 39.7296616,120.077614 40.0560068,119.979422 C42.4250009,119.282586 39.0575802,118.097677 39.0575802,118.097677 L40.2148474,116.787757 L38.4057149,116.102474 L39.2242597,114.538409 L37.2620626,114.375443 L37.7237318,112.725151 L36.0676638,113.181044 L35.9042849,111.218847 L34.3410459,112.037805 L33.6557622,110.229085 L32.3454304,111.385527 C32.3454304,111.385527 31.1601082,108.018106 30.4632724,110.3871 C30.3650801,110.713033 28.6755937,114.162555 30.3914847,117.730487 C30.3918973,117.730487 30.497516,118.082824 30.2916421,118.291998 Z" id="Shape-Copy" transform="translate(31.221700, 119.221869) rotate(30.000000) translate(-31.221700, -119.221869) "></path>
                    <path d="M29.2916421,12.2919984 C29.0857682,12.5007603 28.731368,12.3922536 28.731368,12.3922536 C25.1626117,10.6763626 21.713089,12.365849 21.3875689,12.4640413 C19.0181623,13.1608771 22.3859955,14.3457867 22.3859955,14.3457867 L21.2291409,15.6557059 L23.0378608,16.3405771 L22.2184909,17.9042287 L24.1811005,18.0676076 L23.7190188,19.7178995 L25.3759119,19.2620063 L25.5384657,21.2242034 L27.1025298,20.4056586 L27.7878136,22.2147912 L29.0973202,21.0575239 C29.0973202,21.0575239 30.2826424,24.4257698 30.9803033,22.0567757 C31.0776705,21.7304305 32.7667443,18.2809078 31.0512658,14.7125641 C31.0512658,14.7125641 30.9423466,14.3573387 31.1511085,14.1518774 C31.3606956,13.946416 31.7126203,14.0512096 31.7126203,14.0512096 C35.2805515,15.7675132 38.7296616,14.0776143 39.0560068,13.9794219 C41.4250009,13.2825861 38.0575802,12.0976765 38.0575802,12.0976765 L39.2148474,10.7877573 L37.4057149,10.1024736 L38.2242597,8.53840941 L36.2620626,8.37544308 L36.7237318,6.72515115 L35.0676638,7.1810443 L34.9042849,5.2188472 L33.3410459,6.03780457 L32.6557622,4.22908462 L31.3454304,5.38552668 C31.3454304,5.38552668 30.1601082,2.01810601 29.4632724,4.38710007 C29.3650801,4.71303272 27.6755937,8.16255542 29.3914847,11.7304866 C29.3918973,11.7304866 29.497516,12.0828239 29.2916421,12.2919984 Z" id="Shape-Copy-5" transform="translate(30.221700, 13.221869) rotate(30.000000) translate(-30.221700, -13.221869) "></path>
                    <path d="M43.291811,33.2918295 C43.0859371,33.5005914 42.7315369,33.3920847 42.7315369,33.3920847 C39.1627806,31.6761937 35.7132579,33.36568 35.3877378,33.4638724 C33.0183312,34.1607082 36.3861644,35.3456178 36.3861644,35.3456178 L35.2293098,36.655537 L37.0380297,37.3404081 L36.2186598,38.9040597 L38.1812695,39.0674386 L37.7191877,40.7177306 L39.3760808,40.2618374 L39.5386346,42.2240345 L41.1026987,41.4054897 L41.7879825,43.2146223 L43.0974891,42.057355 C43.0974891,42.057355 44.2828113,45.4256009 44.9804722,43.0566068 C45.0778394,42.7302616 46.7669132,39.2807389 45.0514347,35.7123952 C45.0514347,35.7123952 44.9425155,35.3571698 45.1512774,35.1517085 C45.3608645,34.9462471 45.7127892,35.0510407 45.7127892,35.0510407 C49.2807204,36.7673443 52.7298305,35.0774453 53.0561757,34.979253 C55.4251698,34.2824172 52.0577491,33.0975076 52.0577491,33.0975076 L53.2150163,31.7875884 L51.4058838,31.1023047 L52.2244286,29.5382405 L50.2622315,29.3752742 L50.7239007,27.7249822 L49.0678327,28.1808754 L48.9044538,26.2186783 L47.3412148,27.0376357 L46.6559311,25.2289157 L45.3455993,26.3853578 C45.3455993,26.3853578 44.1602771,23.0179371 43.4634413,25.3869312 C43.365249,25.7128638 41.6757626,29.1623865 43.3916536,32.7303177 C43.3920662,32.7303177 43.4976849,33.082655 43.291811,33.2918295 Z" id="Shape-Copy-8" transform="translate(44.221869, 34.221700) rotate(60.000000) translate(-44.221869, -34.221700) "></path>
                    <path d="M63.291811,20.2918295 C63.0859371,20.5005914 62.7315369,20.3920847 62.7315369,20.3920847 C59.1627806,18.6761937 55.7132579,20.36568 55.3877378,20.4638724 C53.0183312,21.1607082 56.3861644,22.3456178 56.3861644,22.3456178 L55.2293098,23.655537 L57.0380297,24.3404081 L56.2186598,25.9040597 L58.1812695,26.0674386 L57.7191877,27.7177306 L59.3760808,27.2618374 L59.5386346,29.2240345 L61.1026987,28.4054897 L61.7879825,30.2146223 L63.0974891,29.057355 C63.0974891,29.057355 64.2828113,32.4256009 64.9804722,30.0566068 C65.0778394,29.7302616 66.7669132,26.2807389 65.0514347,22.7123952 C65.0514347,22.7123952 64.9425155,22.3571698 65.1512774,22.1517085 C65.3608645,21.9462471 65.7127892,22.0510407 65.7127892,22.0510407 C69.2807204,23.7673443 72.7298305,22.0774453 73.0561757,21.979253 C75.4251698,21.2824172 72.0577491,20.0975076 72.0577491,20.0975076 L73.2150163,18.7875884 L71.4058838,18.1023047 L72.2244286,16.5382405 L70.2622315,16.3752742 L70.7239007,14.7249822 L69.0678327,15.1808754 L68.9044538,13.2186783 L67.3412148,14.0376357 L66.6559311,12.2289157 L65.3455993,13.3853578 C65.3455993,13.3853578 64.1602771,10.0179371 63.4634413,12.3869312 C63.365249,12.7128638 61.6757626,16.1623865 63.3916536,19.7303177 C63.3920662,19.7303177 63.4976849,20.082655 63.291811,20.2918295 Z" id="Shape-Copy-9" transform="translate(64.221869, 21.221700) rotate(60.000000) translate(-64.221869, -21.221700) "></path>
                    <path d="M17.2916421,136.291998 C17.0857682,136.50076 16.731368,136.392254 16.731368,136.392254 C13.1626117,134.676363 9.71308897,136.365849 9.38756889,136.464041 C7.01816226,137.160877 10.3859955,138.345787 10.3859955,138.345787 L9.22914087,139.655706 L11.0378608,140.340577 L10.2184909,141.904229 L12.1811005,142.067608 L11.7190188,143.717899 L13.3759119,143.262006 L13.5384657,145.224203 L15.1025298,144.405659 L15.7878136,146.214791 L17.0973202,145.057524 C17.0973202,145.057524 18.2826424,148.42577 18.9803033,146.056776 C19.0776705,145.73043 20.7667443,142.280908 19.0512658,138.712564 C19.0512658,138.712564 18.9423466,138.357339 19.1511085,138.151877 C19.3606956,137.946416 19.7126203,138.05121 19.7126203,138.05121 C23.2805515,139.767513 26.7296616,138.077614 27.0560068,137.979422 C29.4250009,137.282586 26.0575802,136.097677 26.0575802,136.097677 L27.2148474,134.787757 L25.4057149,134.102474 L26.2242597,132.538409 L24.2620626,132.375443 L24.7237318,130.725151 L23.0676638,131.181044 L22.9042849,129.218847 L21.3410459,130.037805 L20.6557622,128.229085 L19.3454304,129.385527 C19.3454304,129.385527 18.1601082,126.018106 17.4632724,128.3871 C17.3650801,128.713033 15.6755937,132.162555 17.3914847,135.730487 C17.3918973,135.730487 17.497516,136.082824 17.2916421,136.291998 Z" id="Shape-Copy-2" transform="translate(18.221700, 137.221869) rotate(-20.000000) translate(-18.221700, -137.221869) "></path>
                </g>
                <g id="meat" transform="translate(105.000000, 124.000000)" fill-rule="nonzero">
                    <path d="M13,19 C10.8,19 9,20.8 9,23 C9,25.2 10.8,27 13,27 C15.2,27 17,25.2 17,23 C17,20.8 15.24,19 13,19 Z" id="Shape"></path>
                    <path d="M19.6680293,3.0410596 C19.6276294,3.0410596 19.6276294,3.0410596 19.5872295,3.0410596 C19.5872295,3.0410596 19.3044301,3 18.8600311,3 C17.9712331,3 16.4360364,3.16423841 15.264439,4.10860927 C14.1736414,4.97086093 13.5272428,6.32582781 13.3656432,8.09139073 C13.1636436,10.4317881 11.3860476,11.9099338 9.56805156,13.5112583 C7.58845591,15.2357616 5.3664608,17.1245033 4.39686293,20.4092715 C3.71006444,22.7086093 3.75046436,26.1986755 5.85125973,29.1139073 C7.46725618,31.3311258 10.9416485,34 18.0924328,34 C31.5456032,34 33,23.4476821 33,18.9311258 C33,11.4172185 27.546012,3.0410596 19.6680293,3.0410596 Z M12.6384448,28.3748344 C9.81045102,28.3748344 7.50765609,26.0344371 7.50765609,23.1602649 C7.50765609,20.2860927 9.81045102,17.9456954 12.6384448,17.9456954 C15.4664386,17.9456954 17.7692335,20.2860927 17.7692335,23.1602649 C17.7692335,26.0344371 15.4664386,28.3748344 12.6384448,28.3748344 Z" id="Shape"></path>
                    <path d="M18.7875872,0 C18.7875872,0 18.7464757,0 18.7875872,0 C18.7053641,0 18.540918,0 18.2531372,0 C16.567564,0 11.3875098,0.37 11.0175059,4.72777778 C10.7708367,7.68777778 8.75637114,9.16777778 6.65968253,10.7711111 C4.39854776,12.4977778 1.80852066,14.43 0.53406288,18.6644444 C-0.411502569,21.7066667 -0.329279487,26.4344444 2.67186303,30.4633333 C4.89188626,33.4233333 9.45526734,37 18.7875872,37 C37,37 37,22.3233333 37,17.4722222 C37,7.68777778 28.9832494,0 18.7875872,0 Z M18.1298026,34.6566667 C10.3597212,34.6566667 6.57745945,31.7377778 4.76855163,29.3122222 C2.3429707,26.0644444 2.3429707,22.2 3.08297844,19.6511111 C4.15187851,16.0744444 6.53634791,14.06 8.63303651,12.2922222 C10.4008328,10.7711111 11.9630714,9.45555556 12.1275175,7.56444444 C12.3330752,5.46777778 13.1141945,3.86444444 14.4708754,2.79555556 C16.6086755,1.19222222 19.3220372,1.48 19.7331527,1.52111111 C23.7620837,1.52111111 27.5443455,3.49444444 30.3399303,7.07111111 C32.8888459,10.3188889 34.3688614,14.4711111 34.3688614,18.5 C34.3688614,23.3511111 32.7655112,34.6566667 18.1298026,34.6566667 Z" id="Shape"></path>
                </g>
                <g id="noun_545426_cc" transform="translate(61.000000, 145.000000)" fill-rule="nonzero">
                    <path d="M10.7273719,8.39152557 C11.6562143,8.97506047 12.6173955,9.57694553 13.4258656,10.3788473 C14.8397901,11.7789641 15.5997521,13.5350738 16.3363582,15.2342981 C16.350731,15.2654934 16.3633072,15.2948536 16.37768,15.3260489 C17.0532018,14.507632 17.3388612,13.2469764 17.6388935,11.9092501 C17.9353325,10.5898741 18.2407546,9.22462257 18.9845471,8.17866378 C19.6474927,7.24464092 20.5439962,6.46475936 21.4117542,5.70873301 C22.257953,4.9710568 23.0646265,4.26274085 23.4526922,3.57277504 C21.6273463,1.47718742 18.9629879,0 15.2655844,0 L11.7352647,0 C9.79134312,0 8.1456572,0.422053549 6.74610552,1.11385437 C6.70837691,2.89565435 6.87366415,4.90316123 8.22650421,6.48861456 C8.84273813,7.20977563 9.75900432,7.78413546 10.7273719,8.39152557 Z M9.25595622,37.4838602 C9.04216077,35.8727167 9.6565981,34.2230378 10.2512728,32.6284094 C10.7255753,31.3549087 11.1729288,30.1529736 11.1747254,29.0849946 C11.176522,27.6720327 10.7525243,26.1397948 10.380628,24.7892235 C9.87578334,22.9615481 9.44100605,21.3834348 9.99435896,20.1759947 C10.6069997,18.8382684 12.0694324,18.0675619 13.4815602,17.3188756 C13.9738287,17.0583034 14.4678938,16.7922262 14.9296201,16.5077988 C14.8523663,16.3298023 14.7733159,16.1573109 14.6960621,15.9774794 C14.0295234,14.4397364 13.3396288,12.848778 12.1772284,11.6963884 C11.5088931,11.0357828 10.6357453,10.4871132 9.78774992,9.95679373 C8.74572172,9.30352823 7.6695581,8.62640754 6.87186755,7.6942197 C5.43638386,6.01334557 5.03933519,4.01868379 4.96208137,2.24055384 C1.60243871,4.90499625 0.246005441,9.42096922 0.246005441,12.843273 C0.246005441,13.3112019 0.208276834,13.9644674 0.165158425,14.7645342 C-0.0522302174,18.7300025 -0.458261897,26.1104346 2.055182,32.3953624 L3.35232745,36.4415714 C4.76086213,40.8327634 8.62355289,43.8036533 13.0449864,44 C13.0324102,43.9889899 13.0234272,43.9779798 13.0090544,43.9632997 C11.7622137,42.7154892 9.6745641,40.6290767 9.25595622,37.4838602 Z M26.8356907,14.7645342 C26.7925723,13.9644674 26.7548437,13.3112019 26.7548437,12.843273 C26.7548437,10.470598 26.0990845,7.5749437 24.5827538,5.12886813 C24.0311975,5.83718409 23.2981846,6.47576946 22.5759512,7.10517975 C21.7890403,7.7896405 20.9751803,8.49795646 20.4397934,9.25398282 C19.9115929,9.99716407 19.6582723,11.1256986 19.3923754,12.3184586 C19.0546145,13.8250063 18.7042775,15.3847694 17.7251303,16.5481692 C16.8250335,17.6179832 15.5458541,18.2932688 14.3079964,18.9483693 C13.109664,19.5832847 11.9760092,20.1814997 11.6202823,20.9540412 C11.3507922,21.5430812 11.7352647,22.9395279 12.1089576,24.2900993 C12.5149893,25.7562766 12.9731223,27.4188006 12.9713257,29.0868296 C12.9695291,30.4906164 12.4413286,31.9090833 11.9292975,33.2816749 C11.392114,34.725832 10.8836761,36.0874135 11.0363872,37.2361331 C11.3723514,39.7592793 13.1132572,41.498874 14.264878,42.6512637 C14.6331811,43.0182667 14.9403997,43.3320544 15.1452122,43.5926266 C15.213483,43.6788723 15.2566014,43.7779631 15.2889402,43.877054 C19.1390548,43.2017683 22.3819184,40.3886896 23.6467251,36.4434065 L24.9223113,32.4577529 C27.459111,26.1104346 27.0530793,18.7318375 26.8356907,14.7645342 Z" id="Shape"></path>
                </g>
                <g id="Group" transform="translate(70.000000, 99.000000)">
                    <path d="M18.6033752,0.876076339 L1.08714019,17.7187227 L33.3803631,8.26319439 L18.6033752,0.876076339 Z M20.0343876,5.88468004 C20.4139265,5.88467059 20.7779236,6.03543518 21.0463015,6.30380631 C21.3146793,6.57217744 21.465453,6.93617083 21.465453,7.31570967 C21.465453,7.69524851 21.3146793,8.0592419 21.0463015,8.32761303 C20.7779236,8.59598417 20.4139265,8.74674875 20.0343876,8.7467393 C19.2440585,8.74672974 18.6033752,8.10603877 18.6033752,7.31570967 C18.6033752,6.52538057 19.2440585,5.88468961 20.0343876,5.88468004 L20.0343876,5.88468004 Z" id="Shape"></path>
                    <path d="M34.3447197,9.47069719 L8.44307481e-06,19.5269717 L8.44307481e-06,37.3673319 L34.3447197,25.9190949 L34.3447197,9.47069719 Z M21.1076727,15.9018875 C22.4907588,15.9018898 23.6119703,17.0231033 23.6119703,18.4061893 C23.6119703,19.7892753 22.4907588,20.9104888 21.1076727,20.9104912 C19.7245867,20.9104888 18.6033752,19.7892753 18.6033752,18.4061893 C18.6033752,17.0231033 19.7245867,15.9018898 21.1076727,15.9018875 L21.1076727,15.9018875 Z M29.6938505,20.1949763 C30.6816362,20.1949732 31.4824505,20.9970662 31.4826433,21.9866254 C31.4823716,22.9761288 30.6815805,23.7781346 29.6938505,23.7781314 C28.7061211,23.7781338 27.9053308,22.9761282 27.9050592,21.9866254 C27.905252,20.9970668 28.7060653,20.194974 29.6938505,20.1949763 L29.6938505,20.1949763 Z M7.51290055,21.626006 C8.89598631,21.6260087 10.0171974,22.7472221 10.0171974,24.1303078 C10.0171974,25.5133936 8.89598631,26.6346069 7.51290055,26.6346097 C6.12981456,26.6346072 5.00860313,25.5133938 5.00860313,24.1303078 C5.00860313,22.7472218 6.12981456,21.6260084 7.51290055,21.626006 L7.51290055,21.626006 Z M16.099079,24.4880652 C16.5734956,24.4880641 17.0284817,24.6765246 17.3639452,25.0119873 C17.6994088,25.3474501 17.8878703,25.8024357 17.8878704,26.2768523 C17.8878703,26.7512688 17.6994088,27.2062544 17.3639452,27.5417172 C17.0284817,27.8771799 16.5734956,28.0656404 16.099079,28.0656393 C15.6246622,28.0656408 15.1696758,27.8771805 14.8342119,27.5417177 C14.4987481,27.2062549 14.3102863,26.7512691 14.3102863,26.2768523 C14.3102863,25.8024355 14.4987481,25.3474496 14.8342119,25.0119868 C15.1696758,24.676524 15.6246622,24.4880637 16.099079,24.4880652 L16.099079,24.4880652 Z" id="Shape"></path>
                </g>
                <g id="bottle" transform="translate(125.945627, 60.061994) rotate(-5.000000) translate(-125.945627, -60.061994) translate(42.945627, 7.061994)" fill-rule="nonzero">
                    <path d="M9.99640676,52 L5.00359324,52 C4.44960474,52 4,51.5514993 4,51 C4,50.4485007 4.44897593,50 5.00359324,50 L9.99640676,50 C10.5503953,50 11,50.4485007 11,51 C11,51.5514993 10.5510241,52 9.99640676,52 Z" id="Shape"></path>
                    <path d="M11.8848,64.1698805 C11.6028,59.8746795 10.7268,55.6669711 10.0758,53 C10.0122,53.0068257 9.9474,53.0099282 9.882,53.0099282 L5.118,53.0099282 C5.0526,53.0099282 4.9884,53.0068257 4.9242,53 C4.2732,55.6669711 3.3972,59.8746795 3.1152,64.1698805 C3.1152,64.1698805 0,68.4284711 0,70.6741128 C0,72.143491 0,101.99582 0,101.99582 C0,101.99582 0.0564,106 2.529,106 C5.0004,106 9.9996,106 12.471,106 C14.943,106 15,101.99582 15,101.99582 C15,101.99582 15,72.1441116 15,70.6741128 C15,68.4284711 11.8848,64.1698805 11.8848,64.1698805 Z" id="Shape"></path>
                    <path d="M150.573864,12.2914892 C150.291864,7.99628825 149.415864,3.78857982 148.764864,1.12160875 C148.701264,1.12843441 148.636464,1.13153698 148.571064,1.13153698 L143.807064,1.13153698 C143.741664,1.13153698 143.677464,1.12843441 143.613264,1.12160875 C142.962264,3.78857982 142.086264,7.99628825 141.804264,12.2914892 C141.804264,12.2914892 138.689064,16.5500798 138.689064,18.7957216 C138.689064,20.2650998 138.689064,50.1174291 138.689064,50.1174291 C138.689064,50.1174291 138.745464,54.1216087 141.218064,54.1216087 C143.689464,54.1216087 148.688664,54.1216087 151.160064,54.1216087 C153.632064,54.1216087 153.689064,50.1174291 153.689064,50.1174291 C153.689064,50.1174291 153.689064,20.2657203 153.689064,18.7957216 C153.689064,16.5500798 150.573864,12.2914892 150.573864,12.2914892 Z" id="Shape-Copy-3" transform="translate(146.189064, 27.621609) rotate(30.000000) translate(-146.189064, -27.621609) "></path>
                </g>
                <g id="taco" transform="translate(69.000000, 63.000000)" fill-rule="nonzero">
                    <path d="M39.6800959,24.7246677 C39.6377704,12.0468771 32.1845258,0 22.8583806,0 C21.1640405,0 19.6971996,0.413995667 18.3229456,0.899415507 C18.3996605,0.903383516 25.1307274,0.916610215 24.3754829,2.69295584 C24.1572424,3.20615175 23.4959074,4.8846198 26.4533973,4.8846198 C30.4214068,4.8846198 27.7760671,7.52995953 30.4214068,7.52995953 C30.4240522,7.52995953 30.4266975,7.52995953 30.4306655,7.52995953 C32.5165159,7.52995953 33.0667466,10.1752993 33.0667466,11.4979691 C33.0667466,14.4554589 37.0347562,12.820639 37.099567,16.157735 C37.1630551,19.4339883 34.3894164,19.4339883 33.9410313,21.1865259 C33.0376478,24.7167317 37.5188533,24.6347262 37.5479521,24.6413395 C36.430296,26.4044585 33.7876016,26.895169 31.7136553,26.6451844 C30.62113,26.4216532 30.4862177,24.6942463 30.4862177,24.6942463 L30.480927,24.687633 C29.2151319,13.393355 22.4271902,3.30006131 14.0031058,3.30006131 C4.99969208,3.30138398 0.535681294,10.6607191 0,19.5345112 C5.3105195,21.1442004 24.2762827,26.758934 30.2613638,28.3408471 C30.5258978,28.429466 31.9067651,28.694 32.7691458,28.694 C38.1762202,28.6926773 39.6800959,24.7246677 39.6800959,24.7246677 Z" id="Shape"></path>
                </g>
                <g id="pepper" transform="translate(0.000000, 66.000000)" fill-rule="nonzero">
                    <path d="M7.57185616,21.0176323 C7.49591995,20.7898236 7.34404752,20.562015 7.2681113,20.3342063 C6.58468537,18.2839286 7.2681113,16.309587 8.63496316,15.24648 C8.25528209,13.120266 8.33121831,10.1587536 9.84994259,6.43787911 C10.001815,6.05819803 10.4574323,5.9063256 10.8371134,6.05819803 C11.2167945,6.21007046 11.3686669,6.66568775 11.2167945,7.04536882 C9.92587881,10.1587536 9.77400638,12.6646487 10.001815,14.563054 C10.2296237,14.4871178 10.4574323,14.4111816 10.7611772,14.4111816 C12.5077101,14.2593092 14.254243,15.0946075 15.3932862,16.309587 C14.937669,16.2336508 14.4061155,16.1577145 13.9504982,16.1577145 C13.5708171,16.1577145 13.2670722,16.1577145 12.8873912,16.2336508 C10.0777512,16.5373956 8.40715452,18.5876734 7.57185616,21.0176323 Z M50.9314346,50.2530748 C51.0073708,50.0252662 49.8683276,49.7215213 49.7164551,49.6455851 C45.4640271,48.0509246 41.2115991,46.4562641 37.4147884,43.950369 C32.6308069,40.9129204 28.3024427,36.4326838 25.4928028,31.4968299 C23.9740785,28.9149986 23.0628439,26.2572311 21.8478645,23.5994636 C20.253204,20.0304615 16.8360743,17.1448853 13.1151998,17.6764388 C13.1151998,17.6764388 13.1151998,17.6764388 13.1151998,17.6764388 C9.69807016,18.1320561 8.55902695,21.9288668 8.63496316,24.8903792 C8.71089938,28.3834451 10.685241,31.8005747 12.811455,34.5342784 C16.9879467,40.0016859 22.6072266,44.9375398 28.9858686,47.5953073 C39.2372576,52.9867785 51.5389243,51.0883732 50.9314346,50.2530748 Z" id="Shape" transform="translate(28.976537, 28.634082) rotate(70.000000) translate(-28.976537, -28.634082) "></path>
                </g>
                <g id="lemon" transform="translate(24.000000, 30.000000)" fill-rule="nonzero">
                    <path d="M32.8829249,5.40338088 C33.6189094,3.78421489 33.7661063,2.53304117 33.1773187,1.94425354 C32.588531,1.35546591 31.4109558,1.35546591 29.7181913,1.94425354 C24.1247088,-1.80926762 14.9249021,-0.0429047194 7.78585202,6.50735769 C0.720400431,13.0576201 -1.85554546,22.11023 1.38278652,27.9245078 C0.646801976,29.5436738 0.499605068,30.7948475 1.0883927,31.3836352 C1.67718033,31.9724228 2.8547556,31.9724228 4.54752004,31.3836352 C10.1410025,35.1371563 19.3408093,33.3707934 26.4798593,26.820531 C33.6189094,20.2702686 36.1212568,11.2176588 32.8829249,5.40338088 Z" id="Shape"></path>
                </g>
                <g id="paprika" transform="translate(186.448016, 74.689885) rotate(5.000000) translate(-186.448016, -74.689885) translate(141.448016, 21.689885)" fill-rule="nonzero">
                    <path d="M20.5791434,77.5537438 C18.8843905,77.5537438 17.3510425,77.8765539 16.0598021,78.6835791 C16.0598021,78.360769 16.1405047,78.1186614 16.1405047,77.7958513 C16.3826122,75.4554782 17.1896375,72.2273772 19.2879031,70.2905167 C19.8528207,69.8063015 19.8528207,68.9992763 19.3686056,68.4343586 C18.8843905,67.869441 18.0773652,67.869441 17.5124476,68.3536561 C14.5264542,71.0975419 13.6387264,75.4554782 13.3966189,78.6835791 C12.1053785,77.9572564 10.5720306,77.6344463 8.87727756,77.6344463 C3.95442364,77.6344463 0,80.6204396 0,88.3678819 C0,96.1153241 3.95442364,105.638222 8.87727756,105.638222 C11.1369482,105.638222 13.1545113,103.701361 14.6878592,100.79607 C16.2212072,103.620659 18.3194728,105.638222 20.4984409,105.638222 C25.4212948,105.638222 29.3757185,96.0346216 29.3757185,88.3678819 C29.456421,80.5397371 25.5019974,77.5537438 20.5791434,77.5537438 Z" id="Shape"></path>
                    <path d="M80.5791434,9.55374376 C78.8843905,9.55374376 77.3510425,9.87655385 76.0598021,10.6835791 C76.0598021,10.360769 76.1405047,10.1186614 76.1405047,9.79585133 C76.3826122,7.45547815 77.1896375,4.22737722 79.2879031,2.29051666 C79.8528207,1.80630152 79.8528207,0.99927629 79.3686056,0.434358627 C78.8843905,-0.130559036 78.0773652,-0.130559036 77.5124476,0.353656104 C74.5264542,3.0975419 73.6387264,7.45547815 73.3966189,10.6835791 C72.1053785,9.95725638 70.5720306,9.63444628 68.8772776,9.63444628 C63.9544236,9.63444628 60,12.6204396 60,20.3678819 C60,28.1153241 63.9544236,37.6382219 68.8772776,37.6382219 C71.1369482,37.6382219 73.1545113,35.7013613 74.6878592,32.7960705 C76.2212072,35.6206588 78.3194728,37.6382219 80.4984409,37.6382219 C85.4212948,37.6382219 89.3757185,28.0346216 89.3757185,20.3678819 C89.456421,12.5397371 85.5019974,9.55374376 80.5791434,9.55374376 Z" id="Shape-Copy-7"></path>
                </g>
                <g id="potato" transform="translate(117.000000, 20.000000)" fill-rule="nonzero">
                    <path d="M48.9936004,32.5031271 C48.9936004,32.5031271 48.8734295,30.6160534 48.1123476,28.8862358 C46.269728,24.7975759 38.3384527,22.2028495 31.368544,22.0062793 C29.2054689,21.9669653 20.6733394,21.9669653 15.9466198,26.7239637 C15.3457656,27.3136743 14.1040002,28.5717235 13.4630891,30.6160534 C12.6619502,33.0928377 13.0224627,35.569622 13.6233169,36.9456133 C16.1869614,43.078603 28.5245009,42.999975 31.408601,42.999975 C37.4571999,42.9606609 46.5100697,41.4667275 48.3126323,37.1028694 C49.1137712,34.9012834 48.9936004,32.5031271 48.9936004,32.5031271 Z M20.4730547,35.2157957 C20.2727699,35.4909939 19.6318588,35.4123659 19.0710616,35.0192255 C18.5102643,34.6260851 18.1898087,34.0756886 18.3900935,33.8004904 C18.5903782,33.5252921 19.2312893,33.6039202 19.7920866,33.9970605 C20.3929408,34.3902009 20.7133964,34.9012834 20.4730547,35.2157957 Z M44.1467099,30.4194832 C43.9464251,30.7339955 42.544432,30.3408551 41.7032362,29.4759463 C41.2626098,29.0434919 40.8219833,28.3358392 41.0222681,28.099955 C41.2225528,27.8640708 42.0236917,28.2178971 42.4242612,28.4537814 C43.4256848,29.0434919 44.3469946,30.1049709 44.1467099,30.4194832 Z" id="Shape"></path>
                    <path d="M18.3659961,20.999975 C24.413756,20.9606609 33.46537,19.4667275 35.2676826,15.1028694 C36.1488132,12.9012834 35.9886076,10.5031271 35.9886076,10.5031271 C35.9886076,10.5031271 35.8684534,8.61605338 35.107477,6.88623576 C33.3051645,2.79757594 25.3349379,0.163535472 18.3659961,0.00627932532 C16.203221,-0.0330347115 7.67227502,-0.0330347115 2.94621102,4.72396374 C2.34544017,5.31367429 1.10384709,6.57172347 0.463024852,8.61605338 C-0.338002944,11.0928377 0.0224595647,13.569622 0.623230412,14.9456133 C3.14646797,21.078603 15.482296,20.999975 18.3659961,20.999975 Z M30.0209505,14.2379606 C30.3413616,14.0807045 30.8620297,14.3952168 31.1824408,15.0242414 C31.5429033,15.6139519 31.5429033,16.2429765 31.2625436,16.4002327 C30.9421325,16.5574888 30.4214644,16.2429765 30.1010533,15.6139519 C29.7806422,15.0242414 29.7405908,14.3952168 30.0209505,14.2379606 Z M9.07407366,13.0585395 C8.75366254,13.2551097 7.71232641,12.2722588 7.27176112,11.2107798 C7.11155556,10.8176394 6.87124722,10.0313587 7.15160695,9.87410256 C7.39191529,9.71684641 8.03273752,10.1886148 8.39320003,10.5817552 C9.15417644,11.4859781 9.39448478,12.9012834 9.07407366,13.0585395 Z" id="Shape"></path>
                </g>
                <path d="M116.9936,253.503127 C116.9936,253.503127 116.87343,251.616053 116.112348,249.886236 C114.269728,245.797576 106.338453,243.20285 99.368544,243.006279 C97.2054689,242.966965 88.6733394,242.966965 83.9466198,247.723964 C83.3457656,248.313674 82.1040002,249.571723 81.4630891,251.616053 C80.6619502,254.092838 81.0224627,256.569622 81.6233169,257.945613 C84.1869614,264.078603 96.5245009,263.999975 99.408601,263.999975 C105.4572,263.960661 114.51007,262.466728 116.312632,258.102869 C117.113771,255.901283 116.9936,253.503127 116.9936,253.503127 Z M88.4730547,256.215796 C88.2727699,256.490994 87.6318588,256.412366 87.0710616,256.019225 C86.5102643,255.626085 86.1898087,255.075689 86.3900935,254.80049 C86.5903782,254.525292 87.2312893,254.60392 87.7920866,254.997061 C88.3929408,255.390201 88.7133964,255.901283 88.4730547,256.215796 Z M112.14671,251.419483 C111.946425,251.733995 110.544432,251.340855 109.703236,250.475946 C109.26261,250.043492 108.821983,249.335839 109.022268,249.099955 C109.222553,248.864071 110.023692,249.217897 110.424261,249.453781 C111.425685,250.043492 112.346995,251.104971 112.14671,251.419483 Z" id="Shape-Copy-6" fill-rule="nonzero" transform="translate(99.000000, 253.500000) rotate(20.000000) translate(-99.000000, -253.500000) "></path>
            </g>
        </g>
    </g>
</svg>