<svg width="127" height="26" viewBox="0 0 127 26" xmlns="http://www.w3.org/2000/svg"><title>mijn lijst</title><path d="M19.012 16.472v.048l.216.288.144.048h.408l.624-.168.408-.144.144-.144.168-.048.6-.48.456-.576.144-.144v-.096l.264-.264.048-.168.216-.168v-.072l.456-.624.264-.312.168-.072h.264l.36.192.216.24.096.36-.096.36-.36.672-.144.12-.072.168-.12.096v.12h-.048l-.432.6-.12.096-.024.144-.072.048-.096.168-.12.096v.072l-.264.288-.144.264-.384.264-.072.144-.144.024-.624.456-.336.12-.192.12-.72.144-.744.072-.456.024-.336.072-.12.072-.168.312-.12.408-.288.552v.648l-.192.672-.384 1.536-.168.264-.168.168-.168.096-.168-.024-.6-.36-.168-.048-.096-.12-.168-.048-.24-.312-.432-.36-.12-.312-.048-.36.024-.408.264-.744.168-.72.096-.216.072-.336.144-.312.096-.384-.024-.336-.072-.168-.288-.264-.336-.12h-.12l-.24-.168-.144-.024-.096-.12-.336-.072-.144-.12-.12-.024v-.048h-.12v-.048h-.096V17l-.192-.048-.384-.24-.144-.024v-.048h-.096v-.072h-.12l-.288-.168-.216-.048-.336.144-.528.552-.192.192-.168.36-.168.12-.048.168-.288.216-.168.264-.144.072-.192.24-.144.024-.528.48-.24.216-.216.048-.072.12-.312.072-.072.072-.456.144-.288.216-.696.24-.768.12-.744-.048-.384.048-.648-.168-.216-.096-.408-.048-.48-.168-.096-.168-.216-.048-.048-.072-.504-.216-.048-.096-.24-.12-.048-.168-.288-.288-.432-.6-.12-.24-.168-.672-.096-.36-.072-.768.12-.768.048-.264.048-.048.144-.768.216-.384.096-.072.024-.144.528-.552.264-.288.936-.648.744-.168.096-.024.144-.12.672-.144.504.048.768-.072.336-.024.792.096h.096l.048.048.288.048.048.048.72.168.192.048.072.072.744.264.36.096.024.072h.096v.048h.12v.072h.096v.048h.12v.048l.264.072.288-.144.312-.312.144-.264.168-.12.072-.264.144-.216.048-.168.168-.24.024-.12.24-.288.024-.168.24-.264.096-.264.096-.048.168-.312.168-.192.12-.336.072-.072.24-.576.144-.096.12-.336.072-.048.096-.264.144-.12.024-.096.144-.12.024-.096.216-.216v-.168l.264-.504.12-.096v-.12h.048l.144-.312.072-.072v-.096l.144-.12.024-.144.216-.288.096-.216.12-.096.024-.144.144-.144v-.096l.408-.624.384-.696.36-.696.312-.432.048-.168.12-.048.12-.288.576-.504.552-.576.36-.168.192-.024.12-.072.696-.168.36.048.792.192.216.12.192.264.336.192.384.432.12.36.072.072.048.696-.072.768-.12.504-.072.048v.216l-.048.048-.12.672-.192.744v.12h-.072l-.168.744-.192.624-.072.528-.048.048v.168h-.048l-.216.72.024.288-.144.288-.216.792-.168.624h-.048v.12h-.048l-.096.768-.048.264-.072.096-.192.72-.216.72-.072.384-.072.144-.144.72-.168.504-.024.192-.168.36-.144.768-.048.288zm.384-12.624h-.12l-.264.072.12.072-.312.456-.024.168-.12.12-.12.264-.096.048-.024.144-.096.024-.12.36-.288.384-.048.144-.072.048v.096l-.12.048v.12l-.096.048-.36.696-.384.648-.432.624-.072.264-.072.048-.312.6-.216.264-.072.168-.144.12-.336.648-.216.336-.12.096-.12.432-.144.12-.096.264-.192.24-.024.144-.216.264-.12.264-.144.12-.024.12-.432.696-.168.528.072.072.024.168.288.288.672.36.696.312.72.408.36.12.216-.072.216-.336.216-.768.192-.792.216-.672.216-.744.192-.744.072-.384.216-.552.096-.288.144-.744.144-.648.168-.408.048-.312h.048l.216-1.152.168-.36.192-.696.192-.72.168-.744.024-.096h.072l.048-.36.072-.168-.168-.288zM4.804 14.12h-.048l-.144.144-.264.144-.192.048-.288.192-.264.288-.312.504-.024.72.072.408.24.672.336.288.216.096.12.12.288.072v.072l.72.144.768-.096.744-.216.168-.048.096-.12.648-.336.12-.144.144-.024.432-.456v-.096l.504-.528.408-.672.048-.096v-.144l-.072-.168-.312-.216-.36-.096-.336-.168-.768-.216-.72-.144L5.956 14l-.6.024-.048.048-.504.048zm5.784.288v.096h-.096l-.144-.096h-.144l-.12.36v.336l.192-.024.096-.24.216-.216.144.096h.12l.072-.24-.048-.096-.096-.048-.192.072zm1.248-.432v.048l.192.072.024.096-.384.408-.048.192.096.096.168-.072.096-.12v-.288l.336-.168-.072-.192-.192-.192.048-.12-.048-.096-.12-.048-.024.192-.048.048-.024.144zm.168 1.08l-.024.048-.096.048v.12l-.36.216h-.24l-.048.408.048.072.24-.024v-.288l.144-.12.264.072.048-.096-.048-.072v-.12h.12l.168-.096-.048-.096.024-.216-.096-.024-.096.168zm-1.08-.168l-.024.048.288.168-.048.144.12.12h.072l.048-.072.072-.504-.192-.072-.24-.168-.096.336zm6.672.648l.144.168v.168l-.144.216.192-.048.144-.096.096-.144.048-.192-.072-.048-.192.048-.048-.072-.024-.192-.048-.072h-.096l-.072.096.072.168zm1.8-12.744l-.072-.024.072.168.264.168.384-.288.048.024-.024-.12-.072-.048-.336.096-.264.024zm-8.88 12.36h-.048l-.168.384h.12l.096-.144.12-.072.024.192.144.096h.096l.024-.12-.048-.168-.144-.12-.216-.048zm7.992-12.24v.12l.024.048.096.024.144.192.12-.048v-.384l-.048-.096-.216.048-.12.096zm1.128 7.032l.024.048.024.12.072.048h.168l.024-.12-.36-.408-.096-.024-.048.072.072.168.12.096zm.6-7.824h-.048l-.096-.168-.072-.048-.096.048.072.168.144.12.264.048v-.216l-.168.048zm-3.84 16.128h.048l.048-.072v-.216l-.048-.072h-.168l-.048.072.024.192.048.072.096.024zm1.848-4.128v.072l.072.048.288-.048.072-.12-.168-.096-.192.024-.072.12zm-1.176 2.496l-.12.12h-.168v.216l.216-.024.168-.288-.096-.024zm3.288-13.368h-.168l.024.12.072.048.408-.168V3.2l-.168-.048-.168.096zm-1.728 7.992h.048l.048-.192-.096-.168-.12-.072-.024.168.072.216.072.048zm-6.24 2.664l-.024.072h.12l.096-.12-.264-.336-.048.096.12.288zm4.392 4.344v.072l.072.024.192-.072.096-.192-.096-.096-.048.096-.168.096-.048.072zm-4.224-4.968l.024.024.024-.048.264.048-.096-.168-.288-.144.072.288zm6.048 2.592l.024.048.168-.072.048-.192-.168-.048-.072.024v.24zm-7.296-2.328l.096.048.144-.216v-.12l-.192.048-.072.144.024.096zm7.104-.72v.048l.12.024.096-.144-.072-.168-.096-.024-.072.144.024.12zm.528-.216h.072l.024-.12-.048-.072-.312-.024.048.144.216.072zM21.052 2.12h-.048l-.168-.096-.048.096.312.168h.12l.024-.048-.048-.072-.144-.048zm-3.264 15.024l-.048.024.072.144.264.024v-.12l-.048-.072h-.24zm-1.464 2.064l-.048.024.072.168.072.048h.144l-.024-.096-.144-.144h-.072zM14.98 9.224l.048.024V9.2l.12-.12v-.048l-.168-.072-.048.192.048.072zm3.744 6.024v.072l.192-.024.024-.144-.144-.048-.072.144zm-.384-3.84h-.096l.024.192.072.024.096-.168-.024-.072-.072-.024v.048zm-4.512-.192v-.072h-.216v.12l.12.072.096-.12zm1.968-3.936h.048v-.216h-.168v.12l.12.096zm-4.224 6.816l.048.024v-.168l-.168-.144v.168l.12.12zm5.04 3.288h.048l-.024-.192-.144-.024v.12l.12.096zm2.544-4.728v.216h.12v-.216h-.12zm1.92-7.872v.168h.096l.12-.12-.216-.048zm-3 13.104v.048l.216.048-.024-.12-.072-.048-.12.072zm-6.936-3.936l.048.024v-.048l.096-.024v-.096l-.096-.048-.072.144.024.048zm2.664-3.456l-.024.048h.168l.048-.168-.096.024-.096.096zm7.152-6.48h.048l.048-.072-.024-.096-.072-.048-.048.096.048.12zM16.372 6.68l.024-.048-.216-.048v.096l.072.048.12-.048zM9.508 17.168h.048l-.024-.096-.192-.12.072.168.096.048zm1.44-3.648v.168l.048.024.072-.048-.024-.144h-.096zm-4.056-.144v.048h.096l.048-.168H6.94l-.048.12zm12.144.912h.12l-.024-.12-.072-.048-.048.096.024.072zm-2.424 4.824v-.048l-.168-.048-.024.048.072.072.12-.024zm.168-.36v.168l.096-.024V18.8l-.096-.048zm-5.232-5.76v.096h.12v-.096h-.12zM20.14 6.8v.096h.12V6.8h-.12zm-9.936 9.888v.096h.096v-.096h-.096zM20.332 3.752l-.024.048.12-.024.048-.072h-.096l-.048.048zm-4.2 13.752l.048-.048-.096-.048-.072.048.12.048zm14.448.696l.024.048.096.072.168-.024.648-.384.384-.192.576-.456.576-.552.552-.528.36-.432v-.096h.048l.096-.192.36-.408.24-.192.024-.144h.048v-.096h.048v-.12h.048v-.096h.072v-.12h.048l.048-.096h.048v-.12h.072l.12-.288.192-.264.144-.072h.432l.36.144.192.216.072.36-.12.36-.12.168-.024.144-.264.264v.12h-.072l-.024.096-.144.12-.144.384h-.048l-.024.096-.144.12v.072l-.552.576-.048.168-.552.504-.048.144-.144.024-.24.312-.144.072-.264.264-.144.072-.528.528h-.12v.048h-.096v.048h-.12l-.12.144-.264.072-.072.144-.36.144-.12.12-.144.024v.072l-.288.048-.096.12-.528.144-.696.192h-.24l-.024.048-.48.12-.84.024-.384.024-.744-.12-.744-.192-.312-.048v-.072h-.12v-.048h-.096v-.048h-.12v-.048l-.624-.432-.12-.072-.12-.168-.048-.264.144-.312.312-.288.384-.12.384.168.36.096.36-.096.648-.48.36-.288.024-.144.168-.12v-.096l.168-.168v-.096l.432-.6.072-.072.024-.144h.072v-.12h.048v-.096h.048l.216-.504.12-.096v-.12l.072-.072.024-.144h.072l.288-.72.096-.336.12-.144.024-.264.24-.624.144-.528.192-.6.024-.264.048-.048.072-.6-.12-.72h-.048v-.096l-.216-.216h-.12l-.048-.096-.192-.048-.576.096v.048h-.096l-.144.12-.12.024-.24.168-.12.144-.096.024-.096.12-.144.024-.528.576-.12.144-.048.144-.288.216-.072.192-.144.144-.072.144-.024.312-.072.072-.288.696-.288.744-.096.288-.144.216-.216.792-.336.672-.192.552-.168.288-.048.192-.072.072-.096.36-.288.72-.144.528-.072.072-.336.672-.312.744-.12.48-.072.048-.12.384-.072.072-.288.696-.264.744-.048.12-.072.048-.096.384-.072.048-.12.384-.072.072-.024.192-.144.336v.096h-.072v.12l-.096.048v.12h-.048v.096l-.504.384h-.768l-.792-.048-.456-.048-.048-.12H19.3l-.072-.168-.096-.048v-.264h.048l.12-.384.048-.048.024-.216.264-.672.024-.096h.072v-.12h.048v-.096h.048v-.12h.072v-.096h.048l.096-.384.072-.048.24-.72.312-.672.072-.264.168-.312.024-.168.288-.672.024-.144h.048v-.096l.096-.12.12-.384h.048l.192-.552.336-.744.216-.696.096-.12.024-.168.336-.696.312-.672.072-.192v-.12h.072l.144-.6.24-.48.144-.504.072-.048.24-.672.264-.648.312-.696.24-.6.216-.744.192-.288.288-.744.144-.24v-.072l.216-.24.168-.048h.36l.24.048.096.12h.168l.216.096.096.12h.12v.048h.12v.048l.144.024.144.096.336.072.216-.024.24-.096.312-.288.576-.288.624-.264.264-.072.744-.072.576.024.384.192h.096l.6.456.168.312.144.12.264.72.072.216.048.696-.024.816-.096.72-.144.768-.048.384-.048.048-.072.312-.264.648-.24.696-.264.672-.384.696-.384.624-.072.216h-.072l-.024.144-.384.552-.216.432-.192.336.048.168zm.984-8.928l.072.024.024-.048-.072-.168.144.072.096.192-.048.216.192.072.144.144-.216.168h-.12l.168.336h.048l.096.216.144.048-.072-.384.024-.096.24-.216.024-.24h-.12l-.144.072-.096-.024-.072-.144-.024-.216.072-.048.192-.024.072-.048-.096-.384-.096.024-.288.264-.048-.072-.024-.192-.048-.072h-.096v.096l-.168.36.096.072zm-1.992 9.264v.048l-.12.168.024.096.312.288-.048-.6.048-.12-.168-.072-.12-.144.048-.072-.024-.096-.072-.048-.048.168.168.384zm2.184-5.808l-.072-.024v.12l.096.216.456-.096-.12-.36.048-.096h-.12l-.216.24h-.072zm-.792.864v.048l.288.096.048.072v.12l.12.144.048.168h.048l.048-.168-.048-.384-.048-.096-.216.048-.096-.168-.072-.048v.048l-.12.12zm-1.896 4.08v.048h-.096l-.072.216h.12l.384-.432-.264-.12h-.168v.096l.096.192zm-2.064-7.584l-.048.024v.072l.168.096.072.168.24-.12v-.12l-.336-.144-.096.024zm4.944 1.488v.048l.096.048.24-.072.048-.192-.312.024-.072.144zm-8.52 4.92v.072h.264l.12-.096-.216-.168h-.072l-.096.192zm7.752-6.504h.072l-.072-.312h-.144l-.072.12.024.096.192.096zm-2.616 8.52l-.024.024.024.096h.192l.048.096.096-.024.024-.12-.048-.072-.168-.048-.144.048zm3.336-7.488v.072l.168-.096.024-.192-.048-.048-.072.024-.096.192.024.048zm-.984 3.12l-.048.048.024.12.192.024.072-.048.024-.096-.264-.048zm-8.64 7.272h.12l-.072-.264-.096-.024-.072.168.12.12zm9.744-8.352l-.024.024.024.096.192.024.096-.048.024-.072-.072-.048-.24.024zm-3.792 5.688l-.024.048.168.048.096-.048v-.096l-.216-.072-.024.12zm-3.336-4.416h.048l.048-.072-.048-.24-.072.024-.024.216.048.072zm5.496 1.704h.048l.096-.12v-.096h-.144l-.048.144.048.072zm.552-3.6h-.072l.024.12.072.048.12-.096-.048-.12-.096.048zm-3.144 5.616l-.024.048.12.048.096-.12-.12-.096-.072.12zm3.216-9.048h.072v-.096l-.12-.12-.048.096.024.096.072.024zm.384 3.216h-.048v.12l.168.048-.048-.216-.072.048zm-2.088 4.344h.048l.048-.216-.12.024-.048.072.072.12zm3.36-5.664l.048.024.048-.096-.048-.12h-.048l-.048.072.048.12zm-4.104 7.2l-.024.048.096.048.048-.096-.096-.072-.024.072zm3.552-6.96v.096l.12.072-.024-.144-.096-.024zm-8.904 7.488v.12h.096v-.12h-.096zm7.176-4.44v.096h.096v-.096h-.096zm.024-5.808l-.024.048.144-.072v-.048h-.096l-.024.072zm1.128 6.192l-.024.048.096-.024.072-.096-.144.072zM42.58 18.2l.024.048.096.072.168-.024.648-.384.384-.192.576-.456.576-.552.552-.528.36-.432v-.096h.048l.096-.192.36-.408.24-.192.024-.144h.048v-.096h.048v-.12h.048v-.096h.072v-.12h.048l.048-.096h.048v-.12h.072l.12-.288.192-.264.144-.072h.432l.36.144.192.216.072.36-.12.36-.12.168-.024.144-.264.264v.12h-.072l-.024.096-.144.12-.144.384h-.048l-.024.096-.144.12v.072l-.552.576-.048.168-.552.504-.048.144-.144.024-.24.312-.144.072-.264.264-.144.072-.528.528h-.12v.048h-.096v.048h-.12l-.12.144-.264.072-.072.144-.36.144-.12.12-.144.024v.072l-.288.048-.096.12-.528.144-.696.192h-.24l-.024.048-.48.12-.84.024-.384.024-.744-.12-.744-.192-.312-.048v-.072h-.12v-.048h-.096v-.048h-.12v-.048l-.624-.432-.12-.072-.12-.168-.048-.264.144-.312.312-.288.384-.12.384.168.36.096.36-.096.648-.48.36-.288.024-.144.168-.12v-.096l.168-.168v-.096l.432-.6.072-.072.024-.144h.072v-.12h.048v-.096h.048l.216-.504.12-.096v-.12l.072-.072.024-.144h.072l.288-.72.096-.336.12-.144.024-.264.24-.624.144-.528.192-.6.024-.264.048-.048.072-.6-.12-.72h-.048v-.096l-.216-.216h-.12l-.048-.096-.192-.048-.576.096v.048h-.096l-.144.12-.12.024-.24.168-.12.144-.096.024-.096.12-.144.024-.528.576-.12.144-.048.144-.288.216-.072.192-.144.144-.072.144-.024.312-.072.072-.288.696-.288.744-.096.288-.144.216-.216.792-.336.672-.192.552-.168.288-.048.192-.072.072-.096.36-.288.72-.144.528-.072.072-.336.672-.312.744-.12.48-.072.048-.12.384-.072.072-.288.696-.264.744-.048.12-.072.048-.096.384-.072.048-.12.384-.072.072-.024.192-.144.336v.096h-.072v.12l-.096.048v.12h-.048v.096l-.504.384h-.768l-.792-.048-.456-.048-.048-.12H31.3l-.072-.168-.096-.048v-.264h.048l.12-.384.048-.048.024-.216.264-.672.024-.096h.072v-.12h.048v-.096h.048v-.12h.072v-.096h.048l.096-.384.072-.048.24-.72.312-.672.072-.264.168-.312.024-.168.288-.672.024-.144h.048v-.096l.096-.12.12-.384h.048l.192-.552.336-.744.216-.696.096-.12.024-.168.336-.696.312-.672.072-.192v-.12h.072l.144-.6.24-.48.144-.504.072-.048.24-.672.264-.648.312-.696.24-.6.216-.744.192-.288.288-.744.144-.24v-.072l.216-.24.168-.048h.36l.24.048.096.12h.168l.216.096.096.12h.12v.048h.12v.048l.144.024.144.096.336.072.216-.024.24-.096.312-.288.576-.288.624-.264.264-.072.744-.072.576.024.384.192h.096l.6.456.168.312.144.12.264.72.072.216.048.696-.024.816-.096.72-.144.768-.048.384-.048.048-.072.312-.264.648-.24.696-.264.672-.384.696-.384.624-.072.216h-.072l-.024.144-.384.552-.216.432-.192.336.048.168zm.984-8.928l.072.024.024-.048-.072-.168.144.072.096.192-.048.216.192.072.144.144-.216.168h-.12l.168.336h.048l.096.216.144.048-.072-.384.024-.096.24-.216.024-.24h-.12l-.144.072-.096-.024-.072-.144-.024-.216.072-.048.192-.024.072-.048-.096-.384-.096.024-.288.264-.048-.072-.024-.192-.048-.072h-.096v.096l-.168.36.096.072zm-1.992 9.264v.048l-.12.168.024.096.312.288-.048-.6.048-.12-.168-.072-.12-.144.048-.072-.024-.096-.072-.048-.048.168.168.384zm2.184-5.808l-.072-.024v.12l.096.216.456-.096-.12-.36.048-.096h-.12l-.216.24h-.072zm-.792.864v.048l.288.096.048.072v.12l.12.144.048.168h.048l.048-.168-.048-.384-.048-.096-.216.048-.096-.168-.072-.048v.048l-.12.12zm-1.896 4.08v.048h-.096l-.072.216h.12l.384-.432-.264-.12h-.168v.096l.096.192zm-2.064-7.584l-.048.024v.072l.168.096.072.168.24-.12v-.12l-.336-.144-.096.024zm4.944 1.488v.048l.096.048.24-.072.048-.192-.312.024-.072.144zm-8.52 4.92v.072h.264l.12-.096-.216-.168h-.072l-.096.192zm7.752-6.504h.072l-.072-.312h-.144l-.072.12.024.096.192.096zm-2.616 8.52l-.024.024.024.096h.192l.048.096.096-.024.024-.12-.048-.072-.168-.048-.144.048zm3.336-7.488v.072l.168-.096.024-.192-.048-.048-.072.024-.096.192.024.048zm-.984 3.12l-.048.048.024.12.192.024.072-.048.024-.096-.264-.048zm-8.64 7.272h.12l-.072-.264-.096-.024-.072.168.12.12zm9.744-8.352l-.024.024.024.096.192.024.096-.048.024-.072-.072-.048-.24.024zm-3.792 5.688l-.024.048.168.048.096-.048v-.096l-.216-.072-.024.12zm-3.336-4.416h.048l.048-.072-.048-.24-.072.024-.024.216.048.072zm5.496 1.704h.048l.096-.12v-.096h-.144l-.048.144.048.072zm.552-3.6h-.072l.024.12.072.048.12-.096-.048-.12-.096.048zm-3.144 5.616l-.024.048.12.048.096-.12-.12-.096-.072.12zm3.216-9.048h.072v-.096l-.12-.12-.048.096.024.096.072.024zm.384 3.216h-.048v.12l.168.048-.048-.216-.072.048zm-2.088 4.344h.048l.048-.216-.12.024-.048.072.072.12zm3.36-5.664l.048.024.048-.096-.048-.12h-.048l-.048.072.048.12zm-4.104 7.2l-.024.048.096.048.048-.096-.096-.072-.024.072zm3.552-6.96v.096l.12.072-.024-.144-.096-.024zm-8.904 7.488v.12h.096v-.12h-.096zm7.176-4.44v.096h.096v-.096h-.096zm.024-5.808l-.024.048.144-.072v-.048h-.096l-.024.072zm1.128 6.192l-.024.048.096-.024.072-.096-.144.072zm9.048-6.696l.024.024-.072.408-.072.168-.072.024-.264.696-.216.672-.12.12-.024.24-.168.288-.072.312h-.048l-.144.384-.072.072v.096l-.288.6-.048.264h-.048l-.168.552-.264.384v.096h-.072v.12h-.048l-.096.336-.168.696-.288.696-.192.528-.12.12v.168l-.144.336-.024.168h-.048l-.192.672-.096.408v.384l.24.312.312.168.648-.096.624-.408.288-.336.216-.096.48-.6.432-.576.48-.624.144-.144.072-.168.096-.048.048-.168.12-.096.048-.168.384-.48.12-.336.216-.336.384-.312.408.048.216.144.24.288.072.192-.072.36-.384.696-.048.168-.12.12v.096l-.12.168-.096.048v.12l-.216.216v.096h-.048l-.072.168-.096.048-.048.168-.288.216-.048.168-.12.048-.024.144-.072.072-.048.168-.216.168v.072l-.408.432-.528.504-.264.36-.168.048-.168.216h-.072l-.648.504-.288.24-.12.024v.048l-.696.192-.336.12h-.768l-.624.048-.024-.048h-.192l-.312-.096-.36-.192-.24-.408-.096-.048v-.288l-.192-.36-.24-.312-.072-.696v-.816l.168-.696.072-.36h.048l.048-.384.24-.696.24-.72.12-.12.192-.552.096-.144.096-.384.048-.048.048-.288.096-.072.072-.36.048-.048v-.096l.12-.12.024-.168.168-.36.072-.072.216-.696.12-.216.264-.72.336-.672.216-.528.12-.144.192-.504.288-.264.24-.12h1.656l.336.072.168.12.12.168zm1.608-2.904v.096l-.072.048v.096l-.192.312-.12.12-.648.384-.12.024-.12.144h-.36l-.816-.144-.288-.168-.144-.144-.024-.144-.096-.048-.312-.696-.048-.336.072-.432.192-.36.096-.048.192-.312.192-.216.168-.024.12-.096.72-.096.792.216.552.456.048.168.072.072.096.288.048.84zm-4.44 6.432l-.024.024.024.216.072.168.072.048.072-.096-.072-.216.24-.072.024-.096-.408.024zm-1.488 5.472v.048l-.024.072-.168.048-.024.096h.12l.144-.096.072-.168v-.12l-.096-.168-.072-.048-.048.048.096.288zm-.96.888l-.024.024.12.288.168-.072.048-.216-.072-.048-.24.024zm3.744-8.04l.048-.024-.144-.336-.072-.048h-.12l.168.384.12.024zm-2.496 3.456l.048.048.168-.072.048-.144-.12-.048-.168.072-.024.072.048.072zm-.456 4.464v.048l.168-.072v-.144h-.096l-.072.168zm1.296-5.232h.072v-.096l-.12-.12-.048.072.024.096.072.048zm3.672-7.968l-.024.048.12.048.048-.12-.096-.048-.048.072zm-4.632 11.784l-.048.096.096.048.048-.096-.096-.048zm1.728-5.448v.048h.096l.072-.096-.168.048zm10.032-3.528h.24l.048-.048h.768l.312.096.048.072.384.096.288.216.288.096.528.552.144.12.072.168.096.048v.12l.12.096.072.72.072.768-.048.384-.096.264-.12.648-.216.48-.12.12-.144.432-.12.048-.024.168-.384.576-.576.552-.624.432-.336.192-.12.024-.096.12h-.12v.048l-.696.216-.408.096h-.192l-.168.072h-.744l-1.536.048-.096.024-.288.264-.072.168-.072.744.024.72h.048l.048.168.432.552.36.264.24.12.816.144.792-.024.336-.072.744-.288.72-.312.528-.408h.12l.048-.096h.096l.264-.288.216-.072.24-.312.216-.096.168-.24.312-.24.456-.6.48-.6.456-.6.312-.408.192-.312.408-.024.336.048.336.312.096.312-.144.48-.144.144-.072.192-.24.264-.432.624-.024.168-.264.264v.12l-1.056 1.104-.984.984-.312.192-.048.072-.168.024-.144.144-.6.408-.096.024-.12.144h-.12v.048l-.384.096-.048.072-.384.072-.72.216-.096.024-.048.072-.768.096h-.048v.048l-.552.048-.168.072-.792-.072h-.36l-.6-.192-.384-.048-.72-.336-.288-.168-.144-.144-.192-.072-.096-.216-.12-.048-.048-.168-.312-.432-.192-.672-.096-.768-.048-.744.072-.768.096-.384.024-.384.168-.696.216-.696.024-.288.048-.048.096-.336.288-.528.288-.624.12-.192.048-.168.144-.096.096-.288h.048l.36-.624.12-.144.072-.192.528-.504.288-.24.504-.552.192-.216.288-.144.336-.24.264-.096.12-.144.36-.168.72-.216.744-.048zm.576 2.496l-.192-.096-.408-.024-.552.192-.144.024-.528.456h-.096l-.504.6-.408.648-.36.648-.024.12h-.072v.096h-.048l-.024.168-.288.6-.024.168.168.216.144.072h.888l.288-.024.144-.12.192-.048.504-.288.048-.072.144-.024.504-.576.264-.456.312-.696.288-.768.048-.528-.264-.288zm-4.584 2.544l.048.024.288-.36.048-.144-.168-.048-.192.024-.072.384.048.12zm6.288-2.256l.024.048.192-.024.192-.144-.192-.072-.312-.024v.12l.096.096zm-7.056 5.856h-.048l.024.192.312.096.048-.288-.048-.048-.144.072-.144-.024zm-.168-1.656l-.048.024v.096l.168.072.12-.072v-.096l-.24-.024zm1.92-3.552v.048l.24-.072.072.024v-.168l-.192.024-.12.144zM61.42 9.32h.048V9.2l-.048-.072-.12-.024.024.192.096.024zm-6.6 5.016h.12v.216h-.12v-.216zm7.008-3.696v.216h.12v-.216h-.12zm-3.912-.408l.072.024.048-.096-.048-.12h-.072l-.048.072.048.12zm2.928-1.92l-.048.096.168.048.072-.12-.192-.024zm1.056-.024v.048l.072.048.096-.024.048-.072-.096-.048-.12.048zm-5.592 4.368l-.024.048.12.048.048-.12-.096-.048-.048.072zm5.592-1.152h.048l-.048-.144-.12-.024.024.096.096.072zm.48-1.104v-.048l-.144-.048-.024.096.096.048.072-.048zm-7.704 6.312v-.048l-.144-.048-.024.096.072.048.096-.048zm.096.648v.12h.12v-.12h-.12zm1.248-4.08l-.048.024v.096l.048.024.072-.144-.072-.048v.048zm-1.08 2.52l-.048.096.144.048-.024-.096-.072-.048zM90.172 3.416l.024.048.168-.024.6-.432.36-.264.168-.048.336-.312.264-.12.048-.096.6-.168.12-.12.696-.168.744-.072h.432l.672.216.36.192.288.24.24.264.024.144.12.072.144.792.12.552-.048.048-.048.384-.096.336-.048.408-.192.624h-.048l-.072.36-.312.72-.144.288-.24.768-.12.288-.24.36-.216.552v.12l-.264.696-.12.36-.36.648-.192.72-.168.432h-.048v.096h-.048v.12l-.096.048-.024.168h-.048v.096h-.072l-.264.648-.096.432-.12.12v.168l-.048.048-.048.264h-.072v.12h-.048l-.048.264-.168.288-.12.576-.216.456-.12.12-.192.624-.12.12-.216.6v.096l-.312.696-.288.72-.072.096-.216.696-.264.768-.048.384.096.672.168.36.48.576.072.048v.096l.192.192v.336l-.096.408-.096.096-.168.624-.12.288-.48.456h-.192l-.216-.12-.168-.024-.576-.408-.168-.144-.048-.096-.24-.12-.168-.24-.144-.024-.336-.408v-.096l-.096-.072-.288-.72-.192-.72-.048-.384-.048-.072.12-.768.096-.768v-.048h.048l.12-.384.12-.12.144-.384.192-.696.192-.576.168-.216.216-.648.072-.072.264-.696v-.12h.048l.264-.744.12-.216.24-.672.24-.6.072-.048.096-.168.072-.36.192-.552.072-.048.264-.672.264-.768.288-.648.312-.744.288-.696.288-.576.216-.408.24-.72.168-.48.264-.744.216-.672.072-.648-.216-.336-.336-.12-.792.096-.192.024-.024.048-.192.048-.696.384-.432.336h-.12l-.024.072-.168.072-.552.504-.288.288-.024.096-.144.12-.048.168-.12.144-.072.288-.072.096-.048.288-.12.12-.072.264-.144.144-.024.168-.264.696-.264.768-.072.072-.216.696-.312.6-.264.6-.12.144-.168.744-.144.24v.168l-.12.096-.024.288-.168.288-.048.192-.192.336-.12.552-.168.216-.24.552-.12.312v.096h-.048l-.048.288-.096.072-.048.216-.072.072-.048.288-.168.264v.12l-.12.144-.216.72v.096h-.048l-.024.144-.168.36-.024.168-.168.312-.24.696-.384.432-.264.096-.768.024H81.7l-.192-.024-.264-.168-.144-.336.168-.504.24-.672.216-.672h.048l.096-.384.12-.12.264-.696.264-.72.072-.048.288-.696.216-.696.096-.072v-.168l.096-.048v-.12h.048v-.096h.072V14h.048v-.096h.048l.216-.696.048-.24.072-.048.096-.336.312-.648.216-.504.288-.576.168-.72.288-.72.336-.696.288-.672.288-.744.288-.696.24-.744.168-.312.024-.432-.096-.408-.144-.216-.336-.096-.648.048-.096.072-.384.072-.24.144-.144.024v.072h-.096v.048h-.12l-.048.096h-.12v.072h-.096l-.6.456-.552.504-.264.288-.12.048v.096l-.144.12-.048.168-.144.144-.096.336-.288.672-.096.144v.168h-.048l-.264.696-.048.288h-.048l-.12.456-.12.072-.096.312-.312.672-.096.192-.072.336-.24.672-.24.648-.312.696-.288.696-.096.36-.072.072-.528 1.296-.144.192-.096.648-.168.336-.12.12-.024.192-.072.072-.12.432h-.048l-.144.36-.072.072v.12l-.048.024-.12.336-.072.384-.264.744-.456.528-.24.12-.432.024-.384-.048-.696.072-.384-.048-.312-.192-.096-.12v-.336l.288-.768.288-.672.24-.696.12-.336h.072l.072-.336.192-.48h.048v-.12h.072v-.096l.096-.168v-.12h.048V15.8h.072l.144-.6.288-.6v-.096h.048l.12-.36.048-.312h.048v-.096h.048v-.12h.072v-.096h.048v-.12h.048v-.096l.096-.12.144-.384.024-.216h.072l.072-.384.336-.648.264-.744.168-.336.048-.192.144-.072.048-.288.264-.672.312-.72.264-.672.192-.528v-.12h.048v-.096l.216-.504.12-.096v-.12h.048v-.096h.048l.192-.624.168-.528.096-.264-.048-.168-.144-.12-.36.024-.696.288-.6.192v.048l-.696.24-.624.168-.216.168-.72.288-.72.312-.672.36-.336.192-.528.48-.528.576-.216.432-.144.744-.024.384.096.432h.048l.048.312.216.312.288.216.672.36.36.336.048.768v.096l.072.12-.072.048v.408l-.072.36-.144.216-.408.048-.696-.12-.528-.144-.048-.072-.432-.144-.6-.48-.408-.408-.144-.384-.12-.096-.024-.168-.12-.096v-.096l-.216-.24-.072-.384-.048-.048v-.168h-.048l-.144-.744.024-.816.12-.72.12-.288.072-.072.288-.672.168-.216.048-.168.12-.096.048-.168.192-.312.192-.12.264-.408.192-.072.096-.144.432-.192.432-.36.144-.024v-.048l.384-.288.144-.024.312-.264.144-.024V4.16l.384-.096.096-.072.384-.096.216-.168.36-.12.024-.048.36-.072.696-.288.744-.264.6-.24.672-.216.624-.264.312-.072.168-.12.696-.264.768-.168h.168l.336.168.288.264.096.144.336.216.576.576.288.168.36-.024.408-.264.192-.048.072-.072.168-.024.168-.096.096-.12.168-.048.048-.12.288-.12.072-.072.624-.24.48-.144.432-.096.792.024.312.048.312.144h.12l.216.168.144.048.312.288.408.624.024.144.12.192.168.096zm-8.232.552l-.024.048.168.264-.048.048.144.264-.048.072-.216-.144-.048.024.048.408-.048.744h.12l.264-.288.168.072.072-.144-.024-.456-.264.096-.072-.096.216-.288.024-.096-.168-.216v-.096l.168-.096.048-.072-.048-.216-.216.024-.168.072-.048.072zm5.208 2.88v.048l.336.48.144.048.288-.432-.6-.432-.168.288zm-6.312.72v.072l-.168.216.072.192.12.048.312-.24.264-.072.048-.072-.312-.216-.216-.24-.096.144-.024.168zm.72-3.12v.264l-.096.024-.192.216-.096.024.072.168.192.048.144-.24.192-.072v-.216l-.072-.168-.144-.048zm13.368.24v.072h.144l.264-.288.024-.096-.552-.096-.12.216.024.168.12.024.192-.24.048.072-.144.168zm-6.648-.84v.048l.168.072.168-.024.12.144.168-.048.048-.096-.168-.096v-.24l-.072-.144h-.144l.024.144-.048.072-.168.072-.096.096zm-.72.432l-.024.048-.168.36.096-.048.096-.096.192-.048v-.192l.288-.096.024-.144-.096-.12-.336.216-.072.12zm-5.088.072v.192l.36.096.072-.048-.024-.216-.072-.168-.168-.144-.168.288zm-1.272 1.68l.024.048.12-.024.264.072-.024-.216-.096-.12-.264-.096-.072.024-.024.072.072.24zM87.46 8.24v.048l.24.12.072-.024.024-.312.144-.096.024-.096-.048-.072h-.072v.12l-.12.12-.168.072-.096.12zm1.272-3.072l-.024.024-.048.072.048.096.072.024.072-.048.024-.192.168-.216-.096-.168-.216.408zm-7.416 1.32l-.048.024.048.384.072.048.048-.072V6.68l.12-.12v-.12l-.24.048zM95.62 5.192h.048l.072-.216-.384-.096V5l.096.12.168.072zm-7.224-2.28h-.048l-.12.216v.12h.168l.168-.264-.168-.072zm-6.48.624l-.048-.072H81.7l-.048.24.192.072.096-.096-.024-.144zM80.5 9.464l.024.024.216-.432-.144-.096h-.072l.024.096-.048.408zm-.912-.048l-.048.024v.12l.168.096.048-.072.096-.024v-.12l-.072-.048-.192.024zm-1.416 4.008v.048l-.144.168.048.096h.096l.048-.072v-.192l.12-.12v-.048h-.216l.048.12zm10.992 8.784v.048l.072.048.168-.072.12-.24-.288.096-.072.12zM93.46 7.856l-.024.072.12.096h.12l.048-.072v-.12l-.12-.072-.144.096zm-6.384.432h.072l-.024-.216-.144-.096-.096.168.024.072.168.072zm-5.952-4.176h.048l-.024-.12.072-.264h-.096l-.12.168.024.168.096.048zm4.608 8.064l.048.096h.096l.072-.168v-.12h-.168l-.048.192zM80.068 8.6l-.048.024.024.096.168.072.096-.024.048-.096-.168-.096-.12.024zm.96-5.28l.192.096-.024-.216-.192-.12-.024.168.048.072zm-3.72 12.48h.048l-.048-.288-.168-.048.024.216.144.12zm2.112-4.848h.072l.024-.264-.096-.048-.096.144v.096l.096.072zm7.944-2.16h.048l.048-.096-.096-.144-.12-.024-.048.072.096.168.072.024zm6.312.744v.072h.264l.024-.168-.072-.048-.216.144zm-5.16-3.192l-.024.048.144.096h.096l.048-.048-.048-.144-.096-.024-.12.072zm.696-.864h.048l.048-.192-.048-.072-.096-.024-.072.168.12.12zm-2.976 5.592h.048l.096-.144v-.072l-.216-.048.024.192.048.072zm3.192-6.648v.12h.216l.048-.048-.024-.072-.096-.048-.144.048zm5.976-1.296v.288l.12-.024.048-.072-.072-.168-.096-.024zm-.216.552v.264h.096l.072-.264h-.168zM78.292 15.176l.048-.024v-.096l-.072-.072h-.144l.024.12.072.072h.072zm10.44-10.704l.048.024-.048-.24h-.144l-.024.048.168.168zm-.504.24v-.048l-.264-.072.024.12.168.048.072-.048zm.72 1.224v-.072h-.24l.024.096.168.048.048-.072zm-8.544 2.208v.048h.168v-.168h-.12l-.048.12zm7.728-2.568h.048V5.48l-.12-.12h-.048l.024.192.096.024zM87.028 4.28h.072v-.12l-.12-.096-.048.072.024.096.072.048zm7.392 3.456v.072l.12-.024.096-.144-.144-.024-.072.12zm-14.016-.24h-.096l.024.12.072.024.12-.12-.072-.096-.048.072zm7.872-1.8v.048h.168v-.168h-.096l-.072.12zM80.14 9.968l.048.024.048-.096-.096-.12h-.072v.096l.072.096zm1.296-4.344l.048.024.048-.096-.024-.096-.072-.048-.048.096.048.12zm.336-1.416v.072h.096l.12-.12-.096-.048-.12.096zm1.344 14.04h.072v-.12l-.072-.048-.096.072.096.096zM86.5 2.936v.048h.096l.048-.168h-.096l-.048.12zm-6.336 8.184h.072l-.024-.12-.072-.048-.072.12.096.048zm14.784-4.176h.072v-.12l-.072-.048-.072.072.072.096zm-.384-.912l-.024.048.096.048.072-.12-.12-.048-.024.072zm-7.752 4.272v.12h.12v-.12h-.12zm1.464-3.096v.12h.12v-.12h-.12zm-.792-.12l.048-.048.096-.048.024.048-.048.072-.12.024v-.048zm.192-3.528v-.048l-.12-.048-.024.096.072.048.072-.048zm-7.92 7.344h-.048v.12l.096-.024v-.144h-.048v.048zm12.384-.312v.096h.12v-.096h-.12zm-2.76 9.816v.12h.096v-.12h-.096zm-.432.288v.096h.144l-.024-.072-.12-.024zm-11.256-6.144v.096h.096v-.096h-.096zm23.904-7.296h.24l.048-.048h.768l.312.096.048.072.384.096.288.216.288.096.528.552.144.12.072.168.096.048v.12l.12.096.072.72.072.768-.048.384-.096.264-.12.648-.216.48-.12.12-.144.432-.12.048-.024.168-.384.576-.576.552-.624.432-.336.192-.12.024-.096.12h-.12v.048l-.696.216-.408.096h-.192l-.168.072h-.744l-1.536.048-.096.024-.288.264-.072.168-.072.744.024.72h.048l.048.168.432.552.36.264.24.12.816.144.792-.024.336-.072.744-.288.72-.312.528-.408h.12l.048-.096h.096l.264-.288.216-.072.24-.312.216-.096.168-.24.312-.24.456-.6.48-.6.456-.6.312-.408.192-.312.408-.024.336.048.336.312.096.312-.144.48-.144.144-.072.192-.24.264-.432.624-.024.168-.264.264v.12l-1.056 1.104-.984.984-.312.192-.048.072-.168.024-.144.144-.6.408-.096.024-.12.144h-.12v.048l-.384.096-.048.072-.384.072-.72.216-.096.024-.048.072-.768.096h-.048v.048l-.552.048-.168.072-.792-.072h-.36l-.6-.192-.384-.048-.72-.336-.288-.168-.144-.144-.192-.072-.096-.216-.12-.048-.048-.168-.312-.432-.192-.672-.096-.768-.048-.744.072-.768.096-.384.024-.384.168-.696.216-.696.024-.288.048-.048.096-.336.288-.528.288-.624.12-.192.048-.168.144-.096.096-.288h.048l.36-.624.12-.144.072-.192.528-.504.288-.24.504-.552.192-.216.288-.144.336-.24.264-.096.12-.144.36-.168.72-.216.744-.048zm.576 2.496l-.192-.096-.408-.024-.552.192-.144.024-.528.456h-.096l-.504.6-.408.648-.36.648-.024.12h-.072v.096h-.048l-.024.168-.288.6-.024.168.168.216.144.072h.888l.288-.024.144-.12.192-.048.504-.288.048-.072.144-.024.504-.576.264-.456.312-.696.288-.768.048-.528-.264-.288zm-4.584 2.544l.048.024.288-.36.048-.144-.168-.048-.192.024-.072.384.048.12zm6.288-2.256l.024.048.192-.024.192-.144-.192-.072-.312-.024v.12l.096.096zm-7.056 5.856h-.048l.024.192.312.096.048-.288-.048-.048-.144.072-.144-.024zm-.168-1.656l-.048.024v.096l.168.072.12-.072v-.096l-.24-.024zm1.92-3.552v.048l.24-.072.072.024v-.168l-.192.024-.12.144zm4.248-1.368h.048V9.2l-.048-.072-.12-.024.024.192.096.024zm-6.6 5.016v.216h.12v-.216h-.12zm7.008-3.696v.216h.12v-.216h-.12zm-3.912-.408l.072.024.048-.096-.048-.12h-.072l-.048.072.048.12zm2.928-1.92l-.048.096.168.048.072-.12-.192-.024zm1.056-.024v.048l.072.048.096-.024.048-.072-.096-.048-.12.048zm-5.592 4.368l-.024.048.12.048.048-.12-.096-.048-.048.072zm5.592-1.152h.048l-.048-.144-.12-.024.024.096.096.072zm.48-1.104v-.048l-.144-.048-.024.096.096.048.072-.048zm-7.704 6.312v-.048l-.144-.048-.024.096.072.048.096-.048zm.096.648v.12h.12v-.12h-.12zm1.248-4.08l-.048.024v.096l.048.024.072-.144-.072-.048v.048zm-1.08 2.52l-.048.096.144.048-.024-.096-.072-.048zm20.256-4.992l-.024.024-.192.768-.192.576h-.048v.12h-.048v.096h-.072v.12h-.048v.096l-.192.36-.072.408-.072.048-.096.24-.144.168-.144.408-.096.432-.288.672-.168.36-.096.384-.264.672-.096.408-.024.432.048.432.096.264.144.024.048.12h.288l.696-.288.6-.528.168-.072.528-.576.24-.264.216-.336.408-.504.12-.096.048-.168.12-.048.048-.168.12-.048.048-.168.216-.216.024-.144.408-.576.144-.336.24-.36.144-.096.36.024.336.168.336.456.024.192-.336.672-.216.288v.096l-.192.312-.072.048v.12h-.048l-.048.168-.456.528-.024.144-.096.048-.096.168-.168.144v.096l-.216.216-.024.144-.096.048-.192.288-.576.552-.552.528-.624.528-.072.072-.144.024v.048h-.096v.072h-.12l-.048.096-.144.024-.312.192-.36.144-.168.024-.24.12-.72.096-.072.048-.768-.096-.36-.096-.312-.144-.552-.576-.312-.384-.024-.168-.336-.216-.168.048-.6.504-.552.504-.504.216-.072.072-.384.12-.552.048v.048l-.696.072-.384-.048-.048-.072-.288-.048v-.048h-.096v-.048h-.12V20h-.096v-.048l-.336-.168-.36-.36-.024-.12-.144-.12-.072-.312-.048-.048-.048-.336-.048-.048-.096-.72-.024-.432.096-.744.072-.408v-.36l.168-.72.168-.48.168-.672.264-.72.264-.672.144-.576.216-.36.072-.264.144-.144.144-.36.168-.24.336-.672.168-.12.072-.192.144-.12.288-.48.528-.528.096-.048.168-.216.144-.024.048-.12.168-.024.096-.144.144-.024.072-.072.216-.048.048-.096.12-.024.048-.096h.096l.12-.12.72-.168.36-.048.768.096.336.072V7.4l.264.048.6.48.264.288.096.168.024.144.12.072v.096l.48.288.144-.072h.192l.6-.288L117.052 8l.072-.048h.192l.264.24.096.144-.096.36-.192.384-.168.504-.312.696-.312.528zm-4.728-.984l-.024.024h-.12v.048h-.096v.048h-.12l-.144.24-.168.048-.504.576-.432.672-.432.624-.096.24h-.072v.12l-.072.024-.048.288-.192.288-.096.264-.192.336-.192.696-.072.384-.24.528-.168.72-.072.744.024.48.144.288.264.288.312.12.432-.024.504-.168.048-.096h.12l.072-.12h.096l.288-.312.072-.024v-.048l.552-.528.408-.528.288-.672.24-.72.12-.144.144-.336v-.096l.096-.144v-.096l.072-.048.24-.768.12-.336.096-.144.288-.744.144-.336.048-.672-.048-.096-.024-.264-.12-.12-.048-.168-.12-.168-.312-.192-.384-.096h-.264l-.36.12zm-5.016 7.632h-.072l.024.096.144.072v.048l.312-.048.12-.072-.048-.264-.216.024-.264.144zm6.384-2.76l-.024.048.216.168h.312l.144.096.24.048v-.096l-.24-.096-.072-.144-.072-.048-.072.096-.072.024-.312-.144-.048.048zm-.888 4.08l-.024.048-.096.048.048.096.168-.072.12-.144.048-.264-.168-.048-.096.336zm-.288-1.416v.048l.192.048.192-.216-.072-.048-.192.024-.12.144zm1.296 1.224h.072l-.048-.192-.12-.12h-.048l-.048.096.024.144.168.072zm1.512-7.848l-.024.024v.12l.216.096.048-.12-.072-.168-.048-.024-.024.048-.096.024zm-2.328 5.832l-.048.024.024.192.096.024.072-.048.072-.168-.072-.048-.144.024zm.336-.312v.048l.072.048.072-.024.12-.336h-.096l-.048.048.024.048-.144.168zm1.608-4.752l.024.024v.12h.168l-.12-.264-.096-.024-.048.096.072.048zm.96-.552l-.024.024.168.12.168-.048-.072-.144-.24.048zm-1.272-.312v.072l.048.024.072-.048.168-.288h-.072l-.216.24zm-.336 3.288h.072v-.216h-.168l.024.192.072.024zm.912-1.416l-.024.048.048.048h.096l.072-.072v-.096l-.096-.048-.096.12zM107.5 18.08v.072l.072-.024.024-.12.144-.12.024-.072-.048-.024-.192.192-.024.096zm5.376.168v.072l.192-.096.024-.072-.096-.096-.12.192zm.768-1.224v.048l.192-.048.024-.168-.168.072-.048.096zm-.072.432h.072l-.024-.264-.072.024-.048.168.072.072zm-6.024-.024v.072l.192-.024.024-.072-.168-.048-.048.072zm6.408-3.12v.048h.12l.048-.168h-.096l-.072.12zm-6.24 4.128v.048l.216.048-.048-.144-.168.048zm3.888-9.576h.072v-.096l-.12-.048-.024.096.072.048zm-3.456 3.864l-.048.096h.144l.024-.096h-.12zm7.224-.864l-.096.048v.096h.096v-.144zm-1.032.768l.048.048.048-.096-.048-.072-.048.12zm9.792-9.84h.048l.072-.048.744-.024.84.048h.072l.216.144.12.264-.072.336-.144.36-.024.216-.144.312-.096.36-.096.12-.12.48-.096.12-.288.792-.072.072-.288.672-.12.336-.12.12-.024.264-.072.168-.072.048-.048.384-.144.216-.024.12-.072.048-.288.72-.072.36-.36.6-.168.768-.264.576-.312.72-.576 1.44-.288.696-.192.576-.072.072-.48 1.248-.168.696-.072.408v.288l.048.144.312.288.144.072.36-.048.36-.144.456-.36.144-.072.192-.216.144-.048.336-.456.168-.12.192-.288.288-.216.096-.24.264-.264.432-.624.072-.072.024-.144.12-.048.048-.168.12-.048.048-.288.12-.096.048-.168.096-.048.384-.672.216-.12h.408l.36.192.168.336.048.36-.144.36-.408.624-.432.648-.096.168-.072.048-.336.672-.072.048-.024.096-.216.12v.096l-.504.552-.504.576-.528.552-.552.48-.6.384-.24.072-.168.12-.168.048-.144.12-.384.12-.696.12-.24-.048-.048-.048h-.792l-.624-.24-.048-.096-.312-.192-.36-.456-.024-.264-.096-.312-.168-.312-.024-.792.168-.72.12-.696.264-.744.264-.72.336-.672.168-.792.192-.312.264-.648.24-.648.24-.744.288-.672.576-1.392.024-.096.072-.048.12-.384.288-.696.312-.696.264-.696.24-.744.264-.456.24-.576.048-.336h.048l.192-.552.312-.48.144-.12.192-.024v-.048l.264-.072zm-.048 2.64l-.072.144.12.144-.048.12.048.096h.12l.072-.048.072-.432-.192-.096-.12.072zm-3 6.384v.048l.216-.024.168-.192-.048-.216h-.168v.12l-.168.264zm-1.848 5.928v.048l.312.024.12-.072-.336-.216-.072.024-.024.192zm2.592-6.936l-.024.024-.048.096.024.072.24.168v-.216l.048-.072-.192-.096-.048.024zm-.36 1.824v.048l.072.048h.36v-.096l-.072-.048-.24-.024-.12.072zm-1.368 4.56v.048l.192-.024.096-.192-.072-.048-.168.072-.048.144zM123.316 6.8v.072l.192-.024.024-.144-.168-.048-.048.144zm-.816 1.656v.048l.168.048.096-.048v-.12l-.192.024-.072.048zm-3.024 10.032h-.072l.024.096h.192l.048-.096-.072-.048-.12.048zm1.704-4.776h.072l.024-.048-.072-.072-.168.072.144.048z" fill="#FFF" fill-rule="evenodd"/></svg>