<svg width="14" height="21" viewBox="0 0 14 21" xmlns="http://www.w3.org/2000/svg"><title>calorieen icon</title><path d="M2.536 17.04c0 .156.008.31.023.462.066.655.276 1.267.594 1.81-.703-.416-1.335-.938-1.85-1.547-.736-.87-1.547-2.293-1.236-4.137.51-3.024 1.93-4.54 3.437-6.146C5.215 5.658 6.97 3.786 6.792 0 10.622 3.69 14 7.396 14 13.435c0 2.297-1.123 4.33-2.844 5.6.153-.313.266-.645.332-.992.01-.046.018-.092.025-.138.043-.28.057-.568.035-.864-.01-.13-.023-.253-.04-.373-.034-.24-.084-.46-.145-.663-.894-2.962-4.37-2.593-2.424-8.877-.472.46-.982.935-1.502 1.43l-.095.09c-.568.54-1.142 1.108-1.69 1.705-.236.258-.465.523-.688.793-.535.65-1.02 1.336-1.414 2.068-.017.032-.037.063-.053.095-.59 1.126-.96 2.36-.96 3.733zm7.862.085c.057.78-.224 1.545-.79 2.155-.65.698-1.608 1.113-2.566 1.113-.12 0-.243-.014-.365-.02C5 20.19 3.69 18.766 3.69 17.04c0-2.643 1.66-4.775 3.522-6.653.017 2.217 1.02 3.29 1.875 4.21.71.76 1.222 1.31 1.31 2.528z" fill="#D8D5D0" fill-rule="evenodd"/></svg>