<svg width="9" height="13" viewBox="0 0 9 13" xmlns="http://www.w3.org/2000/svg"><title>€</title><path d="M8.685 9.405c-.075.525-.24.99-.525 1.395-.24.36-.585.69-1.08.96-.495.27-1.14.45-1.98.45-1.185 0-1.98-.39-2.52-.945-.54-.54-.81-1.26-.96-1.875-.075-.315-.12-.585-.135-.84-.015-.24-.03-.42-.045-.525H.45v-1.08h.96v-.21c-.015-.045-.015-.135-.015-.24 0-.135 0-.24.015-.315v-.24H.45V4.86H1.5c.015-.195.06-.705.24-1.29.18-.585.48-1.23 1.035-1.74.54-.51 1.335-.87 2.475-.87.705 0 1.245.15 1.68.39.435.24.78.57 1.02.885.285.375.51.81.645 1.29L6.66 4.08c0-.165-.075-.495-.27-.81-.195-.315-.54-.585-1.095-.585-.6 0-.975.375-1.2.84-.225.48-.315 1.02-.315 1.335h2.565v1.08h-2.61c-.015.105-.015.195-.015.255v.285c0 .105 0 .195.015.255v.21h2.61v1.08H3.75c0 .255 0 .915.195 1.47.18.555.54 1.065 1.26 1.065.66 0 1.005-.405 1.2-.81.105-.24.18-.51.225-.81l1.035.225c.33.075.675.165 1.02.24z" fill="#BBB4AF" fill-rule="evenodd"/></svg>