<svg width="18" height="18" viewBox="0 0 18 18" xmlns="http://www.w3.org/2000/svg"><title>Combined Shape</title><path d="M12.638 10.375c3 1.223 5.14 3.91 5.36 7.083.02.292-.208.542-.5.542H.502C.21 18-.02 17.75 0 17.458c.222-3.172 2.364-5.86 5.363-7.083C6.403 11.643 7.67 12.333 9 12.333c1.33 0 2.596-.69 3.638-1.958zm-4.927.282c-.338-.183-.658-.43-.956-.728-1.25-1.252-2.087-3.373-2.087-5.117C4.667 2.32 6.372.27 8.557.025 8.703.008 8.85 0 9 0c.15 0 .297.008.443.025 2.185.246 3.89 2.296 3.89 4.788 0 1.744-.836 3.865-2.087 5.116-.298.296-.62.544-.957.727-.07.036-.138.07-.207.1-.14.063-.28.115-.423.153-.215.06-.436.09-.66.09-.224 0-.445-.03-.66-.09-.143-.038-.285-.09-.423-.152-.07-.03-.138-.065-.206-.1z" fill="#D8D5D0" fill-rule="evenodd"/></svg>