<svg width="33" height="33" viewBox="0 0 33 33" xmlns="http://www.w3.org/2000/svg"><title>Shape</title><path d="M14.222 31.376c-.332.966-1.394 1.49-2.356 1.178l-.93-.302c-.97-.315-1.514-1.36-1.214-2.337l.11-.357c.25-.814-.103-1.878-.793-2.38l-.19-.137c-.688-.5-1.81-.51-2.507-.02l-.305.214c-.835.587-2.004.387-2.6-.43l-.574-.792c-.6-.824-.42-1.994.39-2.603l.3-.225c.68-.51 1.02-1.58.755-2.392l-.073-.22c-.262-.81-1.165-1.478-2.016-1.492l-.372-.005C.828 19.058 0 18.21 0 17.2v-.98c0-1.02.835-1.86 1.848-1.875l.373-.006c.852-.015 1.754-.68 2.017-1.492l.072-.222c.262-.81-.076-1.88-.757-2.392l-.298-.224c-.816-.613-.986-1.785-.39-2.603l.574-.79c.6-.825 1.77-1.014 2.598-.432l.305.215c.697.49 1.817.48 2.508-.02l.19-.138c.687-.5 1.042-1.567.792-2.38l-.11-.357c-.3-.976.252-2.026 1.213-2.338l.93-.302c.97-.315 2.025.21 2.357 1.18l.12.352c.277.805 1.188 1.458 2.042 1.458h.232c.85 0 1.765-.653 2.04-1.458l.122-.353c.332-.966 1.394-1.49 2.356-1.18l.93.303c.97.315 1.514 1.36 1.214 2.338l-.11.356c-.25.815.103 1.88.793 2.382l.19.137c.688.5 1.81.51 2.507.02l.305-.215c.835-.586 2.004-.387 2.6.43l.574.792c.6.825.42 1.995-.39 2.603l-.3.224c-.68.512-1.02 1.58-.755 2.392l.073.222c.262.81 1.165 1.477 2.016 1.49l.372.007c1.02.016 1.848.865 1.848 1.875v.98c0 1.02-.835 1.86-1.848 1.875l-.373.006c-.852.015-1.754.68-2.017 1.492l-.072.22c-.262.81.076 1.882.757 2.393l.298.224c.816.613.986 1.785.39 2.602l-.574.792c-.6.824-1.77 1.013-2.598.43l-.305-.214c-.697-.49-1.817-.48-2.508.02l-.19.138c-.687.5-1.042 1.566-.792 2.38l.11.357c.3.976-.252 2.025-1.213 2.337l-.93.302c-.97.315-2.025-.21-2.357-1.178l-.12-.353c-.277-.806-1.188-1.46-2.042-1.46h-.232c-.85 0-1.765.654-2.04 1.46l-.122.353zm2.278-6.644c4.43 0 8.023-3.59 8.023-8.022 0-4.43-3.592-8.023-8.023-8.023-4.43 0-8.023 3.592-8.023 8.023 0 4.43 3.592 8.022 8.023 8.022z" fill-rule="nonzero" fill="#FFF"/></svg>