<svg width="21" height="26" viewBox="0 0 21 26" xmlns="http://www.w3.org/2000/svg"><title>Combined Shape</title><path d="M15.162 20.21h-1.445l-.006-5.496c0-.755-.606-.753-.614-.753-.49 0-1.388 1.226-2.39 2.588v3.663l-1.46.003-.002-1.696s-.967 1.696-2.413 1.698c-1.642 0-2.2-1.13-2.203-3.833-.002-2.576.363-3.955 2.123-3.957 1.34 0 2.488 1.95 2.488 1.95V13.14l1.47-1.98s-.007 3.238 0 3.23c.686-.99 1.308-1.97 2.47-1.97 1.288 0 1.985 1.077 1.99 1.984l-.006 5.805zM8.226 3.563c0-1.042.845-1.887 1.887-1.887S12 2.522 12 3.564V5.87H8.226V3.565zm9.865 3.943l2.2 16.354c.153 1.133-.728 2.14-1.87 2.14H1.887C.754 26-.125 25.005.016 23.88L2.06 7.523c.117-.944.92-1.653 1.872-1.653H6.55V3.565C6.55 1.6 8.146 0 10.112 0c1.965 0 3.565 1.6 3.565 3.564V5.87h2.544c.944 0 1.743.7 1.87 1.637zm-11.32 6.45c-.672 0-.73.71-.728 2.423.003 1.713.095 2.38.727 2.38.858 0 2.21-2.186 2.21-2.186s-1.34-2.617-2.21-2.617z" fill="#3B9FE2" fill-rule="evenodd"/></svg>