<svg width="16" height="16" viewBox="0 0 16 16" xmlns="http://www.w3.org/2000/svg" xmlns:xlink="http://www.w3.org/1999/xlink"><title>Clock icon</title><defs><path id="a" d="M0 0h16v16H0"/></defs><g fill="none" fill-rule="evenodd"><mask id="b" fill="#fff"><use xlink:href="#a"/></mask><path d="M9.314.117L9.297.105 9.29.113C8.866.045 8.44 0 8 0 3.588 0 0 3.588 0 8c0 4.41 3.588 8 8 8 4.41 0 8-3.59 8-8C16 4.037 13.1.748 9.314.117M1 8.017C1 4.1 4.184.916 8.1.916v7.1s3.23 4.14 4.49 5.49c-1.224 1.003-2.79 1.607-4.49 1.607-3.916 0-7.1-3.185-7.1-7.098" fill="#D8D5D0" mask="url(#b)"/></g></svg>